<?xml version="1.0" encoding="utf-8"?>
<!-- Generator: Adobe Illustrator 19.2.0, SVG Export Plug-In . SVG Version: 6.00 Build 0)  -->
<svg version="1.1" id="Capa_1" xmlns="http://www.w3.org/2000/svg" xmlns:xlink="http://www.w3.org/1999/xlink" x="0px" y="0px"
	 viewBox="0 0 435.8 115.6" style="enable-background:new 0 0 435.8 115.6;" xml:space="preserve">
<style type="text/css">
	.st0{fill:#FFFFFF;}
</style>
<g>
	<path class="st0" d="M71.5,34C71.8,52.1,57.6,63.4,38,63.8L20.7,64L29,11.3l15.6-0.3C60.7,10.8,71.3,19.6,71.5,34z M40.7,23.6
		l-4.5,27.8l3.3-0.1c10.1-0.2,18.3-6.1,18.2-17.1c-0.1-7-4.5-10.9-13.7-10.7L40.7,23.6z"/>
	<path class="st0" d="M110.5,43.7l-0.6,3.7l-23.1,0.4c0,3,2,5.1,5.4,5.1c2.7,0,5.3-1.4,7-3.2l8.4,7.4c-4.7,4.5-10,6.3-16.9,6.4
		c-10.4,0.2-16.8-6.4-16.9-15.7c-0.2-11.4,8.8-22,21.1-22.2C106.6,25.4,112.1,33.8,110.5,43.7z M87.9,40.5l10.2-0.2
		c0.7-3-0.5-5.4-3.7-5.4C90.9,35,88.5,37.5,87.9,40.5z"/>
	<path class="st0" d="M146.3,28.7l-5.6,8.8c-1.6-1.6-4.4-2.8-7.9-2.7c-2.2,0-3.7,0.8-3.7,2.2c0,1,1,1.7,5.3,2.8
		c6.5,1.6,8.9,4.4,9,9.6c0.1,8-7.8,13.5-18.1,13.7c-6.1,0.1-11-1.7-13.6-4.4l5.6-8.7c1.9,1.9,4.9,3.4,8.9,3.4c1.5,0,4.1-0.4,4-2.4
		c0-1-0.9-1.9-4.6-2.8c-6.6-1.6-9.8-4.1-9.9-9c-0.1-8,7.2-13.9,17.9-14C139.1,24.9,143.9,26.4,146.3,28.7z"/>
	<path class="st0" d="M184.5,33l-9.8,6.5c-1.2-2.7-3.1-3.9-5.5-3.8c-4.7,0.1-7.5,4.9-7.4,9.8c0.1,3.2,1.7,5.6,5,5.6
		c3-0.1,5.1-1.6,6.7-4.3l8.3,6.9c-4.1,5.5-9.2,8.6-16.4,8.7c-10.3,0.2-16.7-6.7-16.9-15.7c-0.2-12.3,9.4-22.1,21.6-22.3
		C177.6,24.2,182.1,27.7,184.5,33z"/>
	<path class="st0" d="M219.8,60.7l-11.7,0.2l-0.1-3.6c-1.5,1.8-4.9,4.4-9.7,4.5c-9.2,0.2-12.8-6.9-11.3-16.8l3.2-20.2l13.2-0.2
		l-3.2,20c-0.5,2.9,0.7,4.9,3.3,4.9c2.6,0,4.5-1.7,5.5-3.2l3.4-21.8l13.2-0.2L219.8,60.7z"/>
	<path class="st0" d="M265.2,41.1l-0.6,3.7l-23.1,0.4c0,3,2,5.1,5.4,5.1c2.7,0,5.3-1.4,7-3.2l8.4,7.4c-4.7,4.5-10,6.3-16.9,6.4
		c-10.4,0.2-16.8-6.4-16.9-15.7c-0.2-11.4,8.8-22,21.1-22.2C261.4,22.8,266.9,31.1,265.2,41.1z M242.7,37.8l10.2-0.2
		c0.7-3-0.5-5.4-3.7-5.4C245.6,32.4,243.3,34.9,242.7,37.8z"/>
	<path class="st0" d="M307.1,39l-3.2,20.2l-13.2,0.2l3.2-20c0.5-2.9-0.7-4.9-3.4-4.9c-2.6,0-4.5,1.7-5.5,3.2l-3.4,21.8l-13.2,0.2
		l5.8-36.6l11.7-0.2l0.1,3.6c1.5-1.8,4.9-4.4,9.7-4.5C305,22.1,308.7,29.1,307.1,39z"/>
	<path class="st0" d="M332.9,22.3l9.7-0.2l-1.8,11l-9.7,0.2l-1.6,10.4c-0.4,2.6,0.9,4.1,3.4,4c1.9,0,3.4-0.6,4.4-1.1l1.6,10.6
		c-2,1.2-5.4,2.2-9.2,2.2c-8.5,0.1-14.9-6-13.4-15.9l1.5-10.1l-6.1,0.1l1.8-11l6.1-0.1l1.9-12l13.2-0.2L332.9,22.3z"/>
	<path class="st0" d="M383.5,37.2c0.2,12.3-10.4,21.6-22.9,21.8c-10.1,0.2-16.7-6.9-16.9-16.2c-0.2-12.3,10.4-21.6,22.9-21.8
		C376.8,20.8,383.4,27.9,383.5,37.2z M357.2,41.8c0.1,3.5,2.1,5.9,5.2,5.8c4.1-0.1,7.7-4.3,7.6-9.4c-0.1-3.5-2.1-5.9-5.2-5.8
		C360.8,32.5,357.1,36.7,357.2,41.8z"/>
	<path class="st0" d="M418.8,24.1l-5.6,8.8c-1.6-1.6-4.4-2.8-7.9-2.7c-2.2,0-3.7,0.8-3.7,2.2c0,1,1,1.7,5.3,2.8
		c6.5,1.6,8.9,4.4,9,9.6c0.1,8-7.8,13.5-18.1,13.7c-6.1,0.1-11-1.7-13.6-4.4l5.6-8.7c1.9,1.9,4.9,3.4,8.9,3.4c1.5,0,4.1-0.4,4-2.4
		c0-1-0.9-1.9-4.6-2.8c-6.6-1.6-9.8-4.1-9.9-9c-0.1-8,7.2-13.9,17.9-14C411.6,20.3,416.4,21.8,418.8,24.1z"/>
</g>
<g>
	<path class="st0" d="M182.7,104.7h-7.5l5.1-29h7.5L182.7,104.7z"/>
	<path class="st0" d="M211.9,105.2h-0.2L198,90.5l-2.5,14.2H188l5.2-29.5h0.2l13.8,14.7l2.4-14.2h7.5L211.9,105.2z"/>
	<path class="st0" d="M245.7,79.9l-5.2,5c-1-1.7-2.9-2.9-5.6-2.9c-5.8,0-9.1,3.8-9.1,10.1c0,3.9,2.5,6.2,6,6.2
		c2.6,0,4.8-0.9,6.7-2.8l4,6c-3.3,2.8-6.9,3.7-11.2,3.7c-8.2,0-13.2-5-13.2-12.7c0-9.3,7.5-17.4,17.2-17.4
		C240.4,75.2,243.1,76.9,245.7,79.9z"/>
	<path class="st0" d="M270.8,84.2c0,4.5-2.7,8-6.5,9.7l4.4,10.8h-8l-3.8-9.6h-3.4l-1.7,9.6h-7.5l5.1-29h12
		C266.6,75.7,270.8,79.1,270.8,84.2z M255.8,82.1l-1.2,6.5h4.5c2.1,0,4.1-1.4,4.1-3.9c0-1.7-1.1-2.6-2.9-2.6H255.8z"/>
	<path class="st0" d="M294.7,82.5h-11.8l-0.8,4.3h10.1l-1.1,6.3H281l-0.8,4.7h12.1l-1.2,6.8h-19.6l5.1-29h19.3L294.7,82.5z"/>
	<path class="st0" d="M302.8,104.7h-7.5l5.1-29h7.5L302.8,104.7z M308.1,74.2h-6.8l5.2-4.9h8.8L308.1,74.2z"/>
	<path class="st0" d="M333.1,83.3c0,3.1-1.6,5.1-3.4,6.2c1.9,0.8,3.5,2.6,3.5,5.3c0,6.8-5.7,9.9-11.3,9.9H308l5.1-29h11.7
		C329.8,75.7,333.1,79.1,333.1,83.3z M317.6,92.8l-0.9,5.1h5.4c1.9,0,3.6-1.1,3.6-3c0-1.3-1.1-2.1-2.6-2.1H317.6z M319.5,82.5
		l-0.8,4.6h3.4c1.7,0,3.2-1,3.2-2.7c0-1.2-0.9-1.9-2.4-1.9H319.5z"/>
	<path class="st0" d="M343.7,98.1H355l-1.1,6.6h-18.8l5.1-29h7.5L343.7,98.1z"/>
	<path class="st0" d="M379.9,82.5h-11.8l-0.8,4.3h10.1l-1.1,6.3h-10.1l-0.8,4.7h12.1l-1.2,6.8h-19.6l5.1-29h19.3L379.9,82.5z"/>
	<path class="st0" d="M404.7,78.6l-4.7,5.6c-1.4-1.3-3.4-2.2-6.2-2.2c-2.1,0-3.9,0.7-3.9,2.2c0,1.1,0.9,1.7,4.2,2.4
		c6.5,1.3,8.6,4.2,8.6,8.1c0,7.4-6.3,10.5-12.7,10.5c-5.2,0-8.9-1.7-11.4-4.3l4.7-5.7c1.5,2.1,4.7,3.2,7.3,3.2
		c2.7,0,4.3-0.8,4.3-2.3c0-1.1-0.9-1.7-4.3-2.4c-6.6-1.3-8.3-4.5-8.3-8.1c0-5.9,4.9-10.3,11.8-10.3C399,75.2,402.6,76.7,404.7,78.6z
		"/>
</g>
</svg>
