<?xml version="1.0" encoding="utf-8"?>
<!-- Generator: Adobe Illustrator 19.2.0, SVG Export Plug-In . SVG Version: 6.00 Build 0)  -->
<svg version="1.1" id="Capa_1" xmlns="http://www.w3.org/2000/svg" xmlns:xlink="http://www.w3.org/1999/xlink" x="0px" y="0px"
	 viewBox="0 0 100 100" style="enable-background:new 0 0 100 100;" xml:space="preserve">
<style type="text/css">
	.st0{fill:url(#SVGID_1_);}
	.st1{fill:#FFFFFF;}
</style>
<g>
	<linearGradient id="SVGID_1_" gradientUnits="userSpaceOnUse" x1="0.9329" y1="50" x2="99.0671" y2="50">
		<stop  offset="0" style="stop-color:#006CCF"/>
		<stop  offset="1" style="stop-color:#108DFF"/>
	</linearGradient>
	<circle class="st0" cx="50" cy="50" r="49.1"/>
	<g>
		<g>
			<path class="st1" d="M63.6,74H36.4c-5.6,0-10.2-4.5-10.2-10V36c0-5.5,4.6-10,10.2-10h27.2c5.6,0,10.2,4.5,10.2,10v28
				C73.8,69.5,69.2,74,63.6,74z M36.4,30.1c-3.4,0-6.1,2.6-6.1,5.9v28c0,3.2,2.7,5.9,6.1,5.9h27.2c3.4,0,6.1-2.6,6.1-5.9V36
				c0-3.2-2.7-5.9-6.1-5.9H36.4z"/>
		</g>
		<g>
			<path class="st1" d="M50,62.5c-6.9,0-12.5-5.6-12.5-12.5c0-6.9,5.6-12.5,12.5-12.5c6.9,0,12.5,5.6,12.5,12.5
				C62.5,56.9,56.9,62.5,50,62.5z M50,41.7c-4.6,0-8.3,3.7-8.3,8.3c0,4.6,3.7,8.3,8.3,8.3c4.6,0,8.3-3.7,8.3-8.3
				C58.3,45.4,54.6,41.7,50,41.7z"/>
		</g>
		<circle class="st1" cx="63.4" cy="36.9" r="2.9"/>
	</g>
</g>
</svg>
