<?xml version="1.0" encoding="utf-8"?>
<!-- Generator: Adobe Illustrator 19.2.0, SVG Export Plug-In . SVG Version: 6.00 Build 0)  -->
<svg version="1.1" id="Capa_1" xmlns="http://www.w3.org/2000/svg" xmlns:xlink="http://www.w3.org/1999/xlink" x="0px" y="0px"
	 viewBox="0 0 149.7 98.7" style="enable-background:new 0 0 149.7 98.7;" xml:space="preserve">
<style type="text/css">
	.st0{fill:#FFFFFF;}
	.st1{fill:url(#SVGID_1_);stroke:url(#SVGID_2_);stroke-miterlimit:10;}
	.st2{opacity:0.38;}
	.st3{fill:url(#SVGID_3_);stroke:url(#SVGID_4_);stroke-miterlimit:10;}
	.st4{fill:url(#SVGID_5_);stroke:url(#SVGID_6_);stroke-miterlimit:10;}
	.st5{fill:url(#SVGID_7_);stroke:url(#SVGID_8_);stroke-miterlimit:10;}
	.st6{fill:url(#SVGID_9_);stroke:url(#SVGID_10_);stroke-miterlimit:10;}
</style>
<path class="st0" d="M92.5,98.7H5.6c-3.9,0-6.6-3.9-5.3-7.6L37.8,3.7C38.6,1.5,40.7,0,43.1,0h86.5c4.3,0,7.2,4.3,5.8,8.3l-37,86.4
	C97.4,97.1,95.1,98.7,92.5,98.7z"/>
<linearGradient id="SVGID_1_" gradientUnits="userSpaceOnUse" x1="30.1418" y1="52.3333" x2="147.8078" y2="52.3333">
	<stop  offset="0" style="stop-color:#006CCF"/>
	<stop  offset="1" style="stop-color:#108DFF"/>
</linearGradient>
<linearGradient id="SVGID_2_" gradientUnits="userSpaceOnUse" x1="29.6418" y1="52.3333" x2="148.3078" y2="52.3333">
	<stop  offset="0" style="stop-color:#006CCF"/>
	<stop  offset="1" style="stop-color:#108DFF"/>
</linearGradient>
<path class="st1" d="M114.5,89.7H35.8c-3.9,0-6.6-3.9-5.3-7.6L58,18.6c0.8-2.2,2.9-3.7,5.3-3.7h78.3c4.3,0,7.2,4.3,5.8,8.3
	l-27.2,62.4C119.4,88.1,117.1,89.7,114.5,89.7z"/>
<g class="st2">
	<path d="M86.7,48.5c-3.4,0-6.1,2.7-6.1,6.1s2.7,6.1,6.1,6.1c3.4,0,6.1-2.7,6.1-6.1S90.1,48.5,86.7,48.5L86.7,48.5z M86.7,59.2
		c-2.5,0-4.6-2.1-4.6-4.6c0-2.5,2.1-4.6,4.6-4.6c2.5,0,4.6,2.1,4.6,4.6C91.3,57.1,89.2,59.2,86.7,59.2L86.7,59.2z M86.7,59.2"/>
	<path d="M86.7,50.8c-2.1,0-3.8,1.7-3.8,3.8c0,2.1,1.7,3.8,3.8,3.8c2.1,0,3.8-1.7,3.8-3.8C90.5,52.5,88.8,50.8,86.7,50.8L86.7,50.8z
		 M86.7,56.9c-1.3,0-2.3-1-2.3-2.3c0-1.3,1-2.3,2.3-2.3s2.3,1,2.3,2.3C89,55.9,87.9,56.9,86.7,56.9L86.7,56.9z M86.7,56.9"/>
	<rect x="85.9" y="39.4" width="1.5" height="1.5"/>
	<rect x="85.9" y="42.4" width="1.5" height="1.5"/>
	<rect x="85.9" y="62.3" width="1.5" height="1.5"/>
	<path d="M86.7,36.3c-10.1,0-18.3,8.2-18.3,18.3c0,10.1,8.2,18.3,18.3,18.3c10.1,0,18.3-8.2,18.3-18.3C105,44.5,96.8,36.3,86.7,36.3
		L86.7,36.3z M99.9,44.3l-9.5,3.2l-0.6-9.3C93.9,38.9,97.5,41.2,99.9,44.3L99.9,44.3z M83.6,38.1l-0.6,9.3l-9.5-3.2
		C75.9,41.2,79.5,38.9,83.6,38.1L83.6,38.1z M69.9,54.6c0-1.7,0.2-3.3,0.7-4.8l7.8,4.8l-7.8,4.8C70.1,57.9,69.9,56.3,69.9,54.6
		L69.9,54.6z M73.5,64.9l9.5-3.2l0.6,9.3C79.5,70.3,75.9,68.1,73.5,64.9L73.5,64.9z M89.8,71.1l0.6-9.3l9.5,3.2
		C97.5,68.1,93.9,70.3,89.8,71.1L89.8,71.1z M100.7,63.6L89.9,60l-1,0.7l-0.7,10.7c-0.5,0-1,0.1-1.6,0.1c-0.5,0-1.1,0-1.6-0.1
		l-0.7-10.7l-1-0.7l-10.9,3.6c-0.6-0.9-0.8-1.8-1.2-2.7l9.3-5.6V54l-9.3-5.6c0.4-1,0.8-1.9,1.3-2.7l10.8,3.6l1-0.7l0.7-10.7
		c0.5,0,1-0.1,1.6-0.1c0.5,0,1.1,0,1.6,0.1L89,48.6l1,0.7l10.9-3.6c0.6,0.9,0.8,1.8,1.2,2.7L92.8,54v1.3l9.3,5.6
		C101.7,61.8,101.3,62.8,100.7,63.6L100.7,63.6z M95,54.6l7.8-4.8c0.5,1.5,0.7,3.1,0.7,4.8c0,1.7-0.2,3.3-0.7,4.8L95,54.6z M95,54.6
		"/>
	<path d="M86.7,33.3c-11.8,0-21.4,9.6-21.4,21.4S74.9,76,86.7,76c11.8,0,21.4-9.6,21.4-21.4S98.5,33.3,86.7,33.3L86.7,33.3z
		 M86.7,74.5c-10.9,0-19.8-8.9-19.8-19.8c0-10.9,8.9-19.8,19.8-19.8s19.8,8.9,19.8,19.8C106.5,65.6,97.6,74.5,86.7,74.5L86.7,74.5z
		 M86.7,74.5"/>
	<path d="M112.6,71.4h-3.1v-3.1H108v3.1h1.5v1.5H108v-1.5H105v1.5h3.1V76h1.5v-3.1h3.1V71.4z M112.6,71.4"/>
	<rect x="105.8" y="34" width="4.6" height="1.5"/>
	<rect x="99.7" y="34" width="4.6" height="1.5"/>
	<rect x="104.2" y="35.6" width="1.5" height="4.6"/>
	<rect x="104.2" y="29.4" width="1.5" height="4.6"/>
	<path d="M68.4,36.3h1.5v-3.1H73v-1.5h-3.1v-3.1h-1.5v3.1h1.5v1.5h-1.5v-1.5h-3.1v1.5h3.1V36.3z M68.4,36.3"/>
</g>
</svg>
