<?xml version="1.0" encoding="utf-8"?>
<!-- Generator: Adobe Illustrator 19.2.0, SVG Export Plug-In . SVG Version: 6.00 Build 0)  -->
<svg version="1.1" id="Capa_1" xmlns="http://www.w3.org/2000/svg" xmlns:xlink="http://www.w3.org/1999/xlink" x="0px" y="0px"
	 viewBox="0 0 287.3 98.7" style="enable-background:new 0 0 287.3 98.7;" xml:space="preserve">
<style type="text/css">
	.st0{fill:#FFFFFF;}
	.st1{fill:url(#SVGID_1_);stroke:url(#SVGID_2_);stroke-miterlimit:10;}
	.st2{opacity:0.38;}
	.st3{enable-background:new    ;}
</style>
<path class="st0" d="M93.5,98.8H6.6c-3.9,0-6.6-3.9-5.3-7.6L38.8,3.7C39.6,1.5,41.7,0,44.1,0h86.5c4.3,0,7.2,4.3,5.8,8.3l-37,86.4
	C98.4,97.1,96.1,98.8,93.5,98.8z"/>
<linearGradient id="SVGID_1_" gradientUnits="userSpaceOnUse" x1="31.2072" y1="-3092.45" x2="286.2928" y2="-3092.45" gradientTransform="matrix(1 0 0 -1 0 -3040)">
	<stop  offset="0" style="stop-color:#006CCE"/>
	<stop  offset="1" style="stop-color:#108CFF"/>
</linearGradient>
<linearGradient id="SVGID_2_" gradientUnits="userSpaceOnUse" x1="30.7072" y1="-3092.45" x2="286.7928" y2="-3092.45" gradientTransform="matrix(1 0 0 -1 0 -3040)">
	<stop  offset="0" style="stop-color:#006CCE"/>
	<stop  offset="1" style="stop-color:#108CFF"/>
</linearGradient>
<path class="st1" d="M252.8,89.9h-216c-3.9,0-6.6-3.9-5.3-7.6l27.6-63.5c0.8-2.2,2.9-3.7,5.3-3.7h215.7c4.3,0,7.2,4.3,5.8,8.3
	l-27.2,62.4C257.7,88.2,255.4,89.9,252.8,89.9z"/>
<g class="st2">
	<g>
		<g>
			<g>
				<path d="M100.3,52V38.8c0-3-2.5-5.5-5.5-5.5H81.7c-0.2,0-0.4,0.1-0.6,0.2l-2.6,2.6c-0.4,0-0.9-0.1-1.3-0.1
					c-5.7-0.3-10.5,0.7-12.3,2.5c-0.7,0.7-0.9,1.4-0.8,1.9c0.1,1.7,2.1,3.3,5.7,4.4l-8.6,8.6c-1,1-1.6,2.4-1.6,3.9s0.6,2.8,1.6,3.9
					l11.1,11.1h-0.9c-0.5,0-0.8,0.4-0.8,0.8c0,0.5,0.4,0.8,0.8,0.8h16.9c0.5,0,0.8-0.4,0.8-0.8c0-0.5-0.4-0.8-0.8-0.8h-8.1
					l19.9-19.8C100.2,52.5,100.3,52.1,100.3,52z M65.8,40.5c0-0.1,0-0.3,0.3-0.7c1.2-1.2,5-2.3,10.8-2l-5.7,5.7
					C67.3,42.5,65.8,41.1,65.8,40.5z M79.1,71.2c-0.7,0.7-1.7,1.1-2.7,1.1s-2-0.4-2.7-1.1L62.5,60c-0.7-0.7-1.1-1.7-1.1-2.7
					s0.4-2,1.1-2.7l16.7-16.7c2.5,0.3,4.7,0.7,6.5,1.4c1.2,0.5,2,0.9,2.5,1.3c-0.6,0.6-1,1.5-1,2.4c0,0.3,0,0.5,0.1,0.8
					c0,0,0,0,0,0.1l0,0l0,0c0.4,1.5,1.7,2.5,3.3,2.5c1.9,0,3.4-1.5,3.4-3.4s-1.5-3.4-3.4-3.4c-0.3,0-0.6,0-0.9,0.1
					c-0.7-0.8-1.9-1.4-3.4-2c-1.6-0.6-3.5-1.1-5.6-1.4l1.4-1.4h12.8c2.1,0,3.8,1.7,3.8,3.8v12.8L79.1,71.2z M90.6,41.6
					c0-0.1,0-0.2,0-0.3l0,0c0.9,0,1.7,0.8,1.7,1.7s-0.8,1.7-1.7,1.7c-0.6,0-1.1-0.3-1.4-0.7C90.4,43.1,90.6,42.2,90.6,41.6z"/>
			</g>
			<g>
				<path d="M96,40.5c-0.4,0.1-0.7,0.6-0.6,1.1c0.2,0.5,0.2,1,0.2,1.5c0,2.8-2.3,5.1-5.1,5.1c-2.8,0-5.1-2.3-5.1-5.1
					c0-0.5-0.4-0.8-0.8-0.8c-0.5,0-0.8,0.4-0.8,0.8c0,3.7,3,6.8,6.8,6.8c3.7,0,6.8-3,6.8-6.8c0-0.7-0.1-1.4-0.3-2
					C96.9,40.6,96.4,40.3,96,40.5z"/>
			</g>
			<g>
				<path d="M94.9,39.8c0.2,0,0.4-0.1,0.6-0.2c0.3-0.3,0.3-0.9,0-1.2c-0.1-0.1-0.3-0.3-0.4-0.4c-0.4-0.3-0.9-0.3-1.2,0.1
					c-0.3,0.4-0.3,0.9,0.1,1.2c0.1,0.1,0.2,0.2,0.3,0.3C94.4,39.8,94.6,39.8,94.9,39.8z"/>
			</g>
			<g>
				<path d="M84.4,59.3c0.2-0.2,0.3-0.4,0.4-0.7c0.8-1.5,0.6-3.2-0.4-4.6c-0.9-1.2-2.2-1.7-3.7-1.5c-1,0.2-2,0.7-2.9,1.3
					c-0.2,0.1-0.4,0.2-0.6,0.3c-1.2,0.7-2.4,0.7-3.2,0.1c-0.6-0.5-0.8-1.3-0.5-2.3c0.1-0.3,0.2-0.5,0.4-0.8l1.4,1.4
					c0.2,0.2,0.4,0.2,0.6,0.2s0.4-0.1,0.6-0.2c0.3-0.3,0.3-0.9,0-1.2l-1.4-1.4c0.6-0.4,1.3-0.7,1.9-0.9c0.5-0.1,0.7-0.6,0.6-1
					c-0.1-0.5-0.6-0.7-1-0.6c-0.9,0.2-1.9,0.7-2.8,1.3l-0.6-0.6c-0.3-0.3-0.9-0.3-1.2,0c-0.3,0.3-0.3,0.9,0,1.2l0.6,0.6
					c-0.4,0.5-0.7,1-0.8,1.5c-0.5,1.6,0,3.2,1.1,4.1c1.3,1,3.2,1.1,5,0c0.1,0,0.1-0.1,0.2-0.1l3.7,3.7c-0.8,0.6-1.7,1-2.3,0.8
					c-0.4-0.1-0.9,0.1-1.1,0.6c-0.1,0.4,0.1,0.9,0.6,1.1c0.3,0.1,0.6,0.1,0.9,0.1c1.1,0,2.2-0.5,3.1-1.3l0.9,0.9
					c0.2,0.2,0.4,0.2,0.6,0.2s0.4-0.1,0.6-0.2c0.3-0.3,0.3-0.9,0-1.2L84.4,59.3z M83.3,58c0,0.1-0.1,0.2-0.1,0.2l-3.3-3.3
					c0.4-0.2,0.9-0.4,1.3-0.5c0.8-0.1,1.5,0.1,2,0.8C83.7,56,83.8,57,83.3,58z"/>
			</g>
			<g>
				<path d="M70.5,62.2c-0.3-0.3-0.9-0.3-1.2,0c-0.3,0.3-0.3,0.9,0,1.2l0.3,0.3C69.8,64,70,64,70.2,64s0.4-0.1,0.6-0.2
					c0.3-0.3,0.3-0.9,0-1.2L70.5,62.2z"/>
			</g>
			<g>
				<path d="M78.2,66.2l-1.8,1.8l-3.6-3.6c-0.3-0.3-0.9-0.3-1.2,0c-0.3,0.3-0.3,0.9,0,1.2l3.6,3.6c0.3,0.3,0.8,0.5,1.2,0.5
					c0.4,0,0.9-0.2,1.2-0.5l1.8-1.8c0.3-0.3,0.3-0.9,0-1.2C79,65.9,78.5,65.9,78.2,66.2z"/>
			</g>
		</g>
	</g>
</g>
<g class="st3">
	<path class="st0" d="M124.1,47.4c-0.1,0.5-0.2,1-0.3,1.5c-0.1,0.5-0.3,1-0.5,1.5c-0.3,0.7-0.8,1.1-1.3,1.5
		c-0.5,0.3-1.1,0.5-1.8,0.6c-0.6,0-1.1,0.1-1.7,0.1c-0.6,0-1.1,0-1.7,0c-0.5,0-1-0.1-1.4-0.2c-0.6-0.2-1.1-0.5-1.4-1
		s-0.4-1.1-0.4-1.7c0.1-0.5,0.1-1,0.2-1.6c0-0.1,0-0.3,0-0.4c0-0.1,0.1-0.3,0.1-0.4c0.1-0.2,0.2-0.4,0.4-0.5
		c0.1-0.1,0.3-0.2,0.6-0.2c0.8,0,1.5,0,2.3,0c0.3,0,0.5,0.1,0.6,0.2s0.1,0.4,0.1,0.6c0,0.1,0,0.3,0,0.4l-0.1,0.4c0,0.2,0,0.3,0,0.4
		c0.1,0.1,0.2,0.1,0.4,0.1c0.4,0,0.8,0,1.2,0c0.2,0,0.3,0,0.4-0.1c0.1-0.1,0.1-0.2,0.2-0.3c0.1-0.5,0.2-1.1,0.3-1.6
		c0-0.2,0-0.3,0-0.3c0-0.1-0.1-0.1-0.3-0.2c-0.6-0.2-1.1-0.4-1.7-0.6c-0.4-0.1-0.7-0.2-1-0.4c-0.6-0.2-1.2-0.4-1.8-0.6
		c-0.4-0.1-0.6-0.3-0.7-0.6c-0.1-0.2-0.1-0.5-0.1-0.9c0.2-1.3,0.4-2.6,0.7-3.9c0.1-0.5,0.3-1.1,0.6-1.6c0.3-0.6,0.7-1.1,1.2-1.5
		c0.5-0.3,1.1-0.6,1.7-0.7c0.3,0,0.6-0.1,0.9-0.1c0.3,0,0.6,0,0.9,0h0.1c0.4,0,0.8,0,1.2,0c0.4,0,0.8,0,1.2,0.1
		c0.7,0.1,1.3,0.3,1.7,0.8c0.4,0.5,0.6,1.1,0.7,1.8c0,0.4,0,0.7-0.1,1.1c-0.1,0.4-0.1,0.7-0.2,1c0,0.2-0.1,0.4-0.1,0.6
		c0,0.2-0.1,0.4-0.3,0.5s-0.3,0.2-0.5,0.2c-0.9,0-1.7,0-2.5,0c-0.2,0-0.4-0.1-0.5-0.2c-0.1-0.1-0.1-0.3-0.1-0.5l0.2-1
		c0-0.2,0-0.3,0-0.4c-0.1-0.1-0.2-0.1-0.4-0.1c-0.4,0-0.8,0-1.2,0c-0.2,0-0.3,0-0.4,0.1s-0.1,0.2-0.2,0.4c-0.1,0.4-0.2,0.8-0.2,1.2
		c0,0.1,0,0.2,0,0.3c0,0.1,0,0.1,0.1,0.1c0,0,0.1,0.1,0.3,0.1c0.8,0.3,1.5,0.5,2.3,0.8c0.1,0,0.2,0.1,0.4,0.1c0.1,0,0.3,0.1,0.4,0.1
		c0.4,0.1,0.9,0.3,1.3,0.4c0.4,0.1,0.7,0.3,0.8,0.6c0.1,0.3,0.2,0.6,0.1,1.1c-0.1,0.5-0.2,0.9-0.2,1.4L124.1,47.4z"/>
	<path class="st0" d="M136.2,49.6c-0.1,0.6-0.2,1.2-0.3,1.8l0,0.1c-0.1,0.4-0.2,0.7-0.4,0.8c-0.2,0.2-0.5,0.2-0.9,0.2h-8.1
		c-0.3,0-0.6-0.1-0.7-0.2c-0.1-0.2-0.2-0.4-0.2-0.7l2.6-14.9c0-0.2,0.1-0.4,0.2-0.6c0.1-0.2,0.2-0.4,0.3-0.5
		c0.1-0.1,0.3-0.2,0.5-0.2h8.6c0.4,0,0.6,0.2,0.6,0.6c0,0.1,0,0.2,0,0.4l-0.4,2c0,0.1,0,0.1,0,0.2c-0.1,0.3-0.2,0.5-0.4,0.6
		s-0.4,0.2-0.7,0.2h-4.9c-0.2,0-0.3,0.1-0.4,0.3l-0.4,2c0,0.2,0.1,0.3,0.2,0.3h3.4c0.4,0,0.6,0.1,0.7,0.2s0.2,0.4,0.1,0.8l-0.4,2
		c-0.1,0.3-0.2,0.6-0.4,0.8c-0.2,0.2-0.5,0.3-0.8,0.3h-3.1c-0.2,0-0.3,0-0.4,0c-0.1,0-0.1,0.1-0.2,0.2c0,0.1-0.1,0.2-0.1,0.4
		l-0.3,1.5c0,0.2,0,0.3,0,0.3s0.1,0.1,0.3,0.1c0.1,0,0.2,0,0.3,0h4.4c0.3,0,0.6,0.1,0.7,0.2C136.2,49,136.3,49.2,136.2,49.6z"/>
	<path class="st0" d="M148.9,45.9C148.9,45.9,148.8,45.9,148.9,45.9c-0.1,0.2-0.2,0.3-0.3,0.4c-0.1,0.1-0.2,0.2-0.3,0.3
		c-0.1,0.1-0.2,0.2-0.3,0.3s-0.1,0.3,0,0.4c0,0.5,0.1,1.1,0.1,1.6c0,0.2,0,0.3,0,0.5c0,0.7,0.1,1.4,0.1,2c0,0.3-0.1,0.6-0.2,0.8
		c-0.1,0.2-0.4,0.3-0.7,0.3c-0.8,0-1.5,0-2.3,0c-0.4,0-0.7-0.3-0.7-0.8c-0.1-0.9-0.1-1.8-0.2-2.7c0-0.3,0-0.6-0.1-0.8
		c0-0.2,0-0.3,0-0.4c0-0.1-0.1-0.1-0.1-0.1c-0.1,0-0.2,0-0.4,0c-0.3,0-0.4,0-0.5,0c-0.1,0-0.2,0.1-0.2,0.2c0,0.1-0.1,0.3-0.1,0.5
		c0,0.3-0.1,0.6-0.2,0.9c-0.1,0.7-0.3,1.5-0.4,2.2c0,0.3-0.1,0.5-0.2,0.6c-0.1,0.1-0.3,0.3-0.4,0.3s-0.3,0.1-0.5,0.1h-0.1
		c-0.6,0-1.2,0-1.8,0c-0.4,0-0.6-0.1-0.7-0.2c-0.1-0.2-0.2-0.4-0.1-0.8l2.7-15.3c0-0.2,0.2-0.4,0.3-0.6c0.2-0.1,0.4-0.2,0.6-0.3h1.7
		c1.3,0,2.6,0,3.9,0c0.5,0,1,0.1,1.4,0.2c0.6,0.2,1.1,0.6,1.3,1.1c0.3,0.5,0.4,1.1,0.3,1.8c0,0.7-0.1,1.3-0.2,2
		c-0.1,0.7-0.2,1.3-0.4,2c-0.1,0.5-0.2,0.9-0.3,1.4c-0.1,0.4-0.1,0.7-0.3,1C149.3,45.2,149.1,45.6,148.9,45.9z M145.9,43.1
		c0.1-0.4,0.2-0.7,0.2-1l0.1-0.5h0c0-0.2,0.1-0.3,0.1-0.5c0.1-0.4,0.1-0.8,0.2-1.2c0-0.2,0-0.4-0.1-0.5s-0.2-0.1-0.4-0.1
		c-0.5,0-0.9,0-1.4,0c-0.1,0-0.2,0-0.3,0.1c-0.1,0-0.1,0.1-0.1,0.3c0,0.2-0.1,0.3-0.1,0.5l-0.5,3.1c-0.1,0.2-0.1,0.3,0,0.4
		c0.1,0.1,0.2,0.1,0.4,0.1h1.2c0.3,0,0.4,0,0.5-0.1S145.8,43.4,145.9,43.1z"/>
	<path class="st0" d="M164.3,35.5c0.3,0,0.5,0.1,0.6,0.3s0.1,0.4,0,0.7c-0.5,1.2-1,2.5-1.5,3.7c-0.4,0.9-0.7,1.8-1.1,2.6
		c-0.8,1.9-1.6,3.8-2.4,5.7c-0.4,0.9-0.8,1.8-1.1,2.7h0c-0.1,0.1-0.1,0.3-0.2,0.4c-0.1,0.3-0.3,0.5-0.5,0.7s-0.4,0.2-0.7,0.2
		c-0.7,0-1.5,0-2.2,0c-0.3,0-0.5-0.1-0.6-0.2c-0.1-0.1-0.2-0.4-0.2-0.7c-0.1-1.5-0.2-3.1-0.3-4.6c-0.1-0.8-0.1-1.7-0.2-2.5
		c0-0.7-0.1-1.5-0.1-2.2c0-0.6-0.1-1.2-0.1-1.8c-0.1-1.1-0.1-2.1-0.2-3.1c0-0.3,0-0.5,0-0.8c0,0,0,0,0,0c0-0.1,0-0.1,0-0.2
		c0-0.7,0.4-1,1.1-1.1h2c0.3,0,0.5,0.1,0.7,0.2c0.1,0.1,0.2,0.4,0.2,0.6c0.1,1.2,0.1,2.3,0.2,3.5c0,0.3,0,0.7,0,1
		c0,0.6,0.1,1.1,0.1,1.7c0,0.4,0,0.9,0,1.3c0,0.1,0,0.3,0,0.4c0,0,0,0.1,0,0.1l0,0c0,0,0,0,0,0c0,0,0.1,0,0.1-0.1
		c0.1-0.1,0.1-0.2,0.1-0.3c0.5-1.2,1-2.5,1.5-3.7c0.5-1.2,1-2.5,1.5-3.7c0-0.1,0.1-0.2,0.1-0.3c0.1-0.2,0.2-0.3,0.4-0.5
		s0.3-0.2,0.5-0.2C162.8,35.4,163.6,35.4,164.3,35.5z"/>
	<path class="st0" d="M168.8,51.5c0,0.1,0,0.2-0.1,0.3c-0.1,0.2-0.1,0.3-0.3,0.4c-0.1,0.1-0.3,0.2-0.5,0.2c-0.2,0-0.3,0.1-0.5,0.1
		h-2.2c-0.2,0-0.4-0.1-0.5-0.2c-0.1-0.1-0.2-0.3-0.2-0.5c0-0.2,0-0.3,0-0.5l2.6-14.8c0-0.1,0-0.2,0.1-0.3c0.1-0.3,0.2-0.5,0.4-0.6
		c0.2-0.1,0.4-0.2,0.7-0.2h2.1c0.4,0,0.6,0.1,0.7,0.2s0.2,0.4,0.1,0.8L168.8,51.5z"/>
	<path class="st0" d="M182.1,46.2c0,0.3-0.1,0.5-0.1,0.8c-0.1,0.4-0.1,0.8-0.2,1.2c-0.1,0.4-0.1,0.8-0.2,1.2
		c-0.2,0.9-0.7,1.7-1.3,2.2c-0.6,0.6-1.4,0.9-2.3,0.9c-1.1,0.1-2.2,0.1-3.2,0.1c-0.4,0-0.8-0.1-1.2-0.1c-0.4-0.1-0.7-0.2-1-0.4
		c-0.3-0.2-0.6-0.5-0.8-0.9c-0.2-0.3-0.3-0.7-0.3-1.2c0-0.4,0-0.7,0.1-1.1c0.2-1.2,0.4-2.5,0.6-3.7l1.1-6.3c0.1-0.7,0.4-1.3,0.8-1.8
		c0.3-0.5,0.7-0.8,1.2-1.1c0.5-0.3,1-0.4,1.5-0.5c0.4-0.1,0.8-0.1,1.2-0.1h0.2c0.4,0,0.7,0,1.1,0c0.4,0,0.7,0,1.1,0
		c0.3,0,0.5,0,0.7,0.1c0.2,0,0.5,0.1,0.7,0.2c0.6,0.2,1.1,0.6,1.4,1.1c0.3,0.5,0.4,1.1,0.3,1.8c0,0.4-0.1,0.8-0.2,1.2
		c-0.1,0.4-0.1,0.8-0.2,1.3c0,0.2-0.1,0.5-0.1,0.7c0,0.2-0.1,0.4-0.3,0.6c-0.2,0.1-0.4,0.2-0.6,0.2c-0.8,0-1.5,0-2.2,0
		c-0.3,0-0.5-0.1-0.6-0.3s-0.1-0.4-0.1-0.7c0-0.3,0.1-0.7,0.2-1l0.2-0.8c0-0.1,0-0.2-0.1-0.3c0-0.1-0.1-0.1-0.2-0.1
		c-0.6,0-1.1,0-1.7,0c-0.1,0-0.2,0.1-0.3,0.1c-0.1,0.1-0.1,0.2-0.2,0.3l-1.5,8.3c0,0.2,0,0.3,0,0.4c0,0.1,0.1,0.2,0.1,0.2
		c0.1,0,0.2,0,0.4,0h1.2c0.2,0,0.3,0,0.4,0c0.1,0,0.2-0.1,0.2-0.2c0-0.1,0.1-0.2,0.1-0.4l0.3-1.5c0-0.1,0.1-0.3,0.1-0.4
		c0.1-0.2,0.2-0.4,0.3-0.5c0.1-0.1,0.3-0.2,0.6-0.2c0.8,0,1.5,0,2.3,0c0.2,0,0.4,0.1,0.5,0.2C182.1,45.8,182.1,46,182.1,46.2z"/>
	<path class="st0" d="M187.5,51.5c0,0.1,0,0.2-0.1,0.3c-0.1,0.2-0.1,0.3-0.3,0.4c-0.1,0.1-0.3,0.2-0.5,0.2c-0.2,0-0.3,0.1-0.5,0.1
		h-2.2c-0.2,0-0.4-0.1-0.5-0.2c-0.1-0.1-0.2-0.3-0.2-0.5c0-0.2,0-0.3,0-0.5l2.6-14.8c0-0.1,0-0.2,0.1-0.3c0.1-0.3,0.2-0.5,0.4-0.6
		c0.2-0.1,0.4-0.2,0.7-0.2h2.1c0.4,0,0.6,0.1,0.7,0.2s0.2,0.4,0.1,0.8L187.5,51.5z"/>
	<path class="st0" d="M201,45.4c-0.2,1.2-0.4,2.3-0.6,3.5c-0.1,0.5-0.3,1-0.5,1.4c-0.3,0.7-0.8,1.2-1.3,1.5
		c-0.5,0.4-1.1,0.6-1.8,0.6c-0.5,0-1,0.1-1.5,0.1c-0.5,0-1,0-1.5,0h-0.3c-0.4,0-0.9-0.1-1.3-0.2c-0.7-0.2-1.1-0.5-1.5-1
		c-0.3-0.5-0.5-1.1-0.4-1.8c0.1-0.7,0.2-1.3,0.3-2c0.5-2.7,0.9-5.3,1.4-8c0.1-0.5,0.2-1,0.4-1.5c0.3-0.7,0.7-1.3,1.2-1.7
		c0.5-0.4,1.2-0.7,2-0.8c1.5-0.2,2.9-0.2,4.3,0c0.5,0.1,0.9,0.2,1.2,0.5c0.3,0.3,0.6,0.6,0.8,1c0.2,0.4,0.3,0.8,0.3,1.3
		c0,0.4-0.1,0.9-0.2,1.3L201,45.4z M196.3,48.7c0.1,0,0.2,0,0.3-0.1c0.1-0.1,0.1-0.2,0.2-0.3c0-0.1,0.1-0.2,0.1-0.3l1.4-7.9
		c0-0.3,0-0.5,0-0.6s-0.2-0.1-0.5-0.1c-0.4,0-0.7,0-1.1,0c-0.3,0-0.4,0-0.5,0.1c-0.1,0.1-0.2,0.3-0.2,0.5l-1.4,7.9
		c0,0.1-0.1,0.3-0.1,0.4c0,0.1,0,0.2,0.1,0.3s0.1,0.1,0.3,0.1C195.2,48.7,195.7,48.7,196.3,48.7z"/>
	<path class="st0" d="M213.2,47.4c-0.1,0.5-0.2,1-0.3,1.5c-0.1,0.5-0.3,1-0.5,1.5c-0.3,0.7-0.8,1.1-1.3,1.5
		c-0.5,0.3-1.1,0.5-1.8,0.6c-0.6,0-1.1,0.1-1.7,0.1c-0.6,0-1.1,0-1.7,0c-0.5,0-1-0.1-1.4-0.2c-0.6-0.2-1.1-0.5-1.4-1
		c-0.3-0.5-0.4-1.1-0.4-1.7c0.1-0.5,0.1-1,0.2-1.6c0-0.1,0-0.3,0-0.4c0-0.1,0.1-0.3,0.1-0.4c0.1-0.2,0.2-0.4,0.4-0.5
		s0.3-0.2,0.6-0.2c0.8,0,1.5,0,2.3,0c0.3,0,0.5,0.1,0.6,0.2s0.1,0.4,0.1,0.6c0,0.1,0,0.3,0,0.4l-0.1,0.4c0,0.2,0,0.3,0,0.4
		s0.2,0.1,0.4,0.1c0.4,0,0.8,0,1.2,0c0.2,0,0.3,0,0.4-0.1c0.1-0.1,0.1-0.2,0.2-0.3c0.1-0.5,0.2-1.1,0.3-1.6c0-0.2,0-0.3,0-0.3
		c0-0.1-0.1-0.1-0.3-0.2c-0.6-0.2-1.1-0.4-1.7-0.6c-0.4-0.1-0.7-0.2-1-0.4c-0.6-0.2-1.2-0.4-1.8-0.6c-0.4-0.1-0.6-0.3-0.7-0.6
		c-0.1-0.2-0.1-0.5-0.1-0.9c0.2-1.3,0.4-2.6,0.7-3.9c0.1-0.5,0.3-1.1,0.6-1.6c0.3-0.6,0.7-1.1,1.2-1.5c0.5-0.3,1.1-0.6,1.7-0.7
		c0.3,0,0.6-0.1,0.9-0.1c0.3,0,0.6,0,0.9,0h0.1c0.4,0,0.8,0,1.2,0c0.4,0,0.8,0,1.2,0.1c0.7,0.1,1.3,0.3,1.7,0.8
		c0.4,0.5,0.6,1.1,0.7,1.8c0,0.4,0,0.7-0.1,1.1c-0.1,0.4-0.1,0.7-0.2,1c0,0.2-0.1,0.4-0.1,0.6c0,0.2-0.1,0.4-0.3,0.5
		c-0.2,0.1-0.3,0.2-0.5,0.2c-0.9,0-1.7,0-2.5,0c-0.2,0-0.4-0.1-0.5-0.2c-0.1-0.1-0.1-0.3-0.1-0.5l0.2-1c0-0.2,0-0.3,0-0.4
		s-0.2-0.1-0.4-0.1c-0.4,0-0.8,0-1.2,0c-0.2,0-0.3,0-0.4,0.1c-0.1,0.1-0.1,0.2-0.2,0.4c-0.1,0.4-0.2,0.8-0.2,1.2c0,0.1,0,0.2,0,0.3
		c0,0.1,0,0.1,0.1,0.1c0,0,0.1,0.1,0.3,0.1c0.8,0.3,1.5,0.5,2.3,0.8c0.1,0,0.2,0.1,0.4,0.1c0.1,0,0.3,0.1,0.4,0.1
		c0.4,0.1,0.9,0.3,1.3,0.4c0.4,0.1,0.7,0.3,0.8,0.6c0.1,0.3,0.2,0.6,0.1,1.1c-0.1,0.5-0.2,0.9-0.2,1.4L213.2,47.4z"/>
</g>
<g>
	<path class="st0" d="M120,71.3c0,0.4,0,0.7-0.2,0.9c-0.2,0.2-0.5,0.3-0.9,0.3c-0.6,0-1.2,0-1.8,0c-0.3,0-0.6-0.1-0.7-0.2
		c-0.1-0.1-0.2-0.4-0.2-0.7c0-0.3-0.1-0.5-0.1-0.8c0-0.4-0.1-0.8-0.1-1.2c0-0.2,0-0.3-0.1-0.3c0,0-0.2-0.1-0.4,0c-0.9,0-1.9,0-2.8,0
		c-0.1,0-0.2,0-0.3,0c-0.1,0-0.1,0.1-0.2,0.1c0,0.1-0.1,0.2-0.1,0.3c-0.1,0.3-0.3,0.7-0.4,1c-0.1,0.3-0.3,0.7-0.4,1
		c-0.1,0.3-0.3,0.5-0.5,0.6c-0.2,0.1-0.4,0.2-0.7,0.2c-0.6,0-1.2,0-1.8,0c-0.1,0-0.3,0-0.4,0c-0.2-0.1-0.4-0.2-0.5-0.3
		c-0.1-0.2,0-0.4,0.1-0.6c0.2-0.4,0.4-0.9,0.5-1.3c0.1-0.2,0.2-0.4,0.3-0.6c1.1-2.6,2.2-5.2,3.3-7.8c0.3-0.7,0.6-1.3,0.8-2
		c0.5-1.3,1.1-2.5,1.6-3.8c0.1-0.3,0.3-0.5,0.4-0.6c0.2-0.1,0.4-0.2,0.7-0.2h3c0.3,0,0.5,0.1,0.6,0.2c0.1,0.1,0.2,0.3,0.2,0.6
		c0.1,1.2,0.2,2.4,0.3,3.6c0,0.7,0.1,1.5,0.1,2.2c0.1,1,0.2,2.1,0.2,3.1c0,0.9,0.1,1.7,0.2,2.6C119.9,68.8,119.9,70,120,71.3z
		 M115.4,65.6c0.2,0,0.3-0.1,0.3-0.3c0,0,0-0.1,0-0.1c0-0.1,0-0.1,0-0.2c0-0.5-0.1-1-0.1-1.5c0,0,0-0.1,0-0.1c0-0.4,0-0.7-0.1-1.1
		c0,0,0,0,0,0c0,0,0,0,0,0c0,0,0,0,0,0c0,0,0,0,0,0c0,0,0,0.1-0.1,0.1c-0.1,0.4-0.3,0.7-0.5,1.1c0,0.1-0.1,0.2-0.1,0.4
		c-0.2,0.5-0.4,1-0.6,1.5c0,0.1-0.1,0.2,0,0.3c0,0,0.1,0.1,0.2,0.1H115.4z"/>
	<path class="st0" d="M134.7,59.9c-0.5,2.8-1,5.7-1.5,8.5c-0.1,0.5-0.2,1-0.4,1.6c-0.3,0.7-0.8,1.3-1.4,1.7s-1.3,0.7-2,0.7
		c-0.7,0-1.4,0.1-2,0.1c-0.7,0-1.3,0-2,0h-2c-0.4,0-0.6-0.1-0.7-0.2c-0.1-0.2-0.2-0.4-0.1-0.8l2.7-15.3c0.1-0.5,0.4-0.7,0.9-0.8h1.8
		c1.3,0,2.6,0,3.9,0c0.5,0,1,0.1,1.4,0.2c0.6,0.2,1.1,0.5,1.3,1c0.3,0.5,0.4,1,0.4,1.7c0,0.3,0,0.5-0.1,0.8
		C134.8,59.4,134.8,59.6,134.7,59.9z M130.7,60c0-0.1,0-0.2,0-0.3c0-0.1,0-0.2-0.1-0.3c-0.1-0.1-0.1-0.1-0.3-0.1H129
		c-0.2,0-0.3,0.1-0.4,0.3l-1.5,8.4c0,0.2,0,0.3,0,0.3c0,0,0.1,0.1,0.3,0.1c0.4,0,0.8,0,1.2,0c0.2,0,0.4,0,0.5-0.1
		c0.1-0.1,0.1-0.2,0.2-0.4L130.7,60z"/>
	<path class="st0" d="M139,71.4c0,0.1,0,0.2-0.1,0.3c-0.1,0.2-0.1,0.3-0.3,0.4c-0.1,0.1-0.3,0.2-0.5,0.2c-0.2,0-0.3,0.1-0.5,0.1
		h-2.2c-0.2,0-0.4-0.1-0.5-0.2c-0.1-0.1-0.2-0.3-0.2-0.5c0-0.2,0-0.3,0-0.5l2.6-14.8c0-0.1,0-0.2,0.1-0.3c0.1-0.3,0.2-0.5,0.4-0.6
		c0.2-0.1,0.4-0.2,0.7-0.2h2.1c0.4,0,0.6,0.1,0.7,0.2c0.1,0.2,0.2,0.4,0.1,0.8L139,71.4z"/>
	<path class="st0" d="M152.4,66.1c0,0.3-0.1,0.5-0.1,0.8c-0.1,0.4-0.1,0.8-0.2,1.2c-0.1,0.4-0.1,0.8-0.2,1.2
		c-0.2,0.9-0.7,1.7-1.3,2.2c-0.6,0.6-1.4,0.9-2.3,0.9c-1.1,0.1-2.2,0.1-3.2,0.1c-0.4,0-0.8-0.1-1.2-0.1c-0.4-0.1-0.7-0.2-1-0.4
		c-0.3-0.2-0.6-0.5-0.8-0.9c-0.2-0.3-0.3-0.7-0.3-1.2c0-0.4,0-0.7,0.1-1.1c0.2-1.2,0.4-2.5,0.6-3.7l1.1-6.3c0.1-0.7,0.4-1.3,0.8-1.8
		c0.3-0.5,0.7-0.8,1.2-1.1c0.5-0.3,1-0.4,1.5-0.5c0.4-0.1,0.8-0.1,1.2-0.1h0.2c0.4,0,0.7,0,1.1,0c0.4,0,0.7,0,1.1,0
		c0.3,0,0.5,0,0.7,0.1c0.2,0,0.5,0.1,0.7,0.2c0.6,0.2,1.1,0.6,1.4,1.1s0.4,1.1,0.3,1.8c0,0.4-0.1,0.8-0.2,1.2
		c-0.1,0.4-0.1,0.8-0.2,1.3c0,0.2-0.1,0.5-0.1,0.7c0,0.2-0.1,0.4-0.3,0.6c-0.2,0.1-0.4,0.2-0.6,0.2c-0.8,0-1.5,0-2.2,0
		c-0.3,0-0.5-0.1-0.6-0.3c-0.1-0.2-0.1-0.4-0.1-0.7c0-0.3,0.1-0.7,0.2-1l0.2-0.8c0-0.1,0-0.2-0.1-0.3c0-0.1-0.1-0.1-0.2-0.1
		c-0.6,0-1.1,0-1.7,0c-0.1,0-0.2,0.1-0.3,0.1c-0.1,0.1-0.1,0.2-0.2,0.3l-1.5,8.3c0,0.2,0,0.3,0,0.4s0.1,0.2,0.1,0.2
		c0.1,0,0.2,0,0.4,0h1.2c0.2,0,0.3,0,0.4,0c0.1,0,0.2-0.1,0.2-0.2s0.1-0.2,0.1-0.4l0.3-1.5c0-0.1,0.1-0.3,0.1-0.4
		c0.1-0.2,0.2-0.4,0.3-0.5c0.1-0.1,0.3-0.2,0.6-0.2c0.8,0,1.5,0,2.3,0c0.2,0,0.4,0.1,0.5,0.2S152.4,65.9,152.4,66.1z"/>
	<path class="st0" d="M157.8,71.4c0,0.1,0,0.2-0.1,0.3c-0.1,0.2-0.1,0.3-0.3,0.4c-0.1,0.1-0.3,0.2-0.5,0.2c-0.2,0-0.3,0.1-0.5,0.1
		h-2.2c-0.2,0-0.4-0.1-0.5-0.2c-0.1-0.1-0.2-0.3-0.2-0.5c0-0.2,0-0.3,0-0.5l2.6-14.8c0-0.1,0-0.2,0.1-0.3c0.1-0.3,0.2-0.5,0.4-0.6
		c0.2-0.1,0.4-0.2,0.7-0.2h2.1c0.4,0,0.6,0.1,0.7,0.2c0.1,0.2,0.2,0.4,0.1,0.8L157.8,71.4z"/>
	<path class="st0" d="M171.3,65.3c-0.2,1.2-0.4,2.3-0.6,3.5c-0.1,0.5-0.3,1-0.5,1.4c-0.3,0.7-0.8,1.2-1.3,1.5
		c-0.5,0.4-1.1,0.6-1.8,0.6c-0.5,0-1,0.1-1.5,0.1c-0.5,0-1,0-1.5,0h-0.3c-0.4,0-0.9-0.1-1.3-0.2c-0.7-0.2-1.1-0.5-1.5-1
		c-0.3-0.5-0.5-1.1-0.4-1.8c0.1-0.7,0.2-1.3,0.3-2c0.5-2.7,0.9-5.3,1.4-8c0.1-0.5,0.2-1,0.4-1.5c0.3-0.7,0.7-1.3,1.2-1.7
		s1.2-0.7,2-0.8c1.5-0.2,2.9-0.2,4.3,0c0.5,0.1,0.9,0.2,1.2,0.5c0.3,0.3,0.6,0.6,0.8,1s0.3,0.8,0.3,1.3c0,0.4-0.1,0.9-0.2,1.3
		L171.3,65.3z M166.5,68.5c0.1,0,0.2,0,0.3-0.1c0.1-0.1,0.1-0.2,0.2-0.3c0-0.1,0.1-0.2,0.1-0.3l1.4-7.9c0-0.3,0-0.5,0-0.6
		s-0.2-0.1-0.5-0.1c-0.4,0-0.7,0-1.1,0c-0.3,0-0.4,0-0.5,0.1c-0.1,0.1-0.2,0.3-0.2,0.5l-1.4,7.9c0,0.1-0.1,0.3-0.1,0.4
		c0,0.1,0,0.2,0.1,0.3s0.1,0.1,0.3,0.1C165.5,68.6,166,68.6,166.5,68.5z"/>
	<path class="st0" d="M186,56.6l-2.6,14.5c0,0.2-0.1,0.4-0.2,0.6c-0.2,0.5-0.5,0.7-1,0.8c-0.6,0-1.2,0-1.8,0c-0.4,0-0.6-0.2-0.8-0.6
		c-0.4-1.2-0.7-2.4-1.1-3.6c-0.2-0.7-0.4-1.3-0.6-1.9c-0.1-0.2-0.1-0.4-0.2-0.5c-0.1-0.2-0.1-0.4-0.2-0.6c0,0,0-0.1-0.1-0.1
		c0,0,0,0,0,0c0,0-0.1,0-0.1,0.1c0,0-0.1,0.1-0.1,0.1c0,0.1-0.1,0.2-0.1,0.3l-0.2,1.3c-0.3,1.6-0.5,3.1-0.8,4.7
		c0,0.1-0.1,0.3-0.1,0.4c-0.1,0.1-0.1,0.2-0.3,0.3c-0.1,0.1-0.2,0.1-0.3,0.1c-0.1,0-0.2,0.1-0.3,0.1c-0.7,0-1.4,0-2.1,0
		c-0.2,0-0.4-0.1-0.5-0.2c-0.1-0.1-0.2-0.3-0.2-0.5c0-0.2,0-0.3,0-0.5l2.6-14.8c0-0.1,0-0.2,0.1-0.3c0.1-0.3,0.2-0.5,0.4-0.6
		c0.2-0.1,0.4-0.2,0.7-0.2h1.7c0.4,0,0.6,0.2,0.8,0.5c0.1,0.3,0.2,0.7,0.3,1c0.2,0.6,0.4,1.2,0.6,1.9c0.4,1.2,0.7,2.4,1.1,3.5
		c0,0.1,0.1,0.2,0.1,0.2c0,0,0.1,0.1,0.1,0.1c0,0,0-0.1,0-0.1c0.1-0.1,0.1-0.2,0.1-0.3l1.1-6.1c0.1-0.2,0.2-0.4,0.3-0.6
		s0.3-0.2,0.6-0.2c0.8,0,1.5,0,2.3,0c0.2,0,0.4,0.1,0.5,0.2c0.1,0.1,0.2,0.3,0.2,0.5C186,56.2,186,56.4,186,56.6z"/>
	<path class="st0" d="M198.2,71.3c0,0.4,0,0.7-0.2,0.9c-0.2,0.2-0.5,0.3-0.9,0.3c-0.6,0-1.2,0-1.8,0c-0.3,0-0.6-0.1-0.7-0.2
		c-0.1-0.1-0.2-0.4-0.2-0.7c0-0.3-0.1-0.5-0.1-0.8c0-0.4-0.1-0.8-0.1-1.2c0-0.2,0-0.3-0.1-0.3c0,0-0.2-0.1-0.4,0c-0.9,0-1.9,0-2.8,0
		c-0.1,0-0.2,0-0.3,0c-0.1,0-0.1,0.1-0.2,0.1c0,0.1-0.1,0.2-0.1,0.3c-0.1,0.3-0.3,0.7-0.4,1c-0.1,0.3-0.3,0.7-0.4,1
		c-0.1,0.3-0.3,0.5-0.5,0.6c-0.2,0.1-0.4,0.2-0.7,0.2c-0.6,0-1.2,0-1.8,0c-0.1,0-0.3,0-0.4,0c-0.2-0.1-0.4-0.2-0.5-0.3
		c-0.1-0.2,0-0.4,0.1-0.6c0.2-0.4,0.4-0.9,0.5-1.3c0.1-0.2,0.2-0.4,0.3-0.6c1.1-2.6,2.2-5.2,3.3-7.8c0.3-0.7,0.6-1.3,0.8-2
		c0.5-1.3,1.1-2.5,1.6-3.8c0.1-0.3,0.3-0.5,0.4-0.6c0.2-0.1,0.4-0.2,0.7-0.2h3c0.3,0,0.5,0.1,0.6,0.2c0.1,0.1,0.2,0.3,0.2,0.6
		c0.1,1.2,0.2,2.4,0.3,3.6c0,0.7,0.1,1.5,0.1,2.2c0.1,1,0.2,2.1,0.2,3.1c0,0.9,0.1,1.7,0.2,2.6C198,68.8,198.1,70,198.2,71.3z
		 M193.5,65.6c0.2,0,0.3-0.1,0.3-0.3c0,0,0-0.1,0-0.1c0-0.1,0-0.1,0-0.2c0-0.5-0.1-1-0.1-1.5c0,0,0-0.1,0-0.1c0-0.4,0-0.7-0.1-1.1
		c0,0,0,0,0,0c0,0,0,0,0,0c0,0,0,0,0,0c0,0,0,0,0,0c0,0,0,0.1-0.1,0.1c-0.1,0.4-0.3,0.7-0.5,1.1c0,0.1-0.1,0.2-0.1,0.4
		c-0.2,0.5-0.4,1-0.6,1.5c0,0.1-0.1,0.2,0,0.3c0,0,0.1,0.1,0.2,0.1H193.5z"/>
	<path class="st0" d="M209.2,68.5c0.4,0,0.6,0.1,0.7,0.2c0.1,0.2,0.1,0.4,0.1,0.8c-0.1,0.7-0.2,1.3-0.4,2c-0.1,0.3-0.2,0.5-0.3,0.7
		c-0.2,0.2-0.4,0.2-0.7,0.3h-7c-0.2,0-0.4,0-0.6-0.1c-0.2,0-0.3-0.1-0.4-0.2s-0.1-0.3-0.1-0.5l1.8-9.9c0.3-1.8,0.6-3.5,0.9-5.3
		c0.1-0.5,0.2-0.8,0.5-1c0.2-0.2,0.5-0.2,0.9-0.2c0.4,0,0.8,0,1.2,0h0.6c0.4,0,0.7,0.1,0.8,0.2c0.1,0.1,0.2,0.4,0.1,0.8l-2,11.3
		c0,0.3-0.1,0.4-0.1,0.6c0,0.1,0,0.2,0.1,0.2c0.1,0,0.2,0,0.4,0h0.3c0.5,0,1.1,0,1.6,0H209.2z"/>
	<path class="st0" d="M222.5,69.5c-0.1,0.6-0.2,1.2-0.3,1.8l0,0.1c-0.1,0.4-0.2,0.7-0.4,0.8c-0.2,0.2-0.5,0.2-0.9,0.2h-8.1
		c-0.3,0-0.6-0.1-0.7-0.2c-0.1-0.2-0.2-0.4-0.2-0.7l2.6-14.9c0-0.2,0.1-0.4,0.2-0.6c0.1-0.2,0.2-0.4,0.3-0.5s0.3-0.2,0.5-0.2h8.6
		c0.4,0,0.6,0.2,0.6,0.6c0,0.1,0,0.2,0,0.4l-0.4,2c0,0.1,0,0.1,0,0.2c-0.1,0.3-0.2,0.5-0.4,0.6s-0.4,0.2-0.7,0.2h-4.9
		c-0.2,0-0.3,0.1-0.4,0.3l-0.4,2c0,0.2,0.1,0.3,0.2,0.3h3.4c0.4,0,0.6,0.1,0.7,0.2c0.1,0.2,0.2,0.4,0.1,0.8l-0.4,2
		c-0.1,0.3-0.2,0.6-0.4,0.8S221,66,220.7,66h-3.1c-0.2,0-0.3,0-0.4,0s-0.1,0.1-0.2,0.2c0,0.1-0.1,0.2-0.1,0.4l-0.3,1.5
		c0,0.2,0,0.3,0,0.3c0,0,0.1,0.1,0.3,0.1c0.1,0,0.2,0,0.3,0h4.4c0.3,0,0.6,0.1,0.7,0.2C222.5,68.9,222.5,69.1,222.5,69.5z"/>
	<path class="st0" d="M235.3,67.3c-0.1,0.5-0.2,1-0.3,1.5c-0.1,0.5-0.3,1-0.5,1.5c-0.3,0.7-0.8,1.1-1.3,1.5
		c-0.5,0.3-1.1,0.5-1.8,0.6c-0.6,0-1.1,0.1-1.7,0.1c-0.6,0-1.1,0-1.7,0c-0.5,0-1-0.1-1.4-0.2c-0.6-0.2-1.1-0.5-1.4-1
		c-0.3-0.5-0.4-1.1-0.4-1.7c0.1-0.5,0.1-1,0.2-1.6c0-0.1,0-0.3,0-0.4c0-0.1,0.1-0.3,0.1-0.4c0.1-0.2,0.2-0.4,0.4-0.5
		s0.3-0.2,0.6-0.2c0.8,0,1.5,0,2.3,0c0.3,0,0.5,0.1,0.6,0.2c0.1,0.1,0.1,0.4,0.1,0.6c0,0.1,0,0.3,0,0.4L229,68c0,0.2,0,0.3,0,0.4
		c0.1,0.1,0.2,0.1,0.4,0.1c0.4,0,0.8,0,1.2,0c0.2,0,0.3,0,0.4-0.1c0.1-0.1,0.1-0.2,0.2-0.3c0.1-0.5,0.2-1.1,0.3-1.6
		c0-0.2,0-0.3,0-0.3c0-0.1-0.1-0.1-0.3-0.2c-0.6-0.2-1.1-0.4-1.7-0.6c-0.4-0.1-0.7-0.2-1-0.4c-0.6-0.2-1.2-0.4-1.8-0.6
		c-0.4-0.1-0.6-0.3-0.7-0.6s-0.1-0.5-0.1-0.9c0.2-1.3,0.4-2.6,0.7-3.9c0.1-0.5,0.3-1.1,0.6-1.6c0.3-0.6,0.7-1.1,1.2-1.5
		c0.5-0.3,1.1-0.6,1.7-0.7c0.3,0,0.6-0.1,0.9-0.1c0.3,0,0.6,0,0.9,0h0.1c0.4,0,0.8,0,1.2,0c0.4,0,0.8,0,1.2,0.1
		c0.7,0.1,1.3,0.3,1.7,0.8c0.4,0.5,0.6,1.1,0.7,1.8c0,0.4,0,0.7-0.1,1.1c-0.1,0.4-0.1,0.7-0.2,1c0,0.2-0.1,0.4-0.1,0.6
		c0,0.2-0.1,0.4-0.3,0.5c-0.2,0.1-0.3,0.2-0.5,0.2c-0.9,0-1.7,0-2.5,0c-0.2,0-0.4-0.1-0.5-0.2c-0.1-0.1-0.1-0.3-0.1-0.5l0.2-1
		c0-0.2,0-0.3,0-0.4s-0.2-0.1-0.4-0.1c-0.4,0-0.8,0-1.2,0c-0.2,0-0.3,0-0.4,0.1c-0.1,0.1-0.1,0.2-0.2,0.4c-0.1,0.4-0.2,0.8-0.2,1.2
		c0,0.1,0,0.2,0,0.3s0,0.1,0.1,0.1c0,0,0.1,0.1,0.3,0.1c0.8,0.3,1.5,0.5,2.3,0.8c0.1,0,0.2,0.1,0.4,0.1c0.1,0,0.3,0.1,0.4,0.1
		c0.4,0.1,0.9,0.3,1.3,0.4c0.4,0.1,0.7,0.3,0.8,0.6c0.1,0.3,0.2,0.6,0.1,1.1c-0.1,0.5-0.2,0.9-0.2,1.4L235.3,67.3z"/>
</g>
</svg>
