<?xml version="1.0" encoding="utf-8"?>
<!-- Generator: Adobe Illustrator 19.2.0, SVG Export Plug-In . SVG Version: 6.00 Build 0)  -->
<svg version="1.1" id="Capa_1" xmlns="http://www.w3.org/2000/svg" xmlns:xlink="http://www.w3.org/1999/xlink" x="0px" y="0px"
	 viewBox="0 0 287.3 98.7" style="enable-background:new 0 0 287.3 98.7;" xml:space="preserve">
<style type="text/css">
	.st0{fill:#FFFFFF;}
	.st1{fill:url(#SVGID_1_);stroke:url(#SVGID_2_);stroke-miterlimit:10;}
	.st2{opacity:0.38;}
	.st3{enable-background:new    ;}
</style>
<g>
	<path class="st0" d="M93.6,99.2H6.7c-3.9,0-6.6-3.9-5.3-7.6L38.9,4.2c0.8-2.2,2.9-3.7,5.3-3.7h86.5c4.3,0,7.2,4.3,5.8,8.3l-37,86.4
		C98.5,97.6,96.2,99.2,93.6,99.2z"/>
	
		<linearGradient id="SVGID_1_" gradientUnits="userSpaceOnUse" x1="31.2699" y1="3192.8999" x2="286.3555" y2="3192.8999" gradientTransform="matrix(1 0 0 1 0 -3140)">
		<stop  offset="0" style="stop-color:#006CCE"/>
		<stop  offset="1" style="stop-color:#108CFF"/>
	</linearGradient>
	
		<linearGradient id="SVGID_2_" gradientUnits="userSpaceOnUse" x1="30.7699" y1="3192.8999" x2="286.8555" y2="3192.8999" gradientTransform="matrix(1 0 0 1 0 -3140)">
		<stop  offset="0" style="stop-color:#006CCE"/>
		<stop  offset="1" style="stop-color:#108CFF"/>
	</linearGradient>
	<path class="st1" d="M252.9,90.3h-216c-3.9,0-6.6-3.9-5.3-7.6l27.6-63.5c0.8-2.2,2.9-3.7,5.3-3.7h215.7c4.3,0,7.2,4.3,5.8,8.3
		l-27.2,62.4C257.8,88.7,255.5,90.3,252.9,90.3z"/>
	<g class="st2">
		<g>
			<g>
				<g>
					<path d="M110.7,53.9c-0.8,0-1.7,0.1-2.5,0.3l-1.5-3.9c2-2.2,2.3-3.9,2.3-4v-0.1l-0.9-5.2h2.2l0.4,5.1l-2.4,5.5l1.6,0.7l2.6-5.9
						l-0.6-7.1h-9.6l-2.2-5.6h-4.6v1.7H99l1.6,4.2l-4.4,1.8l-2.1,0.9l0.7,1.6l1.4-0.6l2.5,4.4c-2.2,2.3-4.1,3.8-5.1,4.5
						c-2.2-0.7-4.1-0.7-4.2-0.7v1.7c0,0,2,0,4,0.8c1.7,0.6,2.9,1.5,3.7,2.7c0,0.2,0,0.4,0,0.7c0,2.3-0.6,3.6-1,4.3
						c-0.3,0.5-0.7,0.8-0.9,0.9H83.9v1.7h11.8l0.2-0.1c0.1,0,0.9-0.4,1.6-1.4c0.9-1.3,1.4-3.1,1.4-5.4c0-0.3,0-0.6,0.1-0.8l0,0
						c0.6-3,4.6-4.7,6.2-5.2l1.4,3.6c-3,1.5-4.9,4.6-4.9,8c0,4.9,4,8.9,8.9,8.9s8.9-4,8.9-8.9C119.6,57.9,115.6,53.9,110.7,53.9z
						 M108.8,60.3l1.1,2.8l1.6-0.6l-1.1-2.9c0.1,0,0.2,0,0.3,0c1.8,0,3.2,1.4,3.2,3.2s-1.4,3.2-3.2,3.2s-3.2-1.4-3.2-3.2
						C107.5,61.8,108,60.9,108.8,60.3z M97.8,42.6l3.3-1.4l1,2.4c-0.7,0.9-1.4,1.8-2.1,2.7L97.8,42.6z M97.8,54.6
						c-0.6-0.7-1.4-1.3-2.3-1.7c1.2-0.9,3-2.4,4.9-4.5c0.8-0.9,1.6-1.9,2.4-2.8l1.7,4.2C102.8,50.2,99.3,51.8,97.8,54.6z M106,48.5
						l-3-7.6h3.4l0,0l0.9,5.2C107.2,46.4,106.9,47.3,106,48.5z M110.7,70c-4,0-7.2-3.2-7.2-7.2c0-2.7,1.5-5.1,3.8-6.4l0.9,2.2
						c-1.4,0.9-2.3,2.4-2.3,4.2c0,2.7,2.2,4.9,4.9,4.9s4.9-2.2,4.9-4.9c0-2.7-2.2-4.9-4.9-4.9c-0.3,0-0.6,0-1,0.1l-0.9-2.2
						c0.6-0.2,1.2-0.2,1.8-0.2c4,0,7.2,3.2,7.2,7.2C117.9,66.8,114.7,70,110.7,70z"/>
				</g>
			</g>
		</g>
		<g>
			<g>
				<g>
					<path d="M79.9,50.5L66,45v-2.4L84,47c-1,0.8-2.1,1.6-2.5,1.8l0.8,1.5c1-0.5,3.5-2.6,4.1-3.1l7-2.9l-0.7-1.6l-3,1.2
						c-3.1-1.1-6.1-2.1-9.1-2.9l-0.4,1.7c2.4,0.6,4.8,1.4,7.2,2.2l-1.5,0.6L72,42.1l2-0.9c0.6,0.1,2,0.4,4.2,0.9l0.4-1.7
						c-2.9-0.7-4.6-1-4.6-1h-0.2l-4.5,2l-4.9-1.2v5.7l14.4,5.7l1.5,2.3l-1.5,1.6c-1.6-1.2-3.5-1.9-5.5-1.9c-4.9,0-8.9,4-8.9,8.9
						s4,8.9,8.9,8.9c4.7,0,8.6-3.7,8.9-8.4c0-0.2,0-0.4,0-0.6c0-2.2-0.8-4.2-2.2-5.8l2.4-2.7l-0.8-1.2h5.8V51h-7L79.9,50.5z
						 M80.5,62.8c0,0.1,0,0.3,0,0.5c-0.2,3.8-3.4,6.8-7.2,6.8c-4,0-7.2-3.2-7.2-7.2s3.2-7.2,7.2-7.2c1.6,0,3.1,0.5,4.4,1.5l-1.5,1.7
						c-0.8-0.6-1.8-0.9-2.9-0.9c-2.7,0-4.9,2.2-4.9,4.9s2.2,4.9,4.9,4.9s4.9-2.2,4.9-4.9c0-1-0.3-1.9-0.8-2.8l1.6-1.8
						C79.9,59.6,80.5,61.1,80.5,62.8z M73.9,63.9l2.2-2.5c0.2,0.4,0.3,0.9,0.3,1.4c0,1.8-1.4,3.2-3.2,3.2S70,64.6,70,62.8
						s1.4-3.2,3.2-3.2c0.6,0,1.2,0.2,1.7,0.5l-2.3,2.6L73.9,63.9z"/>
				</g>
			</g>
		</g>
		<g>
			<g>
				<g>
					<path d="M92.5,54.9c-1.6,0-2.9,1.1-3.3,2.5h-3.3v1.7l0,0h3.3c0.4,1.5,1.7,2.5,3.3,2.5c1.9,0,3.4-1.5,3.4-3.4
						C95.9,56.4,94.4,54.9,92.5,54.9z M92.5,59.9c-0.9,0-1.7-0.7-1.7-1.7c0-0.9,0.7-1.7,1.7-1.7c0.9,0,1.7,0.7,1.7,1.7
						S93.4,59.9,92.5,59.9z"/>
				</g>
			</g>
		</g>
		<g>
			<g>
				<g>
					<rect x="82.9" y="57.4" width="2" height="1.7"/>
				</g>
			</g>
		</g>
		<g>
			<g>
				<g>
					<rect x="90.5" y="48.3" width="2.5" height="1.7"/>
				</g>
			</g>
		</g>
		<g>
			<g>
				<g>
					<rect x="87.4" y="48.3" width="2.5" height="1.7"/>
				</g>
			</g>
		</g>
	</g>
	<g>
		<g class="st3">
			<path class="st0" d="M179.6,44.2l-3.7,21.1c-0.1,0.3-0.1,0.6-0.2,0.9c-0.2,0.4-0.4,0.7-0.6,0.9c-0.2,0.2-0.6,0.3-1,0.3
				c-1,0-2.1,0-3.1,0c-0.5,0-0.8-0.2-0.9-0.4c-0.2-0.2-0.2-0.6-0.1-1.1l1.2-7.1c0-0.1,0-0.1,0-0.2v-0.1l-0.1,0.1
				c0,0-0.1,0.1-0.1,0.2c-0.2,0.4-0.4,0.9-0.6,1.3c-0.1,0.2-0.1,0.4-0.2,0.6c-0.2,0.5-0.4,1-0.6,1.5c-0.6,1.4-1.1,2.7-1.7,4
				c-0.2,0.4-0.4,0.7-0.7,0.9c-0.3,0.2-0.6,0.3-1,0.3c-0.6,0-1.2,0-1.8,0c-0.2,0-0.4-0.1-0.6-0.1c-0.2-0.1-0.3-0.2-0.5-0.4
				c-0.1-0.2-0.2-0.4-0.2-0.7c-0.1-1.6-0.2-3.3-0.3-4.9c0-0.6-0.1-1.3-0.1-1.9v-0.1c0-0.1,0-0.2,0-0.3s-0.1-0.2-0.1-0.4
				c0,0,0-0.1,0-0.2c0,0.1-0.1,0.1-0.1,0.2c-0.1,0.1-0.1,0.2-0.1,0.4c-0.3,1.7-0.6,3.4-0.9,5.2l-0.3,1.5c-0.1,0.6-0.3,1.1-0.6,1.3
				c-0.3,0.3-0.8,0.4-1.4,0.4c-0.8,0-1.6,0-2.4,0c-0.3,0-0.5,0-0.8-0.1c-0.5-0.1-0.7-0.5-0.7-1l3.9-22.4c0.1-0.4,0.3-0.8,0.5-1
				c0.3-0.2,0.6-0.4,1-0.4c1.4,0,2.9,0,4.3,0c0.4,0,0.7,0.1,1,0.3c0.2,0.2,0.3,0.5,0.3,1c0.1,1.8,0.3,3.6,0.4,5.4
				c0.1,1.1,0.2,2.2,0.3,3.2c0.1,0.8,0.1,1.7,0.2,2.6l0,0c0,0.1,0,0.2,0.1,0.4l0,0c0,0,0,0,0.1,0l0,0l0,0l0,0
				c0.1-0.2,0.2-0.3,0.2-0.5c0.7-1.6,1.4-3.3,2.1-4.9c0.9-2.1,1.8-4.1,2.6-6.2c0.2-0.5,0.4-0.9,0.7-1.1c0.3-0.2,0.7-0.3,1.3-0.3h1.3
				c0.8,0,1.7,0,2.5,0c0.3,0,0.6,0,0.9,0.1c0.2,0.1,0.4,0.3,0.5,0.5C179.7,43.4,179.7,43.8,179.6,44.2z"/>
			<path class="st0" d="M193.8,57c-0.3,1.7-0.6,3.4-0.9,5c-0.2,0.7-0.4,1.4-0.7,2.1c-0.5,1-1.1,1.7-1.9,2.2
				c-0.8,0.5-1.7,0.8-2.7,0.9c-0.8,0.1-1.5,0.1-2.2,0.1s-1.5,0-2.2,0h-0.4c-0.6,0-1.3-0.1-1.9-0.3c-0.9-0.3-1.7-0.8-2.2-1.5
				s-0.7-1.6-0.6-2.6c0.1-1,0.2-1.9,0.4-2.9c0.7-3.9,1.4-7.7,2.1-11.6c0.1-0.7,0.3-1.5,0.6-2.2c0.4-1,1-1.8,1.8-2.5s1.8-1,3-1.2
				c2.1-0.2,4.2-0.2,6.3,0c0.7,0.1,1.3,0.3,1.8,0.7s0.9,0.8,1.1,1.4s0.4,1.2,0.4,1.9c0,0.6-0.1,1.2-0.2,1.9L193.8,57z M186.9,61.7
				c0.2,0,0.3,0,0.4-0.1c0.1-0.1,0.2-0.2,0.2-0.4s0.1-0.3,0.1-0.5l2-11.5c0.1-0.4,0-0.7-0.1-0.8s-0.4-0.2-0.7-0.2
				c-0.5,0-1.1,0-1.6,0c-0.4,0-0.6,0.1-0.8,0.2c-0.2,0.1-0.3,0.4-0.3,0.7l-2,11.4c0,0.2-0.1,0.4-0.1,0.6c0,0.2,0,0.3,0.1,0.4
				c0.1,0.1,0.2,0.1,0.4,0.1C185.3,61.7,186.1,61.7,186.9,61.7z"/>
			<path class="st0" d="M212.6,43.7c-0.1,1.1-0.3,2.2-0.6,3.4c-0.1,0.4-0.2,0.7-0.5,0.9s-0.6,0.3-1,0.3H208c-0.3,0-0.5,0-0.6,0.1
				s-0.2,0.2-0.2,0.5l-2.9,16.7c-0.1,0.5-0.2,0.8-0.4,1.1c-0.2,0.3-0.4,0.5-0.6,0.5c-0.3,0.1-0.6,0.1-1.1,0.1h-2.6
				c-0.2,0-0.5,0-0.7-0.1c-0.5-0.2-0.7-0.5-0.7-1.1l3-17.3c0-0.3,0-0.4,0-0.5s-0.2-0.1-0.5-0.1h-2.3c-0.2,0-0.3,0-0.4,0
				c-0.8-0.1-1.1-0.5-1-1.3l0.5-3.2c0.2-0.9,0.7-1.3,1.6-1.3h12.1c0.4,0,0.7,0.1,0.9,0.3C212.6,43,212.6,43.3,212.6,43.7z"/>
			<path class="st0" d="M226.7,57c-0.3,1.7-0.6,3.4-0.9,5c-0.2,0.7-0.4,1.4-0.7,2.1c-0.5,1-1.1,1.7-1.9,2.2
				c-0.8,0.5-1.7,0.8-2.7,0.9c-0.8,0.1-1.5,0.1-2.2,0.1s-1.5,0-2.2,0h-0.4c-0.6,0-1.3-0.1-1.9-0.3c-0.9-0.3-1.7-0.8-2.2-1.5
				s-0.7-1.6-0.6-2.6c0.1-1,0.2-1.9,0.4-2.9c0.7-3.9,1.4-7.7,2.1-11.6c0.1-0.7,0.3-1.5,0.6-2.2c0.4-1,1-1.8,1.8-2.5s1.8-1,3-1.2
				c2.1-0.2,4.2-0.2,6.3,0c0.7,0.1,1.3,0.3,1.8,0.7s0.9,0.8,1.1,1.4s0.4,1.2,0.4,1.9c0,0.6-0.1,1.2-0.2,1.9L226.7,57z M219.8,61.7
				c0.2,0,0.3,0,0.4-0.1c0.1-0.1,0.2-0.2,0.2-0.4s0.1-0.3,0.1-0.5l2-11.5c0.1-0.4,0-0.7-0.1-0.8s-0.4-0.2-0.7-0.2
				c-0.5,0-1.1,0-1.6,0c-0.4,0-0.6,0.1-0.8,0.2c-0.2,0.1-0.3,0.4-0.3,0.7l-2,11.4c0,0.2-0.1,0.4-0.1,0.6c0,0.2,0,0.3,0.1,0.4
				c0.1,0.1,0.2,0.1,0.4,0.1C218.2,61.7,219,61.7,219.8,61.7z"/>
		</g>
	</g>
</g>
</svg>
