<?xml version="1.0" encoding="utf-8"?>
<!-- Generator: Adobe Illustrator 19.2.0, SVG Export Plug-In . SVG Version: 6.00 Build 0)  -->
<svg version="1.1" id="Capa_1" xmlns="http://www.w3.org/2000/svg" xmlns:xlink="http://www.w3.org/1999/xlink" x="0px" y="0px"
	 viewBox="0 0 149.7 98.7" style="enable-background:new 0 0 149.7 98.7;" xml:space="preserve">
<style type="text/css">
	.st0{fill:#FFFFFF;}
	.st1{fill:url(#SVGID_1_);stroke:url(#SVGID_2_);stroke-miterlimit:10;}
	.st2{opacity:0.38;}
	.st3{fill:url(#SVGID_3_);stroke:url(#SVGID_4_);stroke-miterlimit:10;}
</style>
<g>
	<path class="st0" d="M93.5,98.7H6.6c-3.9,0-6.6-3.9-5.3-7.6L38.7,3.7C39.6,1.5,41.7,0,44,0h86.5c4.3,0,7.2,4.3,5.8,8.3l-37,86.4
		C98.3,97.1,96,98.7,93.5,98.7z"/>
	<linearGradient id="SVGID_1_" gradientUnits="userSpaceOnUse" x1="31.0876" y1="52.3427" x2="148.7536" y2="52.3427">
		<stop  offset="0" style="stop-color:#006CCF"/>
		<stop  offset="1" style="stop-color:#108DFF"/>
	</linearGradient>
	<linearGradient id="SVGID_2_" gradientUnits="userSpaceOnUse" x1="30.5876" y1="52.3427" x2="149.2536" y2="52.3427">
		<stop  offset="0" style="stop-color:#006CCF"/>
		<stop  offset="1" style="stop-color:#108DFF"/>
	</linearGradient>
	<path class="st1" d="M115.4,89.7H36.7c-3.9,0-6.6-3.9-5.3-7.6L59,18.6c0.8-2.2,2.9-3.7,5.3-3.7h78.3c4.3,0,7.2,4.3,5.8,8.3
		l-27.2,62.4C120.3,88.1,118,89.7,115.4,89.7z"/>
	<g class="st2">
		<g>
			<g>
				<path d="M118.1,44.7c-0.9,0-1.8,0.4-2.5,1l-5,5V39.1c0.6,1.2,0.9,2.5,0.9,3.8h1.8c0-3.3,3.3-8.3,7.4-8.3v-1.8
					c-4.5,0-7.4-2.9-7.4-7.4h-1.8c0,1.3-0.3,2.6-0.9,3.6v-1.8c0-1.5-1.2-2.8-2.8-2.8H67.2c-1.5,0-2.8,1.2-2.8,2.8v51.7
					c0,1.5,1.2,2.8,2.8,2.8h40.6c1.5,0,2.8-1.2,2.8-2.8V60.8l10-10c0.7-0.7,1-1.6,1-2.5C121.6,46.3,120.1,44.7,118.1,44.7z
					 M112.3,29.5c0.9,2,2.4,3.5,4.5,4.3c-1.9,1.1-3.4,3-4.3,5c-0.9-2.2-2.5-4-4.5-5.1C109.9,32.9,111.4,31.4,112.3,29.5z
					 M108.7,78.9L108.7,78.9c0,0.5-0.4,0.9-0.9,0.9H67.2c-0.5,0-0.9-0.4-0.9-0.9V27.2c0-0.5,0.4-0.9,0.9-0.9h40.6
					c0.5,0,0.9,0.4,0.9,0.9v4c-1.3,1-2.9,1.6-4.6,1.6v1.8c1.8,0,3.4,0.8,4.6,2v16.1L95.8,65.5v-5.2h-6.5v6.5h5.2l-0.3,0.3l-0.1,0.1
					L90.3,76l8.7-3.7l9.6-9.6V78.9L108.7,78.9z M96.9,71.2l-3.1,1.3l1.3-3.1L96.9,71.2z M94,62.2V65h-2.8v-2.8H94z M98.6,70.2
					l-2.4-2.4l16.2-16.2l2.4,2.4L98.6,70.2z M119.3,49.4l-3.2,3.2l-2.4-2.4l3.2-3.2c0.3-0.3,0.7-0.5,1.2-0.5c0.9,0,1.7,0.8,1.7,1.7
					C119.8,48.7,119.6,49.1,119.3,49.4z"/>
				<path d="M76.4,41.9c3.1,0,5.5-2.5,5.5-5.5s-2.5-5.5-5.5-5.5c-3.1,0-5.5,2.5-5.5,5.5S73.4,41.9,76.4,41.9z M76.4,32.7
					c2,0,3.7,1.7,3.7,3.7s-1.7,3.7-3.7,3.7s-3.7-1.7-3.7-3.7C72.7,34.4,74.4,32.7,76.4,32.7z"/>
				<rect x="71.8" y="43.8" width="7.4" height="1.8"/>
				<path d="M79.2,51.2h-6.5v6.5h6.5L79.2,51.2L79.2,51.2z M77.3,55.8h-2.8V53h2.8V55.8z"/>
				<path d="M72.7,66.9h6.5v-6.5h-6.5V66.9z M74.6,62.2h2.8V65h-2.8V62.2z"/>
				<path d="M95.8,51.2h-6.5v6.5h6.5V51.2L95.8,51.2z M94,55.8h-2.8V53H94V55.8z"/>
				<rect x="88.4" y="33.6" width="12.9" height="1.8"/>
				<rect x="88.4" y="39.2" width="16.6" height="1.8"/>
				<rect x="88.4" y="44.7" width="16.6" height="1.8"/>
				<rect x="81" y="52.1" width="4.6" height="1.8"/>
				<rect x="81" y="55.8" width="4.6" height="1.8"/>
				<rect x="97.6" y="52.1" width="4.6" height="1.8"/>
				<rect x="97.6" y="55.8" width="4.6" height="1.8"/>
				<rect x="81" y="63.2" width="4.6" height="1.8"/>
				<rect x="72.7" y="70.5" width="16.6" height="1.8"/>
				<rect x="72.7" y="74.2" width="16.6" height="1.8"/>
				<rect x="81" y="43.8" width="1.8" height="1.8"/>
				<rect x="105" y="76.1" width="1.8" height="1.8"/>
				<rect x="101.3" y="76.1" width="1.8" height="1.8"/>
				<rect x="68.1" y="76.1" width="1.8" height="1.8"/>
			</g>
		</g>
	</g>
</g>
</svg>
