<?xml version="1.0" encoding="utf-8"?>
<!-- Generator: Adobe Illustrator 19.2.0, SVG Export Plug-In . SVG Version: 6.00 Build 0)  -->
<svg version="1.1" id="Capa_1" xmlns="http://www.w3.org/2000/svg" xmlns:xlink="http://www.w3.org/1999/xlink" x="0px" y="0px"
	 viewBox="0 0 287.3 98.7" style="enable-background:new 0 0 287.3 98.7;" xml:space="preserve">
<style type="text/css">
	.st0{fill:#FFFFFF;}
	.st1{fill:url(#SVGID_1_);stroke:url(#SVGID_2_);stroke-miterlimit:10;}
	.st2{opacity:0.38;}
	.st3{enable-background:new    ;}
</style>
<path class="st0" d="M93.5,98.8H6.6c-3.9,0-6.6-3.9-5.3-7.6L38.8,3.7C39.6,1.5,41.7,0,44.1,0h86.5c4.3,0,7.2,4.3,5.8,8.3l-37,86.4
	C98.4,97.1,96.1,98.8,93.5,98.8z"/>
<linearGradient id="SVGID_1_" gradientUnits="userSpaceOnUse" x1="31.2072" y1="-3092.45" x2="286.2928" y2="-3092.45" gradientTransform="matrix(1 0 0 -1 0 -3040)">
	<stop  offset="0" style="stop-color:#006CCE"/>
	<stop  offset="1" style="stop-color:#108CFF"/>
</linearGradient>
<linearGradient id="SVGID_2_" gradientUnits="userSpaceOnUse" x1="30.7072" y1="-3092.45" x2="286.7928" y2="-3092.45" gradientTransform="matrix(1 0 0 -1 0 -3040)">
	<stop  offset="0" style="stop-color:#006CCE"/>
	<stop  offset="1" style="stop-color:#108CFF"/>
</linearGradient>
<path class="st1" d="M252.8,89.9h-216c-3.9,0-6.6-3.9-5.3-7.6l27.6-63.5c0.8-2.2,2.9-3.7,5.3-3.7h215.7c4.3,0,7.2,4.3,5.8,8.3
	l-27.2,62.4C257.7,88.2,255.4,89.9,252.8,89.9z"/>
<g class="st2">
	<g>
		<g>
			<g>
				<path d="M100.3,52V38.8c0-3-2.5-5.5-5.5-5.5H81.7c-0.2,0-0.4,0.1-0.6,0.2l-2.6,2.6c-0.4,0-0.9-0.1-1.3-0.1
					c-5.7-0.3-10.5,0.7-12.3,2.5c-0.7,0.7-0.9,1.4-0.8,1.9c0.1,1.7,2.1,3.3,5.7,4.4l-8.6,8.6c-1,1-1.6,2.4-1.6,3.9s0.6,2.8,1.6,3.9
					l11.1,11.1h-0.9c-0.5,0-0.8,0.4-0.8,0.8c0,0.5,0.4,0.8,0.8,0.8h16.9c0.5,0,0.8-0.4,0.8-0.8c0-0.5-0.4-0.8-0.8-0.8h-8.1
					l19.9-19.8C100.2,52.5,100.3,52.1,100.3,52z M65.8,40.5c0-0.1,0-0.3,0.3-0.7c1.2-1.2,5-2.3,10.8-2l-5.7,5.7
					C67.3,42.5,65.8,41.1,65.8,40.5z M79.1,71.2c-0.7,0.7-1.7,1.1-2.7,1.1s-2-0.4-2.7-1.1L62.5,60c-0.7-0.7-1.1-1.7-1.1-2.7
					s0.4-2,1.1-2.7l16.7-16.7c2.5,0.3,4.7,0.7,6.5,1.4c1.2,0.5,2,0.9,2.5,1.3c-0.6,0.6-1,1.5-1,2.4c0,0.3,0,0.5,0.1,0.8
					c0,0,0,0,0,0.1l0,0l0,0c0.4,1.5,1.7,2.5,3.3,2.5c1.9,0,3.4-1.5,3.4-3.4s-1.5-3.4-3.4-3.4c-0.3,0-0.6,0-0.9,0.1
					c-0.7-0.8-1.9-1.4-3.4-2c-1.6-0.6-3.5-1.1-5.6-1.4l1.4-1.4h12.8c2.1,0,3.8,1.7,3.8,3.8v12.8L79.1,71.2z M90.6,41.6
					c0-0.1,0-0.2,0-0.3l0,0c0.9,0,1.7,0.8,1.7,1.7s-0.8,1.7-1.7,1.7c-0.6,0-1.1-0.3-1.4-0.7C90.4,43.1,90.6,42.2,90.6,41.6z"/>
			</g>
			<g>
				<path d="M96,40.5c-0.4,0.1-0.7,0.6-0.6,1.1c0.2,0.5,0.2,1,0.2,1.5c0,2.8-2.3,5.1-5.1,5.1c-2.8,0-5.1-2.3-5.1-5.1
					c0-0.5-0.4-0.8-0.8-0.8c-0.5,0-0.8,0.4-0.8,0.8c0,3.7,3,6.8,6.8,6.8c3.7,0,6.8-3,6.8-6.8c0-0.7-0.1-1.4-0.3-2
					C96.9,40.6,96.4,40.3,96,40.5z"/>
			</g>
			<g>
				<path d="M94.9,39.8c0.2,0,0.4-0.1,0.6-0.2c0.3-0.3,0.3-0.9,0-1.2c-0.1-0.1-0.3-0.3-0.4-0.4c-0.4-0.3-0.9-0.3-1.2,0.1
					c-0.3,0.4-0.3,0.9,0.1,1.2c0.1,0.1,0.2,0.2,0.3,0.3C94.4,39.8,94.6,39.8,94.9,39.8z"/>
			</g>
			<g>
				<path d="M84.4,59.3c0.2-0.2,0.3-0.4,0.4-0.7c0.8-1.5,0.6-3.2-0.4-4.6c-0.9-1.2-2.2-1.7-3.7-1.5c-1,0.2-2,0.7-2.9,1.3
					c-0.2,0.1-0.4,0.2-0.6,0.3c-1.2,0.7-2.4,0.7-3.2,0.1c-0.6-0.5-0.8-1.3-0.5-2.3c0.1-0.3,0.2-0.5,0.4-0.8l1.4,1.4
					c0.2,0.2,0.4,0.2,0.6,0.2s0.4-0.1,0.6-0.2c0.3-0.3,0.3-0.9,0-1.2l-1.4-1.4c0.6-0.4,1.3-0.7,1.9-0.9c0.5-0.1,0.7-0.6,0.6-1
					c-0.1-0.5-0.6-0.7-1-0.6c-0.9,0.2-1.9,0.7-2.8,1.3l-0.6-0.6c-0.3-0.3-0.9-0.3-1.2,0c-0.3,0.3-0.3,0.9,0,1.2l0.6,0.6
					c-0.4,0.5-0.7,1-0.8,1.5c-0.5,1.6,0,3.2,1.1,4.1c1.3,1,3.2,1.1,5,0c0.1,0,0.1-0.1,0.2-0.1l3.7,3.7c-0.8,0.6-1.7,1-2.3,0.8
					c-0.4-0.1-0.9,0.1-1.1,0.6c-0.1,0.4,0.1,0.9,0.6,1.1c0.3,0.1,0.6,0.1,0.9,0.1c1.1,0,2.2-0.5,3.1-1.3l0.9,0.9
					c0.2,0.2,0.4,0.2,0.6,0.2s0.4-0.1,0.6-0.2c0.3-0.3,0.3-0.9,0-1.2L84.4,59.3z M83.3,58c0,0.1-0.1,0.2-0.1,0.2l-3.3-3.3
					c0.4-0.2,0.9-0.4,1.3-0.5c0.8-0.1,1.5,0.1,2,0.8C83.7,56,83.8,57,83.3,58z"/>
			</g>
			<g>
				<path d="M70.5,62.2c-0.3-0.3-0.9-0.3-1.2,0c-0.3,0.3-0.3,0.9,0,1.2l0.3,0.3C69.8,64,70,64,70.2,64s0.4-0.1,0.6-0.2
					c0.3-0.3,0.3-0.9,0-1.2L70.5,62.2z"/>
			</g>
			<g>
				<path d="M78.2,66.2l-1.8,1.8l-3.6-3.6c-0.3-0.3-0.9-0.3-1.2,0c-0.3,0.3-0.3,0.9,0,1.2l3.6,3.6c0.3,0.3,0.8,0.5,1.2,0.5
					c0.4,0,0.9-0.2,1.2-0.5l1.8-1.8c0.3-0.3,0.3-0.9,0-1.2C79,65.9,78.5,65.9,78.2,66.2z"/>
			</g>
		</g>
	</g>
</g>
<text transform="matrix(1 0 0 1 35.1565 -52.7623)" class="st0" style="font-family:'MyriadPro-Regular'; font-size:32.3178px;">´</text>
<g class="st3">
	<path class="st0" d="M118.2,39.7c0.3,0,0.6,0,0.9,0.1c0.7,0,1.4,0.1,2.1,0.1c0.7,0.1,1.4,0.3,1.9,0.7s0.9,0.8,1.2,1.4
		c0.3,0.6,0.4,1.2,0.4,2c0,0.6-0.1,1.2-0.2,1.7c-0.1,0.6-0.2,1.1-0.3,1.7c-0.1,0.5-0.2,1-0.3,1.5c-0.1,0.3-0.2,0.6-0.4,0.8
		s-0.5,0.3-0.8,0.3c-1.3,0-2.5,0.1-3.8,0c-0.2,0-0.4-0.1-0.6-0.2c-0.2-0.1-0.2-0.3-0.3-0.6c0-0.3,0-0.5,0-0.8l0.4-2.2
		c0-0.3,0-0.5,0-0.6c-0.1-0.1-0.3-0.1-0.5-0.1c-0.5,0-1,0-1.6,0c-0.2,0-0.4,0.1-0.5,0.2c-0.1,0.1-0.2,0.3-0.3,0.5l-0.6,3.7
		c0,0.3,0.1,0.5,0.3,0.6c0.9,0.3,1.8,0.6,2.6,0.9c0.4,0.2,0.8,0.3,1.2,0.5c0.3,0.1,0.6,0.2,0.9,0.3c0.6,0.2,1.2,0.4,1.9,0.6
		c0.5,0.2,0.8,0.4,1,0.8s0.2,0.8,0.1,1.3l-0.4,2c-0.3,2-0.7,3.9-1.1,5.9c-0.1,0.7-0.4,1.4-0.7,2.1c-0.3,0.7-0.8,1.3-1.5,1.8
		c-0.5,0.4-0.9,0.6-1.4,0.8c-0.5,0.2-1,0.3-1.5,0.4c-0.3,0-0.7,0.1-1.1,0.1c-0.4,0-0.7,0-1.1,0c-0.9,0-1.7,0-2.6,0
		c-0.4,0-0.8-0.1-1.1-0.1c-0.4,0-0.7-0.1-1.1-0.2c-1-0.3-1.7-0.8-2.2-1.5c-0.5-0.8-0.7-1.7-0.5-2.7c0.1-1.1,0.3-2.2,0.5-3.2
		c0-0.3,0.1-0.6,0.1-0.9c0-0.2,0.1-0.4,0.2-0.6c0.2-0.3,0.3-0.6,0.5-0.7c0.2-0.1,0.5-0.2,0.8-0.2c1.2,0,2.3,0,3.5,0
		c0.8,0,1.1,0.4,1,1.2l-0.4,2.4c-0.1,0.3,0,0.6,0,0.7c0.1,0.1,0.3,0.2,0.7,0.1c0.5,0,0.9,0,1.4,0c0.3,0,0.5,0,0.6-0.1
		c0.1-0.1,0.2-0.3,0.2-0.6l0.6-3.4c0-0.2,0.1-0.3,0-0.4c0-0.1,0-0.2-0.1-0.2c-0.1,0-0.2-0.1-0.4-0.2c-0.7-0.3-1.4-0.5-2.1-0.7
		c-0.4-0.1-0.8-0.3-1.2-0.4c-0.3-0.1-0.6-0.2-1-0.4c-0.7-0.2-1.3-0.5-2-0.7c-0.3-0.1-0.6-0.2-0.8-0.4c-0.2-0.2-0.3-0.4-0.4-0.7
		c-0.1-0.3-0.1-0.7,0-1.1c0.1-0.8,0.3-1.7,0.5-2.5l0.4-2.1c0.1-0.8,0.3-1.6,0.4-2.4c0.1-0.4,0.2-0.8,0.3-1.2
		c0.1-0.4,0.2-0.8,0.4-1.2c0.4-1,1-1.9,1.8-2.5c0.8-0.6,1.8-1,2.9-1.2c0.7-0.1,1.5-0.1,2.2-0.1C117.6,39.7,117.9,39.7,118.2,39.7z"
		/>
	<path class="st0" d="M125.2,57.2l2.9-16.3c0-0.3,0.2-0.5,0.4-0.7c0.2-0.2,0.5-0.3,0.8-0.4h12.6c0.3,0,0.6,0.2,0.7,0.3
		c0.2,0.2,0.2,0.4,0.2,0.8c-0.2,1.2-0.4,2.4-0.6,3.6c-0.1,0.4-0.3,0.6-0.5,0.8c-0.2,0.2-0.6,0.3-1,0.3H134c-0.3,0-0.6,0-0.7,0
		c-0.2,0-0.3,0.1-0.3,0.2c-0.1,0.1-0.1,0.4-0.2,0.7l-0.6,3.6c0,0.2-0.1,0.4,0,0.5c0,0.1,0.1,0.2,0.2,0.2c0.1,0,0.3,0,0.5,0h4.6
		c0.1,0,0.3,0,0.4,0c0.4,0.1,0.7,0.2,0.9,0.4s0.2,0.5,0.1,1l-0.3,1.5c-0.1,0.5-0.2,1.1-0.3,1.6c-0.2,0.9-0.7,1.3-1.6,1.3h-5
		c-0.3,0-0.5,0-0.6,0.1c-0.1,0.1-0.2,0.3-0.2,0.5l-0.7,4.2c0,0.3,0,0.5,0,0.5s0.2,0.1,0.5,0.1c1.5,0,3,0,4.5,0h2.2
		c0.1,0,0.3,0,0.4,0c0.3,0,0.6,0.1,0.8,0.3c0.2,0.2,0.2,0.4,0.2,0.8c-0.2,1.2-0.4,2.5-0.6,3.7c-0.1,0.5-0.4,0.8-0.9,0.9
		c-0.3,0.1-0.6,0.1-0.9,0.1h-11.6c-0.6,0-0.9-0.2-1.1-0.4c-0.2-0.2-0.2-0.6-0.1-1.1C124.1,63.4,124.7,60.3,125.2,57.2z"/>
	<path class="st0" d="M141,66.2l4.4-24.6c0-0.3,0.1-0.6,0.2-0.9c0.1-0.3,0.3-0.6,0.5-0.7c0.2-0.2,0.5-0.2,0.8-0.3h2.6c2,0,4,0,6,0
		c0.8,0,1.5,0.1,2.1,0.4c0.9,0.3,1.6,0.8,2,1.5s0.5,1.5,0.5,2.5c0,0.5-0.1,1.1-0.2,1.6c-0.1,0.5-0.2,1.1-0.3,1.7
		c0,0.2-0.1,0.4-0.1,0.7c-0.3,1.6-0.6,3.3-0.9,4.9c-0.1,0.7-0.3,1.5-0.6,2.2c-0.2,0.5-0.5,1-0.9,1.5s-0.8,0.8-1.3,1.2
		c-0.2,0.1-0.3,0.3-0.4,0.4c-0.1,0.1-0.1,0.3-0.1,0.5c0.2,2.4,0.4,4.8,0.6,7.3c0.1,0.7,0,1.1-0.3,1.4c-0.3,0.3-0.8,0.4-1.5,0.4h-3
		c-0.4,0-0.6-0.1-0.8-0.3c-0.2-0.2-0.3-0.4-0.3-0.8c-0.1-1.1-0.2-2.2-0.3-3.3c0-0.5-0.1-0.9-0.1-1.4c0-0.2,0-0.5-0.1-0.7
		c-0.1-0.6-0.1-1.2-0.2-1.8c0-0.3-0.1-0.5-0.3-0.5c-0.1-0.1-0.3-0.1-0.6,0c-0.1,0-0.1,0.1-0.2,0.1c-0.1,0.1-0.1,0.1-0.1,0.2
		c-0.1,0.2-0.1,0.3-0.1,0.5l-1.2,6.9c-0.1,0.4-0.2,0.7-0.5,1c-0.2,0.2-0.6,0.3-1,0.4c-1.2,0.1-2.3,0.1-3.5,0c-0.4,0-0.6-0.1-0.8-0.3
		s-0.2-0.5-0.2-0.9C141,66.5,141,66.3,141,66.2z M150.5,46.2l-1.1,6.4c0,0.3,0,0.4,0,0.5c0.1,0.1,0.2,0.1,0.5,0.1c0.7,0,1.3,0,2,0
		c0.3,0,0.5-0.1,0.6-0.2c0.1-0.1,0.2-0.3,0.2-0.6c0.4-2,0.8-4.1,1.1-6.2c0.1-0.3,0-0.5,0-0.6c-0.1-0.1-0.3-0.1-0.6-0.1
		c-0.6,0-1.3,0-1.9,0c-0.2,0-0.3,0-0.5,0c-0.1,0-0.2,0.1-0.2,0.2C150.5,45.9,150.5,46,150.5,46.2z"/>
	<path class="st0" d="M167.3,68h-0.4c-0.3,0-0.6,0-1,0c-0.5,0-0.9-0.1-1.1-0.3c-0.2-0.2-0.3-0.6-0.4-1.1c-0.3-6.4-0.6-12.8-0.9-19.3
		c-0.1-1.7-0.2-3.5-0.2-5.2c0-0.2-0.1-0.5-0.1-0.7c0-0.5,0.1-1,0.4-1.2c0.3-0.3,0.7-0.4,1.2-0.5c1,0,2,0,3,0c0.4,0,0.7,0.1,0.9,0.3
		c0.2,0.2,0.3,0.5,0.3,1c0,2.7,0.1,5.4,0.1,8c0,1.7,0.1,3.5,0.1,5.3c0,0.1,0,0.2,0,0.3c0,0.1,0,0.2,0.1,0.2c0,0,0,0.1,0,0.1
		c0,0,0.1-0.1,0.1-0.1c0.1-0.1,0.1-0.2,0.2-0.3c0.4-1.1,0.8-2.2,1.2-3.2c0.2-0.5,0.4-1.1,0.6-1.6c0.5-1.5,1.1-3,1.6-4.5
		c0.4-1.1,0.9-2.3,1.3-3.4c0-0.1,0.1-0.3,0.1-0.4c0.1-0.2,0.2-0.4,0.3-0.7c0.3-0.7,0.8-1.1,1.5-1.1c1.1,0,2.2,0,3.2,0
		c0.4,0,0.7,0.2,0.9,0.4c0.2,0.2,0.2,0.6,0,1.1c-0.2,0.6-0.4,1.1-0.6,1.7c0,0.1-0.1,0.3-0.2,0.4c-2.2,5.6-4.4,11.2-6.7,16.7
		c-0.3,0.9-0.7,1.7-1.1,2.6c-0.2,0.5-0.4,1-0.6,1.6c-0.3,0.8-0.6,1.6-1,2.4c-0.2,0.5-0.4,0.9-0.7,1.1c-0.3,0.2-0.7,0.3-1.2,0.3
		c-0.3,0-0.7,0-1,0H167.3z"/>
	<path class="st0" d="M189.6,41.1L185,66.9c-0.1,0.5-0.5,0.9-1,1c-0.2,0.1-0.5,0.1-0.7,0.1c-0.9,0-1.9,0-2.8,0
		c-0.5,0-0.9-0.1-1.1-0.4c-0.2-0.2-0.3-0.6-0.2-1.1l4.4-24.9c0-0.3,0.1-0.6,0.2-0.9c0.1-0.3,0.3-0.6,0.5-0.7
		c0.2-0.2,0.5-0.2,0.8-0.3c1.2,0,2.4,0,3.5,0c0.4,0,0.7,0.1,0.8,0.4C189.6,40.3,189.7,40.7,189.6,41.1z"/>
	<path class="st0" d="M190,53.9l1.6-9.1c0.1-0.6,0.3-1.1,0.6-1.6c0.2-0.5,0.6-1,1-1.4c0.5-0.5,1-1,1.6-1.3c0.6-0.3,1.2-0.5,1.9-0.5
		c0.6,0,1.2-0.1,1.9-0.1c0.6,0,1.3,0,1.9,0h0.2c0.4,0,0.8,0,1.2,0c0.4,0,0.8,0,1.2,0.1c1.2,0.2,2,0.6,2.6,1.4
		c0.6,0.7,0.8,1.7,0.8,2.8c0,0.6-0.1,1.2-0.2,1.8c-0.1,0.6-0.2,1.2-0.3,1.8l-0.2,1.1c-0.1,0.5-0.3,0.8-0.6,1
		c-0.3,0.2-0.7,0.4-1.1,0.4c-1,0-2,0-2.9,0c-0.5,0-0.8-0.1-1-0.4c-0.2-0.2-0.2-0.6-0.1-1.1l0.4-2.3c0.1-0.3,0.1-0.5,0-0.6
		c-0.1-0.1-0.3-0.2-0.6-0.2c-0.5,0-1.1,0-1.6,0c-0.2,0-0.4,0-0.5,0.1c-0.1,0.1-0.2,0.3-0.3,0.5l-2.6,15.1c0,0.3-0.1,0.5,0,0.6
		c0,0.1,0.1,0.2,0.2,0.3c0.1,0,0.3,0.1,0.6,0h0.2c0.4,0,0.8,0,1.2,0c0.3,0,0.5-0.1,0.6-0.2c0.1-0.1,0.2-0.3,0.3-0.6l0.4-2.3
		c0.1-0.5,0.3-0.9,0.5-1.1c0.3-0.2,0.7-0.3,1.2-0.3h2.9c0.5,0,0.8,0.1,1,0.3c0.2,0.2,0.3,0.6,0.2,1l-0.1,0.8c-0.1,0.6-0.2,1.3-0.3,2
		c-0.1,0.7-0.3,1.3-0.5,2c-0.3,0.8-0.6,1.5-1.1,2.1c-0.5,0.6-1.1,1.1-1.8,1.5c-0.7,0.4-1.4,0.6-2.2,0.6c-1.6,0.1-3.1,0.2-4.7,0.1
		c-0.5,0-0.9,0-1.4-0.1c-0.5-0.1-0.9-0.2-1.3-0.4c-0.9-0.4-1.5-1-1.8-1.8s-0.4-1.6-0.3-2.6c0.3-1.8,0.5-3.6,0.9-5.4L190,53.9
		L190,53.9z"/>
	<path class="st0" d="M215.7,41.1l-4.6,25.8c-0.1,0.5-0.5,0.9-1,1c-0.2,0.1-0.5,0.1-0.7,0.1c-0.9,0-1.9,0-2.8,0
		c-0.5,0-0.9-0.1-1.1-0.4c-0.2-0.2-0.3-0.6-0.2-1.1l4.4-24.9c0-0.3,0.1-0.6,0.2-0.9c0.1-0.3,0.3-0.6,0.5-0.7
		c0.2-0.2,0.5-0.2,0.8-0.3c1.2,0,2.4,0,3.5,0c0.4,0,0.7,0.1,0.8,0.4C215.8,40.3,215.8,40.7,215.7,41.1z"/>
	<path class="st0" d="M215.7,56.1l0.8-4.6c0.4-2.2,0.8-4.3,1.2-6.5c0.1-0.6,0.2-1.2,0.5-1.7c0.5-1,1.1-1.8,1.8-2.4
		c0.8-0.6,1.7-0.9,2.7-1.1c0.4,0,0.8-0.1,1.2-0.1s0.8,0,1.2,0h1.1c0.5,0,0.9,0,1.4,0c0.5,0,0.9,0,1.4,0.1c1.1,0.2,1.9,0.6,2.5,1.2
		s0.9,1.6,0.9,2.6c0,0.6-0.1,1.2-0.2,1.7c-0.7,3.9-1.3,7.8-2,11.8l-0.9,5c-0.1,0.4-0.2,0.8-0.3,1.1c-0.1,0.4-0.2,0.7-0.4,1.1
		c-0.5,1-1.1,1.7-1.9,2.3c-0.8,0.6-1.7,0.9-2.8,1c-0.8,0.1-1.6,0.1-2.4,0.1c-0.8,0-1.6,0-2.4,0c-0.4,0-0.7-0.1-1.1-0.1
		c-0.4-0.1-0.7-0.1-1-0.2c-0.8-0.2-1.5-0.7-1.9-1.2c-0.4-0.6-0.6-1.3-0.7-2.2c0-0.5,0-1,0.2-1.6C214.9,60.5,215.3,58.3,215.7,56.1z
		 M223.7,61.8l2.7-15.5c0.1-0.3,0.1-0.6,0-0.7c-0.1-0.1-0.3-0.2-0.6-0.2c-0.5,0-1,0-1.6,0c-0.3,0-0.6,0.1-0.7,0.2
		c-0.2,0.1-0.3,0.4-0.3,0.7l-2.6,14.8c0,0.2-0.1,0.5-0.1,0.7c0,0.3,0.2,0.5,0.5,0.5c0.7,0,1.5,0,2.2,0c0.2,0,0.3,0,0.4-0.1
		S223.7,61.9,223.7,61.8z"/>
	<path class="st0" d="M243.4,39.7c0.3,0,0.6,0,0.9,0.1c0.7,0,1.4,0.1,2.1,0.1c0.7,0.1,1.4,0.3,1.9,0.7c0.5,0.4,0.9,0.8,1.2,1.4
		c0.3,0.6,0.4,1.2,0.4,2c0,0.6-0.1,1.2-0.2,1.7c-0.1,0.6-0.2,1.1-0.3,1.7c-0.1,0.5-0.2,1-0.3,1.5c-0.1,0.3-0.2,0.6-0.4,0.8
		c-0.2,0.2-0.5,0.3-0.8,0.3c-1.3,0-2.5,0.1-3.8,0c-0.2,0-0.4-0.1-0.6-0.2c-0.2-0.1-0.2-0.3-0.3-0.6c0-0.3,0-0.5,0-0.8l0.4-2.2
		c0-0.3,0-0.5,0-0.6c-0.1-0.1-0.3-0.1-0.5-0.1c-0.5,0-1,0-1.6,0c-0.2,0-0.4,0.1-0.5,0.2c-0.1,0.1-0.2,0.3-0.3,0.5l-0.6,3.7
		c0,0.3,0.1,0.5,0.3,0.6c0.9,0.3,1.8,0.6,2.6,0.9c0.4,0.2,0.8,0.3,1.2,0.5c0.3,0.1,0.6,0.2,0.9,0.3c0.6,0.2,1.2,0.4,1.9,0.6
		c0.5,0.2,0.8,0.4,1,0.8c0.2,0.3,0.2,0.8,0.1,1.3l-0.4,2c-0.3,2-0.7,3.9-1.1,5.9c-0.1,0.7-0.4,1.4-0.7,2.1c-0.3,0.7-0.8,1.3-1.5,1.8
		c-0.5,0.4-0.9,0.6-1.4,0.8c-0.5,0.2-1,0.3-1.5,0.4c-0.3,0-0.7,0.1-1.1,0.1c-0.4,0-0.7,0-1.1,0c-0.9,0-1.7,0-2.6,0
		c-0.4,0-0.8-0.1-1.1-0.1s-0.7-0.1-1.1-0.2c-1-0.3-1.7-0.8-2.2-1.5c-0.5-0.8-0.7-1.7-0.5-2.7c0.1-1.1,0.3-2.2,0.5-3.2
		c0-0.3,0.1-0.6,0.1-0.9c0-0.2,0.1-0.4,0.2-0.6c0.2-0.3,0.3-0.6,0.5-0.7c0.2-0.1,0.5-0.2,0.8-0.2c1.2,0,2.3,0,3.5,0
		c0.8,0,1.1,0.4,1,1.2l-0.4,2.4c-0.1,0.3,0,0.6,0,0.7c0.1,0.1,0.3,0.2,0.7,0.1c0.5,0,0.9,0,1.4,0c0.3,0,0.5,0,0.6-0.1
		c0.1-0.1,0.2-0.3,0.2-0.6l0.6-3.4c0-0.2,0.1-0.3,0-0.4c0-0.1,0-0.2-0.1-0.2s-0.2-0.1-0.4-0.2c-0.7-0.3-1.4-0.5-2.1-0.7
		c-0.4-0.1-0.8-0.3-1.2-0.4c-0.3-0.1-0.6-0.2-1-0.4c-0.7-0.2-1.3-0.5-2-0.7c-0.3-0.1-0.6-0.2-0.8-0.4c-0.2-0.2-0.3-0.4-0.4-0.7
		c-0.1-0.3-0.1-0.7,0-1.1c0.1-0.8,0.3-1.7,0.5-2.5l0.4-2.1c0.1-0.8,0.3-1.6,0.4-2.4c0.1-0.4,0.2-0.8,0.3-1.2
		c0.1-0.4,0.2-0.8,0.4-1.2c0.4-1,1-1.9,1.8-2.5c0.8-0.6,1.8-1,2.9-1.2c0.7-0.1,1.5-0.1,2.2-0.1C242.7,39.7,243.1,39.7,243.4,39.7z"
		/>
</g>
</svg>
