<?xml version="1.0" encoding="utf-8"?>
<!-- Generator: Adobe Illustrator 19.2.0, SVG Export Plug-In . SVG Version: 6.00 Build 0)  -->
<svg version="1.1" id="Capa_1" xmlns="http://www.w3.org/2000/svg" xmlns:xlink="http://www.w3.org/1999/xlink" x="0px" y="0px"
	 viewBox="0 0 149.7 98.7" style="enable-background:new 0 0 149.7 98.7;" xml:space="preserve">
<style type="text/css">
	.st0{fill:#FFFFFF;}
	.st1{fill:url(#SVGID_1_);stroke:url(#SVGID_2_);stroke-miterlimit:10;}
	.st2{opacity:0.38;}
</style>
<g>
	<path class="st0" d="M93.5,98.7H6.6c-3.9,0-6.6-3.9-5.3-7.6L38.7,3.7C39.6,1.5,41.7,0,44,0h86.5c4.3,0,7.2,4.3,5.8,8.3l-37,86.4
		C98.3,97.1,96,98.7,93.5,98.7z"/>
	<linearGradient id="SVGID_1_" gradientUnits="userSpaceOnUse" x1="31.0876" y1="52.3427" x2="148.7536" y2="52.3427">
		<stop  offset="0" style="stop-color:#006CCF"/>
		<stop  offset="1" style="stop-color:#108DFF"/>
	</linearGradient>
	<linearGradient id="SVGID_2_" gradientUnits="userSpaceOnUse" x1="30.5876" y1="52.3427" x2="149.2536" y2="52.3427">
		<stop  offset="0" style="stop-color:#006CCF"/>
		<stop  offset="1" style="stop-color:#108DFF"/>
	</linearGradient>
	<path class="st1" d="M115.4,89.7H36.7c-3.9,0-6.6-3.9-5.3-7.6L59,18.6c0.8-2.2,2.9-3.7,5.3-3.7h78.3c4.3,0,7.2,4.3,5.8,8.3
		l-27.2,62.4C120.3,88.1,118,89.7,115.4,89.7z"/>
	<g class="st2">
		<path d="M99.9,65.4c-1.4-1.2-3.2-1.7-4.9-1.4l-9,1.4l-2.6-10.8c-0.7-2.8-2.1-5.3-4.2-7.2c-1.2-1.2-2.6-2.1-4.1-2.8
			c1.6-1.1,2.4-3.1,1.8-5.1l-1.1-3.8c-0.7-2.5-3.3-4-5.8-3.3c-1.5,0.4-2.4,2-2,3.5l2.5,9.2c0,0,5,20.7,5,20.7
			c-0.2,0.5-0.3,1-0.3,1.6c0,1.1,0.4,2.1,1.1,2.9v0.6c0,2.1,1.7,3.8,3.8,3.8h18.1c2.1,0,3.8-1.7,3.8-3.8V70
			C102.1,68.2,101.3,66.5,99.9,65.4z M70.6,34.4c0.2-0.1,0.5-0.1,0.7-0.1c1.1,0,2.2,0.8,2.5,1.9l1.1,3.8c0.4,1.4-0.4,2.8-1.8,3.2
			l-0.7,0.2l-2.3-8.2C70,34.9,70.2,34.5,70.6,34.4z M77.8,48.9c1.8,1.7,3,3.8,3.6,6.2l2.5,10.6l-0.3,0.1c-0.6-1.6-2.2-2.7-4-2.7
			c-0.9,0-1.6,0.3-2.3,0.7L73,46C74.8,46.6,76.4,47.6,77.8,48.9z M77.4,67.4c0-1.2,1-2.2,2.2-2.2c1.2,0,2.2,1,2.2,2.2
			s-1,2.2-2.2,2.2C78.4,69.6,77.4,68.6,77.4,67.4z M100,70.8c0,0.9-0.8,1.7-1.7,1.7H80.2c-0.7,0-1.3-0.4-1.5-1
			c0.3,0.1,0.6,0.1,1,0.1c2.2,0,4.1-1.7,4.3-3.9L95.3,66c1.2-0.2,2.4,0.2,3.3,0.9c0.9,0.8,1.4,1.9,1.4,3.1L100,70.8L100,70.8z"/>
		<path d="M108.3,44.4l-2-8.1c-1.5-6.2-7.8-10-14-8.5c-3,0.7-5.6,2.6-7.2,5.3c-1.6,2.7-2.1,5.8-1.3,8.8l2,8.1c0.7,3,2.6,5.6,5.3,7.2
			c1.8,1.1,3.9,1.7,6,1.7c0.9,0,1.9-0.1,2.8-0.3c3-0.7,5.6-2.6,7.2-5.3C108.6,50.6,109,47.4,108.3,44.4z M105.2,52.1
			c-1.3,2.2-3.4,3.7-5.9,4.3c-5.1,1.3-10.3-1.9-11.5-7l-2-8.1c-0.6-2.5-0.2-5,1.1-7.2c1.3-2.2,3.4-3.7,5.9-4.3
			c0.8-0.2,1.5-0.3,2.3-0.3c4.3,0,8.2,2.9,9.3,7.3l2,8.1C106.9,47.4,106.5,50,105.2,52.1z"/>
	</g>
</g>
</svg>
