<?xml version="1.0" encoding="utf-8"?>
<!-- Generator: Adobe Illustrator 19.2.0, SVG Export Plug-In . SVG Version: 6.00 Build 0)  -->
<svg version="1.1" id="Capa_1" xmlns="http://www.w3.org/2000/svg" xmlns:xlink="http://www.w3.org/1999/xlink" x="0px" y="0px"
	 viewBox="0 0 287.3 98.7" style="enable-background:new 0 0 287.3 98.7;" xml:space="preserve">
<style type="text/css">
	.st0{fill:#FFFFFF;}
	.st1{fill:url(#SVGID_1_);stroke:url(#SVGID_2_);stroke-miterlimit:10;}
	.st2{enable-background:new    ;}
	.st3{opacity:0.38;}
</style>
<g>
	<path class="st0" d="M93.6,99.2H6.7c-3.9,0-6.6-3.9-5.3-7.6L38.9,4.2c0.8-2.2,2.9-3.7,5.3-3.7h86.5c4.3,0,7.2,4.3,5.8,8.3l-37,86.4
		C98.5,97.6,96.2,99.2,93.6,99.2z"/>
	
		<linearGradient id="SVGID_1_" gradientUnits="userSpaceOnUse" x1="31.2699" y1="3192.8999" x2="286.3555" y2="3192.8999" gradientTransform="matrix(1 0 0 1 0 -3140)">
		<stop  offset="0" style="stop-color:#006CCE"/>
		<stop  offset="1" style="stop-color:#108CFF"/>
	</linearGradient>
	
		<linearGradient id="SVGID_2_" gradientUnits="userSpaceOnUse" x1="30.7699" y1="3192.8999" x2="286.8555" y2="3192.8999" gradientTransform="matrix(1 0 0 1 0 -3140)">
		<stop  offset="0" style="stop-color:#006CCE"/>
		<stop  offset="1" style="stop-color:#108CFF"/>
	</linearGradient>
	<path class="st1" d="M252.9,90.3h-216c-3.9,0-6.6-3.9-5.3-7.6l27.6-63.5c0.8-2.2,2.9-3.7,5.3-3.7h215.7c4.3,0,7.2,4.3,5.8,8.3
		l-27.2,62.4C257.8,88.7,255.5,90.3,252.9,90.3z"/>
	<g>
		<g class="st2">
			<path class="st0" d="M158.5,58.2c-0.1,0.4-0.1,0.7-0.2,1.1c-0.1,0.6-0.2,1.1-0.3,1.7c-0.1,0.6-0.2,1.1-0.3,1.7
				c-0.3,1.4-1,2.4-1.9,3.2s-2.1,1.3-3.4,1.3c-1.6,0.1-3.1,0.2-4.7,0.1c-0.6,0-1.1-0.1-1.7-0.2s-1.1-0.3-1.5-0.6
				c-0.5-0.3-0.9-0.8-1.1-1.3c-0.2-0.5-0.4-1.1-0.4-1.7c0-0.5,0-1,0.1-1.6c0.3-1.8,0.6-3.6,0.9-5.4l1.6-9.1c0.2-0.9,0.5-1.8,1.1-2.6
				c0.5-0.7,1.1-1.2,1.7-1.6s1.4-0.6,2.2-0.8c0.6-0.1,1.2-0.1,1.8-0.1h0.4c0.5,0,1,0,1.5,0s1,0,1.5,0c0.4,0,0.7,0,1.1,0.1
				c0.4,0.1,0.7,0.2,1,0.3c0.9,0.3,1.6,0.8,2,1.6c0.4,0.7,0.5,1.6,0.4,2.6c-0.1,0.6-0.1,1.2-0.2,1.8c-0.1,0.6-0.2,1.2-0.3,1.8
				c-0.1,0.3-0.1,0.7-0.2,1c-0.1,0.3-0.2,0.6-0.4,0.8s-0.5,0.3-0.9,0.3c-1.1,0-2.2,0-3.2,0c-0.4,0-0.7-0.1-0.8-0.4
				c-0.2-0.2-0.2-0.6-0.1-1c0.1-0.5,0.1-1,0.2-1.5l0.2-1.2c0-0.2,0-0.3-0.1-0.4c-0.1-0.1-0.2-0.2-0.3-0.2c-0.8,0-1.6,0-2.4,0
				c-0.2,0-0.3,0.1-0.4,0.2c-0.1,0.1-0.2,0.2-0.2,0.4l-2.1,12c0,0.3-0.1,0.5,0,0.6c0,0.1,0.1,0.2,0.2,0.3c0.1,0,0.3,0.1,0.6,0.1h1.7
				c0.3,0,0.5,0,0.6-0.1c0.1,0,0.2-0.1,0.3-0.3c0.1-0.1,0.1-0.3,0.1-0.6l0.4-2.2c0-0.2,0.1-0.4,0.2-0.6c0.1-0.3,0.3-0.5,0.5-0.7
				s0.5-0.3,0.8-0.3c1.1,0,2.2,0,3.3,0c0.3,0,0.6,0.1,0.7,0.3C158.5,57.6,158.5,57.8,158.5,58.2z"/>
			<path class="st0" d="M175.2,57c-0.3,1.7-0.6,3.4-0.9,5c-0.2,0.7-0.4,1.4-0.7,2.1c-0.5,1-1.1,1.7-1.9,2.2
				c-0.8,0.5-1.7,0.8-2.7,0.9c-0.8,0.1-1.5,0.1-2.2,0.1s-1.5,0-2.2,0h-0.4c-0.6,0-1.3-0.1-1.9-0.3c-0.9-0.3-1.7-0.8-2.2-1.5
				s-0.7-1.6-0.6-2.6c0.1-1,0.2-1.9,0.4-2.9c0.7-3.9,1.4-7.7,2.1-11.6c0.1-0.7,0.3-1.5,0.6-2.2c0.4-1,1-1.8,1.8-2.5s1.8-1,3-1.2
				c2.1-0.2,4.2-0.2,6.3,0c0.7,0.1,1.3,0.3,1.8,0.7s0.9,0.8,1.1,1.4c0.3,0.6,0.4,1.2,0.4,1.9c0,0.6-0.1,1.2-0.2,1.9L175.2,57z
				 M168.3,61.7c0.2,0,0.3,0,0.4-0.1c0.1-0.1,0.2-0.2,0.2-0.4s0.1-0.3,0.1-0.5l2-11.5c0.1-0.4,0-0.7-0.1-0.8s-0.4-0.2-0.7-0.2
				c-0.5,0-1.1,0-1.6,0c-0.4,0-0.6,0.1-0.8,0.2c-0.2,0.1-0.3,0.4-0.3,0.7l-2,11.4c0,0.2-0.1,0.4-0.1,0.6c0,0.2,0,0.3,0.1,0.4
				c0.1,0.1,0.2,0.1,0.4,0.1C166.7,61.7,167.5,61.7,168.3,61.7z"/>
			<path class="st0" d="M191.2,59.9c-0.1,0.7-0.2,1.5-0.4,2.2c-0.2,0.8-0.4,1.5-0.7,2.2c-0.5,0.9-1.1,1.7-1.9,2.2s-1.6,0.8-2.6,0.9
				c-0.8,0.1-1.7,0.1-2.5,0.1s-1.6,0-2.4,0c-0.7,0-1.4-0.1-2.1-0.4c-0.9-0.3-1.6-0.8-2-1.5S175.9,64,176,63c0.1-0.8,0.2-1.5,0.3-2.3
				c0-0.2,0-0.4,0.1-0.6c0-0.2,0.1-0.4,0.2-0.6c0.2-0.3,0.3-0.6,0.5-0.8s0.5-0.2,0.9-0.2c1.1,0,2.2,0,3.3,0c0.4,0,0.7,0.1,0.9,0.3
				s0.2,0.5,0.1,0.9c0,0.2,0,0.4-0.1,0.6l-0.1,0.6c-0.1,0.3-0.1,0.5,0,0.6s0.3,0.2,0.5,0.2c0.6,0,1.2,0,1.7,0c0.3,0,0.4,0,0.6-0.1
				c0.1-0.1,0.2-0.3,0.2-0.5c0.2-0.8,0.3-1.6,0.4-2.4c0-0.2,0-0.4,0-0.5s-0.2-0.2-0.4-0.2c-0.8-0.3-1.6-0.5-2.4-0.8
				c-0.5-0.2-1-0.3-1.5-0.5c-0.9-0.3-1.7-0.6-2.6-0.9c-0.6-0.2-0.9-0.5-1.1-0.8c-0.2-0.3-0.2-0.8-0.1-1.3c0.3-1.9,0.6-3.8,1-5.7
				c0.2-0.8,0.4-1.5,0.8-2.3c0.4-0.9,1-1.6,1.8-2.1c0.7-0.5,1.6-0.8,2.5-1c0.4-0.1,0.9-0.1,1.3-0.1c0.4,0,0.9,0,1.3,0h0.2
				c0.6,0,1.2,0,1.8,0s1.2,0,1.8,0.1c1.1,0.1,1.9,0.5,2.5,1.2s0.9,1.6,1,2.7c0,0.5,0,1-0.1,1.6c-0.1,0.5-0.2,1-0.3,1.5
				c0,0.3-0.1,0.6-0.2,0.8c0,0.3-0.2,0.5-0.4,0.7s-0.5,0.3-0.8,0.3c-1.2,0-2.5,0-3.7,0c-0.3,0-0.6-0.1-0.7-0.3
				c-0.2-0.2-0.2-0.5-0.2-0.8l0.2-1.4c0.1-0.3,0-0.5,0-0.6c-0.1-0.1-0.3-0.1-0.6-0.1c-0.6,0-1.2,0-1.7,0c-0.3,0-0.5,0.1-0.6,0.2
				s-0.2,0.3-0.2,0.5c-0.1,0.6-0.2,1.2-0.3,1.8c0,0.2-0.1,0.3,0,0.4c0,0.1,0,0.2,0.1,0.2s0.2,0.1,0.4,0.2c1.1,0.4,2.2,0.8,3.3,1.1
				c0.2,0.1,0.4,0.1,0.5,0.2c0.2,0.1,0.4,0.1,0.5,0.2c0.6,0.2,1.3,0.4,1.9,0.6c0.6,0.2,1,0.4,1.2,0.8s0.2,0.9,0.1,1.5
				c-0.2,0.7-0.3,1.4-0.4,2.1L191.2,59.9z"/>
			<path class="st0" d="M210.6,43.7c-0.1,1.1-0.3,2.2-0.6,3.4c-0.1,0.4-0.2,0.7-0.5,0.9s-0.6,0.3-1,0.3H206c-0.3,0-0.5,0-0.6,0.1
				s-0.2,0.2-0.2,0.5l-2.9,16.7c-0.1,0.5-0.2,0.8-0.4,1.1c-0.2,0.3-0.4,0.5-0.6,0.5c-0.3,0.1-0.6,0.1-1.1,0.1h-2.6
				c-0.2,0-0.5,0-0.7-0.1c-0.5-0.2-0.7-0.5-0.7-1.1l3-17.3c0-0.3,0-0.4,0-0.5s-0.2-0.1-0.5-0.1h-2.3c-0.2,0-0.3,0-0.4,0
				c-0.8-0.1-1.1-0.5-1-1.3l0.5-3.2c0.2-0.9,0.7-1.3,1.6-1.3h12.1c0.4,0,0.7,0.1,0.9,0.3S210.6,43.3,210.6,43.7z"/>
		</g>
		<g class="st2">
			<path class="st0" d="M224.8,57c-0.3,1.7-0.6,3.4-0.9,5c-0.2,0.7-0.4,1.4-0.7,2.1c-0.5,1-1.1,1.7-1.9,2.2
				c-0.8,0.5-1.7,0.8-2.7,0.9c-0.8,0.1-1.5,0.1-2.2,0.1s-1.5,0-2.2,0h-0.4c-0.6,0-1.3-0.1-1.9-0.3c-0.9-0.3-1.7-0.8-2.2-1.5
				s-0.7-1.6-0.6-2.6c0.1-1,0.2-1.9,0.4-2.9c0.7-3.9,1.4-7.7,2.1-11.6c0.1-0.7,0.3-1.5,0.6-2.2c0.4-1,1-1.8,1.8-2.5s1.8-1,3-1.2
				c2.1-0.2,4.2-0.2,6.3,0c0.7,0.1,1.3,0.3,1.8,0.7s0.9,0.8,1.1,1.4c0.3,0.6,0.4,1.2,0.4,1.9c0,0.6-0.1,1.2-0.2,1.9L224.8,57z
				 M217.9,61.7c0.2,0,0.3,0,0.4-0.1c0.1-0.1,0.2-0.2,0.2-0.4s0.1-0.3,0.1-0.5l2-11.5c0.1-0.4,0-0.7-0.1-0.8s-0.4-0.2-0.7-0.2
				c-0.5,0-1.1,0-1.6,0c-0.4,0-0.6,0.1-0.8,0.2c-0.2,0.1-0.3,0.4-0.3,0.7l-2,11.4c0,0.2-0.1,0.4-0.1,0.6c0,0.2,0,0.3,0.1,0.4
				c0.1,0.1,0.2,0.1,0.4,0.1C216.3,61.7,217.1,61.7,217.9,61.7z"/>
		</g>
		<g class="st2">
			<path class="st0" d="M241.4,59.9c-0.1,0.7-0.2,1.5-0.4,2.2c-0.2,0.8-0.4,1.5-0.7,2.2c-0.5,0.9-1.1,1.7-1.9,2.2
				c-0.8,0.5-1.6,0.8-2.6,0.9c-0.8,0.1-1.7,0.1-2.5,0.1s-1.6,0-2.4,0c-0.7,0-1.4-0.1-2.1-0.4c-0.9-0.3-1.6-0.8-2-1.5
				s-0.7-1.5-0.6-2.5c0.1-0.8,0.2-1.5,0.3-2.3c0-0.2,0-0.4,0.1-0.6c0-0.2,0.1-0.4,0.2-0.6c0.2-0.3,0.3-0.6,0.5-0.8s0.5-0.2,0.9-0.2
				c1.1,0,2.2,0,3.3,0c0.4,0,0.7,0.1,0.9,0.3s0.2,0.5,0.1,0.9c0,0.2,0,0.4-0.1,0.6l-0.1,0.6c-0.1,0.3-0.1,0.5,0,0.6s0.3,0.2,0.5,0.2
				c0.6,0,1.2,0,1.7,0c0.3,0,0.4,0,0.6-0.1c0.1-0.1,0.2-0.3,0.2-0.5c0.2-0.8,0.3-1.6,0.4-2.4c0-0.2,0-0.4,0-0.5s-0.2-0.2-0.4-0.2
				c-0.8-0.3-1.6-0.5-2.4-0.8c-0.5-0.2-1-0.3-1.5-0.5c-0.9-0.3-1.7-0.6-2.6-0.9c-0.6-0.2-0.9-0.5-1.1-0.8c-0.2-0.3-0.2-0.8-0.1-1.3
				c0.3-1.9,0.6-3.8,1-5.7c0.2-0.8,0.4-1.5,0.8-2.3c0.4-0.9,1-1.6,1.8-2.1c0.7-0.5,1.6-0.8,2.5-1c0.4-0.1,0.9-0.1,1.3-0.1
				c0.4,0,0.9,0,1.3,0h0.2c0.6,0,1.2,0,1.8,0s1.2,0,1.8,0.1c1.1,0.1,1.9,0.5,2.5,1.2s0.9,1.6,1,2.7c0,0.5,0,1-0.1,1.6
				c-0.1,0.5-0.2,1-0.3,1.5c0,0.3-0.1,0.6-0.2,0.8c0,0.3-0.2,0.5-0.4,0.7s-0.5,0.3-0.8,0.3c-1.2,0-2.5,0-3.7,0
				c-0.3,0-0.6-0.1-0.7-0.3c-0.2-0.2-0.2-0.5-0.2-0.8l0.2-1.4c0.1-0.3,0-0.5,0-0.6s-0.3-0.1-0.6-0.1c-0.6,0-1.2,0-1.7,0
				c-0.3,0-0.5,0.1-0.6,0.2s-0.2,0.3-0.2,0.5c-0.1,0.6-0.2,1.2-0.3,1.8c0,0.2-0.1,0.3,0,0.4s0,0.2,0.1,0.2s0.2,0.1,0.4,0.2
				c1.1,0.4,2.2,0.8,3.3,1.1c0.2,0.1,0.4,0.1,0.5,0.2c0.2,0.1,0.4,0.1,0.5,0.2c0.6,0.2,1.3,0.4,1.9,0.6c0.6,0.2,1,0.4,1.2,0.8
				s0.2,0.9,0.1,1.5c-0.2,0.7-0.3,1.4-0.4,2.1L241.4,59.9z"/>
		</g>
	</g>
	<g class="st3">
		<g>
			<g>
				<g>
					<path d="M112.3,51.4V38.3c0-3-2.5-5.5-5.5-5.5H93.7c-0.2,0-0.4,0.1-0.6,0.2l-2.6,2.6c-0.4,0-0.9-0.1-1.3-0.1
						c-5.7-0.3-10.5,0.7-12.3,2.5c-0.7,0.7-0.9,1.4-0.8,1.9c0.1,1.7,2.1,3.3,5.7,4.4l-8.6,8.6c-1,1-1.6,2.4-1.6,3.9s0.6,2.8,1.6,3.9
						l11.1,11.1h-0.9c-0.5,0-0.8,0.4-0.8,0.8c0,0.5,0.4,0.8,0.8,0.8h16.9c0.5,0,0.8-0.4,0.8-0.8c0-0.5-0.4-0.8-0.8-0.8h-8.1
						L112.1,52C112.2,51.9,112.3,51.6,112.3,51.4z M77.8,39.9c0-0.1,0-0.3,0.3-0.7c1.2-1.2,5-2.3,10.8-2l-5.7,5.7
						C79.3,41.9,77.8,40.6,77.8,39.9z M91.1,70.7c-0.7,0.7-1.7,1.1-2.7,1.1s-2-0.4-2.7-1.1L74.5,59.4c-0.7-0.7-1.1-1.7-1.1-2.7
						s0.4-2,1.1-2.7l16.7-16.7c2.5,0.3,4.7,0.7,6.5,1.4c1.2,0.5,2,0.9,2.5,1.3c-0.6,0.6-1,1.5-1,2.4c0,0.3,0,0.5,0.1,0.8
						c0,0,0,0,0,0.1l0,0l0,0c0.4,1.5,1.7,2.5,3.3,2.5c1.9,0,3.4-1.5,3.4-3.4s-1.5-3.4-3.4-3.4c-0.3,0-0.6,0-0.9,0.1
						c-0.7-0.8-1.9-1.4-3.4-2c-1.6-0.6-3.5-1.1-5.6-1.4l1.4-1.4h12.8c2.1,0,3.8,1.7,3.8,3.8v12.8L91.1,70.7z M102.6,41.1
						c0-0.1,0-0.2,0-0.3l0,0c0.9,0,1.7,0.8,1.7,1.7s-0.8,1.7-1.7,1.7c-0.6,0-1.1-0.3-1.4-0.7C102.4,42.6,102.6,41.7,102.6,41.1z"/>
				</g>
				<g>
					<path d="M108,40c-0.4,0.1-0.7,0.6-0.6,1.1c0.2,0.5,0.2,1,0.2,1.5c0,2.8-2.3,5.1-5.1,5.1c-2.8,0-5.1-2.3-5.1-5.1
						c0-0.5-0.4-0.8-0.8-0.8c-0.5,0-0.8,0.4-0.8,0.8c0,3.7,3,6.8,6.8,6.8c3.7,0,6.8-3,6.8-6.8c0-0.7-0.1-1.4-0.3-2
						C108.9,40.1,108.4,39.8,108,40z"/>
				</g>
				<g>
					<path d="M106.9,39.3c0.2,0,0.4-0.1,0.6-0.2c0.3-0.3,0.3-0.9,0-1.2c-0.1-0.1-0.3-0.3-0.4-0.4c-0.4-0.3-0.9-0.3-1.2,0.1
						c-0.3,0.4-0.3,0.9,0.1,1.2c0.1,0.1,0.2,0.2,0.3,0.3C106.4,39.2,106.6,39.3,106.9,39.3z"/>
				</g>
				<g>
					<path d="M96.4,58.8c0.2-0.2,0.3-0.4,0.4-0.7c0.8-1.5,0.6-3.2-0.4-4.6c-0.9-1.2-2.2-1.7-3.7-1.5c-1,0.2-2,0.7-2.9,1.3
						c-0.2,0.1-0.4,0.2-0.6,0.3c-1.2,0.7-2.4,0.7-3.2,0.1c-0.6-0.5-0.8-1.3-0.5-2.3c0.1-0.3,0.2-0.5,0.4-0.8l1.4,1.4
						c0.2,0.2,0.4,0.2,0.6,0.2s0.4-0.1,0.6-0.2c0.3-0.3,0.3-0.9,0-1.2l-1.4-1.4c0.6-0.4,1.3-0.7,1.9-0.9c0.5-0.1,0.7-0.6,0.6-1
						c-0.1-0.5-0.6-0.7-1-0.6c-0.9,0.2-1.9,0.7-2.8,1.3l-0.6-0.6c-0.3-0.3-0.9-0.3-1.2,0c-0.3,0.3-0.3,0.9,0,1.2l0.6,0.6
						c-0.4,0.5-0.7,1-0.8,1.5c-0.5,1.6,0,3.2,1.1,4.1c1.3,1,3.2,1.1,5,0c0.1,0,0.1-0.1,0.2-0.1l3.7,3.7c-0.8,0.6-1.7,1-2.3,0.8
						c-0.4-0.1-0.9,0.1-1.1,0.6c-0.1,0.4,0.1,0.9,0.6,1.1c0.3,0.1,0.6,0.1,0.9,0.1c1.1,0,2.2-0.5,3.1-1.3l0.9,0.9
						c0.2,0.2,0.4,0.2,0.6,0.2s0.4-0.1,0.6-0.2c0.3-0.3,0.3-0.9,0-1.2L96.4,58.8z M95.3,57.4c0,0.1-0.1,0.2-0.1,0.2l-3.3-3.3
						c0.4-0.2,0.9-0.4,1.3-0.5c0.8-0.1,1.5,0.1,2,0.8C95.7,55.4,95.8,56.5,95.3,57.4z"/>
				</g>
				<g>
					<path d="M82.5,61.7c-0.3-0.3-0.9-0.3-1.2,0c-0.3,0.3-0.3,0.9,0,1.2l0.3,0.3c0.2,0.2,0.4,0.2,0.6,0.2s0.4-0.1,0.6-0.2
						c0.3-0.3,0.3-0.9,0-1.2L82.5,61.7z"/>
				</g>
				<g>
					<path d="M90.2,65.7l-1.8,1.8l-3.6-3.6c-0.3-0.3-0.9-0.3-1.2,0c-0.3,0.3-0.3,0.9,0,1.2l3.6,3.6c0.3,0.3,0.8,0.5,1.2,0.5
						c0.4,0,0.9-0.2,1.2-0.5l1.8-1.8c0.3-0.3,0.3-0.9,0-1.2C91,65.4,90.5,65.4,90.2,65.7z"/>
				</g>
			</g>
		</g>
	</g>
</g>
</svg>
