<?xml version="1.0" encoding="utf-8"?>
<!-- Generator: Adobe Illustrator 19.2.0, SVG Export Plug-In . SVG Version: 6.00 Build 0)  -->
<svg version="1.1" id="Capa_1" xmlns="http://www.w3.org/2000/svg" xmlns:xlink="http://www.w3.org/1999/xlink" x="0px" y="0px"
	 viewBox="0 0 149.7 98.7" style="enable-background:new 0 0 149.7 98.7;" xml:space="preserve">
<style type="text/css">
	.st0{fill:#FFFFFF;}
	.st1{fill:url(#SVGID_1_);stroke:url(#SVGID_2_);stroke-miterlimit:10;}
	.st2{opacity:0.38;}
	.st3{fill:url(#SVGID_3_);stroke:url(#SVGID_4_);stroke-miterlimit:10;}
	.st4{fill:url(#SVGID_5_);stroke:url(#SVGID_6_);stroke-miterlimit:10;}
	.st5{fill:url(#SVGID_7_);stroke:url(#SVGID_8_);stroke-miterlimit:10;}
</style>
<g>
	<path class="st0" d="M93.5,98.7H6.6c-3.9,0-6.6-3.9-5.3-7.6L38.7,3.7C39.6,1.5,41.7,0,44,0h86.5c4.3,0,7.2,4.3,5.8,8.3l-37,86.4
		C98.3,97.1,96,98.7,93.5,98.7z"/>
	<linearGradient id="SVGID_1_" gradientUnits="userSpaceOnUse" x1="31.0876" y1="52.3427" x2="148.7536" y2="52.3427">
		<stop  offset="0" style="stop-color:#006CCF"/>
		<stop  offset="1" style="stop-color:#108DFF"/>
	</linearGradient>
	<linearGradient id="SVGID_2_" gradientUnits="userSpaceOnUse" x1="30.5876" y1="52.3427" x2="149.2536" y2="52.3427">
		<stop  offset="0" style="stop-color:#006CCF"/>
		<stop  offset="1" style="stop-color:#108DFF"/>
	</linearGradient>
	<path class="st1" d="M115.4,89.7H36.7c-3.9,0-6.6-3.9-5.3-7.6L59,18.6c0.8-2.2,2.9-3.7,5.3-3.7h78.3c4.3,0,7.2,4.3,5.8,8.3
		l-27.2,62.4C120.3,88.1,118,89.7,115.4,89.7z"/>
	<g class="st2">
		<g>
			<g>
				<path d="M81.9,30.7L76.8,38v2.2h14.1v-9.4l0,0H81.9z M89,38.3L89,38.3H78.9l4-5.6H89V38.3z"/>
				<path d="M91.8,30.7v9.4h14.1V38l-5.2-7.2L91.8,30.7L91.8,30.7z M93.7,38.3v-5.6h6.1l4,5.6H93.7z"/>
				<rect x="88" y="41.1" width="2.8" height="1.9"/>
				<path d="M74,56.1c1.6,0,2.8-1.3,2.8-2.8c0-1.6-1.3-2.8-2.8-2.8s-2.8,1.3-2.8,2.8C71.1,54.8,72.4,56.1,74,56.1z M74,52.3
					c0.5,0,0.9,0.4,0.9,0.9c0,0.5-0.4,0.9-0.9,0.9c-0.5,0-0.9-0.4-0.9-0.9C73,52.8,73.4,52.3,74,52.3z"/>
				<path d="M95,77.7h7.2l-8.7-2.3l8.8-2.4l0-1.8l-9.3-2.9l9.2-2.8H119V58h-8.6c1-1,1.7-2.3,1.9-3.8h3.8v0c2.3,0,2.8-1.5,2.8-2.8
					v-8.5c0-2.3-1.9-4.4-3.5-4.7l-3.8-0.9c-0.9-0.2-1.5-0.6-2.3-1.5l-4.7-6.6c-1.2-1.5-2.6-2.2-4.5-2.2H82.4c-1.9,0-3.3,0.7-4.5,2.3
					l-4.6,6.5c-0.8,1-1.5,1.4-2.3,1.6l-5.7,0.9c-2.7,0.6-4.5,2.8-4.5,5.6v6.6c0,2,1.7,3.8,3.8,3.8h2.9c0.2,1.5,0.9,2.8,1.9,3.8h-8.6
					v7.5h16.8l9.2,2.8l-9.3,2.9l0,1.8l8.8,2.4l-8.7,2.3h7.2 M69.3,53.3c0-2.6,2.1-4.7,4.7-4.7s4.7,2.1,4.7,4.7
					c0,2.6-2.1,4.7-4.7,4.7S69.3,55.9,69.3,53.3z M80.5,54.2h18.9c0.2,1.5,0.9,2.8,1.9,3.8H78.5C79.6,57,80.2,55.7,80.5,54.2z
					 M95,77.7H84.8l5.1-1.4L95,77.7z M98.7,72l-8.8,2.4L81.1,72l8.8-2.7L98.7,72z M89.9,67.3l-6-1.8h11.9L89.9,67.3z M117.2,59.9
					v3.8H62.7v-3.8H117.2z M105.9,58c-2.6,0-4.7-2.1-4.7-4.7c0-2.6,2.1-4.7,4.7-4.7c2.6,0,4.7,2.1,4.7,4.7
					C110.6,55.9,108.5,58,105.9,58z M105.9,46.7c-3.3,0-6,2.5-6.5,5.6H80.5c-0.5-3.2-3.2-5.6-6.5-5.6s-6,2.5-6.5,5.6h-2.9
					c-1,0-1.9-0.9-1.9-1.9v-4.7h1.9v1.9h1.9v-1.9c0-1.2-0.7-1.9-1.9-1.9h-1.9c0-2.3,1.6-3.5,3-3.8l5.7-0.9c1.2-0.2,2.2-0.9,3.4-2.3
					l4.7-6.5c0.9-1.1,1.7-1.5,3-1.5h17.8c1.3,0,2.2,0.4,3,1.5L108,37c0.9,1.1,1.8,1.8,3.3,2.2l3.8,1c0.8,0.1,2,1.4,2,2.8v8.5
					c0,0.8-0.1,0.9-0.9,0.9h-3.8C111.9,49.2,109.2,46.7,105.9,46.7z"/>
				<path d="M105.9,50.5c-1.6,0-2.8,1.3-2.8,2.8c0,1.6,1.3,2.8,2.8,2.8c1.6,0,2.8-1.3,2.8-2.8C108.7,51.7,107.4,50.5,105.9,50.5z
					 M105.9,54.2c-0.5,0-0.9-0.4-0.9-0.9c0-0.5,0.4-0.9,0.9-0.9c0.5,0,0.9,0.4,0.9,0.9C106.8,53.8,106.4,54.2,105.9,54.2z"/>
				<rect x="68.3" y="67.4" width="1.9" height="4.7"/>
				<rect x="64.6" y="69.3" width="1.9" height="6.6"/>
				<rect x="112.5" y="67.4" width="1.9" height="3.8"/>
				<rect x="108.7" y="67.4" width="1.9" height="8.5"/>
				<rect x="95.6" y="48.6" width="1.9" height="1.9"/>
				<rect x="91.8" y="48.6" width="1.9" height="1.9"/>
				<rect x="113.4" y="48.6" width="1.9" height="1.9"/>
			</g>
		</g>
	</g>
</g>
<g>
	<path class="st0" d="M555.1,98.7h-86.9c-3.9,0-6.6-3.9-5.3-7.6l37.4-87.4c0.8-2.2,2.9-3.7,5.3-3.7h86.5c4.3,0,7.2,4.3,5.8,8.3
		l-37,86.4C560,97.1,557.7,98.7,555.1,98.7z"/>
	<linearGradient id="SVGID_3_" gradientUnits="userSpaceOnUse" x1="492.7365" y1="52.3333" x2="610.4025" y2="52.3333">
		<stop  offset="0" style="stop-color:#006CCF"/>
		<stop  offset="1" style="stop-color:#108DFF"/>
	</linearGradient>
	<linearGradient id="SVGID_4_" gradientUnits="userSpaceOnUse" x1="492.2365" y1="52.3333" x2="610.9025" y2="52.3333">
		<stop  offset="0" style="stop-color:#006CCF"/>
		<stop  offset="1" style="stop-color:#108DFF"/>
	</linearGradient>
	<path class="st3" d="M577.1,89.7h-78.7c-3.9,0-6.6-3.9-5.3-7.6l27.6-63.5c0.8-2.2,2.9-3.7,5.3-3.7h78.3c4.3,0,7.2,4.3,5.8,8.3
		l-27.2,62.4C582,88.1,579.7,89.7,577.1,89.7z"/>
	<g transform="translate(1 1)" class="st2">
		<path d="M566.7,79.8c-6.7,0-12.2-5.4-12.2-12.2s5.4-12.2,12.2-12.2c6.7,0,12.2,5.4,12.2,12.2S573.5,79.8,566.7,79.8z M566.7,57.3
			c-5.7,0-10.3,4.6-10.3,10.3c0,5.7,4.6,10.3,10.3,10.3S577,73.3,577,67.6C577,61.9,572.4,57.3,566.7,57.3z"/>
		<path d="M566.5,72.2c-0.2,0-0.5-0.1-0.6-0.2l-4.5-3.6c-0.4-0.3-0.5-0.9-0.1-1.3c0.3-0.4,0.9-0.5,1.3-0.1l3.6,3l5.2-7.5
			c0.3-0.5,0.8-0.6,1.3-0.2c0.5,0.3,0.6,0.8,0.2,1.3l-5.8,8.3C567.1,72.1,566.9,72.3,566.5,72.2C566.6,72.2,566.5,72.2,566.5,72.2z"
			/>
		<path d="M557.4,33h-13.1c-1,0-1.9-0.8-1.9-1.9v-5.6c0-1,0.8-1.9,1.9-1.9h13.1c1,0,1.9,0.8,1.9,1.9v5.6
			C559.2,32.2,558.4,33,557.4,33z M557.4,31.1v0.9V31.1L557.4,31.1z M544.3,25.5v5.6h13.1v-5.6H544.3z"/>
		<path d="M561.1,45.2h-20.6c-0.4,0-0.7-0.2-0.8-0.5c-0.2-0.3-0.1-0.7,0.1-0.9l4-5.6c0.6-0.8,1.5-1.3,2.5-1.3h9c1,0,2,0.5,2.5,1.3
			l4,5.6c0.2,0.3,0.2,0.7,0.1,0.9C561.8,45,561.5,45.2,561.1,45.2z M542.3,43.3h16.9l-3-4.2c-0.2-0.3-0.6-0.5-1-0.5h-9
			c-0.4,0-0.7,0.2-1,0.5L542.3,43.3z"/>
		<path d="M543.3,54.5c-2.1,0-3.7-1.7-3.7-3.7c0-2.1,1.7-3.7,3.7-3.7c2.1,0,3.7,1.7,3.7,3.7C547.1,52.8,545.4,54.5,543.3,54.5z
			 M543.3,48.9c-1,0-1.9,0.8-1.9,1.9c0,1,0.8,1.9,1.9,1.9c1,0,1.9-0.8,1.9-1.9C545.2,49.8,544.4,48.9,543.3,48.9z"/>
		<path d="M558.3,54.5c-2.1,0-3.7-1.7-3.7-3.7c0-2.1,1.7-3.7,3.7-3.7c2.1,0,3.7,1.7,3.7,3.7C562.1,52.8,560.4,54.5,558.3,54.5z
			 M558.3,48.9c-1,0-1.9,0.8-1.9,1.9c0,1,0.8,1.9,1.9,1.9s1.9-0.8,1.9-1.9C560.2,49.8,559.3,48.9,558.3,48.9z"/>
		<path d="M563.4,51.7h-2.2c-0.6,0-0.9-0.4-0.9-0.9c0-1-0.8-1.9-1.9-1.9s-1.9,0.8-1.9,1.9c0,0.6-0.4,0.9-0.9,0.9h-9.4
			c-0.6,0-0.9-0.4-0.9-0.9c0-1-0.8-1.9-1.9-1.9c-1,0-1.9,0.8-1.9,1.9c0,0.6-0.4,0.9-0.9,0.9h-2.2c-1.4,0-2.4-1-2.4-2.4v-3.6
			c0-1.3,1-2.4,2.4-2.4h25.2c1.3,0,2.4,1,2.4,2.4v3.6C565.8,50.7,564.8,51.7,563.4,51.7z M562,49.8h1.5c0.3,0,0.6-0.3,0.6-0.6v-3.6
			c0-0.3-0.3-0.6-0.6-0.6h-25.2c-0.3,0-0.6,0.3-0.6,0.6v3.6c0,0.3,0.3,0.6,0.6,0.6h1.5c0.4-1.6,1.9-2.8,3.6-2.8s3.2,1.2,3.6,2.8h7.8
			c0.4-1.6,1.9-2.8,3.6-2.8C560.3,47,561.5,48.3,562,49.8z"/>
		<path d="M550.8,61.1h-14c-0.6,0-0.9-0.4-0.9-0.9s0.4-0.9,0.9-0.9h14c0.6,0,0.9,0.4,0.9,0.9S551.4,61.1,550.8,61.1z"/>
		<path d="M550.8,65.8h-14c-0.6,0-0.9-0.4-0.9-0.9s0.4-0.9,0.9-0.9h14c0.6,0,0.9,0.4,0.9,0.9S551.4,65.8,550.8,65.8z"/>
		<path d="M550.8,70.4h-14c-0.6,0-0.9-0.4-0.9-0.9s0.4-0.9,0.9-0.9h14c0.6,0,0.9,0.4,0.9,0.9S551.4,70.4,550.8,70.4z"/>
		<path d="M550.8,45.2c-0.6,0-0.9-0.4-0.9-0.9v-6.5c0-0.6,0.4-0.9,0.9-0.9c0.6,0,0.9,0.4,0.9,0.9v6.5
			C551.8,44.8,551.4,45.2,550.8,45.2z"/>
		<path d="M566.7,79.8h-36.5c-1.6,0-2.8-1.2-2.8-2.8V28.3c0-1.6,1.2-2.8,2.8-2.8h12.2c0-1,0.8-1.9,1.9-1.9h13.1c1,0,1.9,0.8,1.9,1.9
			h12.2c1.6,0,2.8,1.2,2.8,2.8v30.2c0,0.4-0.2,0.7-0.5,0.8c-0.3,0.2-0.7,0.1-0.9-0.1c-1.9-1.3-3.9-2-6.1-2
			c-5.7,0-10.3,4.6-10.3,10.3c0,5.7,4.6,10.3,10.3,10.3c0.6,0,0.9,0.4,0.9,0.9C567.7,79.4,567.3,79.8,566.7,79.8z M530.2,27.4
			c-0.6,0-0.9,0.4-0.9,0.9V77c0,0.6,0.4,0.9,0.9,0.9h30c-3.4-2.2-5.7-6-5.7-10.3c0-6.7,5.4-12.2,12.2-12.2c2,0,3.9,0.5,5.6,1.4V28.3
			c0-0.6-0.4-0.9-0.9-0.9h-13.1c-0.6,0-0.9-0.4-0.9-0.9v-0.9h-13.1v0.9c0,0.6-0.4,0.9-0.9,0.9H530.2z"/>
		<path d="M558.4,76h-25.4c-1,0-1.9-0.8-1.9-1.9v-43c0-1,0.8-1.9,1.9-1.9h10.3c0.6,0,0.9,0.4,0.9,0.9v0.9h13.1v-0.9
			c0-0.6,0.4-0.9,0.9-0.9h10.3c1,0,1.9,0.8,1.9,1.9v25.6c0,0.3-0.1,0.6-0.4,0.7c-0.3,0.2-0.6,0.3-0.8,0.2c-0.8-0.3-1.7-0.4-2.5-0.4
			c-5.7,0-10.3,4.6-10.3,10.3c0,2.5,0.9,5,2.6,6.8c0.3,0.3,0.3,0.7,0.2,1C559.2,75.9,558.8,76,558.4,76z M533.1,31.1v43h23.5
			c-1.2-2-2-4.2-2-6.5c0-6.7,5.4-12.2,12.2-12.2c0.7,0,1.2,0.1,1.9,0.2V31.1h-9.4c0,1-0.8,1.9-1.9,1.9h-13.1c-1,0-1.9-0.8-1.9-1.9
			H533.1z"/>
	</g>
</g>
<g>
	<path class="st0" d="M793.5,98.7h-86.9c-3.9,0-6.6-3.9-5.3-7.6l37.4-87.4c0.8-2.2,2.9-3.7,5.3-3.7h86.5c4.3,0,7.2,4.3,5.8,8.3
		l-37,86.4C798.3,97.1,796,98.7,793.5,98.7z"/>
	<linearGradient id="SVGID_5_" gradientUnits="userSpaceOnUse" x1="731.0972" y1="52.3333" x2="848.7632" y2="52.3333">
		<stop  offset="0" style="stop-color:#006CCF"/>
		<stop  offset="1" style="stop-color:#108DFF"/>
	</linearGradient>
	<linearGradient id="SVGID_6_" gradientUnits="userSpaceOnUse" x1="730.5972" y1="52.3333" x2="849.2632" y2="52.3333">
		<stop  offset="0" style="stop-color:#006CCF"/>
		<stop  offset="1" style="stop-color:#108DFF"/>
	</linearGradient>
	<path class="st4" d="M815.5,89.7h-78.7c-3.9,0-6.6-3.9-5.3-7.6L759,18.6c0.8-2.2,2.9-3.7,5.3-3.7h78.3c4.3,0,7.2,4.3,5.8,8.3
		l-27.2,62.4C820.3,88.1,818,89.7,815.5,89.7z"/>
	<g class="st2">
		<g>
			<g>
				<path d="M818.1,44.7c-0.9,0-1.8,0.4-2.5,1l-5,5V39.1c0.6,1.2,0.9,2.5,0.9,3.8h1.8c0-3.3,3.3-8.3,7.4-8.3v-1.8
					c-4.5,0-7.4-2.9-7.4-7.4h-1.8c0,1.3-0.3,2.6-0.9,3.6v-1.8c0-1.5-1.2-2.8-2.8-2.8h-40.6c-1.5,0-2.8,1.2-2.8,2.8v51.7
					c0,1.5,1.2,2.8,2.8,2.8h40.6c1.5,0,2.8-1.2,2.8-2.8V60.8l10-10c0.7-0.7,1-1.6,1-2.5C821.7,46.3,820.1,44.7,818.1,44.7z
					 M812.4,29.5c0.9,2,2.4,3.5,4.5,4.3c-1.9,1.1-3.4,3-4.3,5c-0.9-2.2-2.5-4-4.5-5.1C809.9,32.8,811.4,31.4,812.4,29.5z
					 M808.7,78.8L808.7,78.8c0,0.5-0.4,0.9-0.9,0.9h-40.6c-0.5,0-0.9-0.4-0.9-0.9V27.1c0-0.5,0.4-0.9,0.9-0.9h40.6
					c0.5,0,0.9,0.4,0.9,0.9v4c-1.3,1-2.9,1.6-4.6,1.6v1.8c1.8,0,3.4,0.8,4.6,2v16.1l-12.9,12.9v-5.2h-6.5v6.5h5.2l-0.3,0.3l-0.1,0.1
					l-3.7,8.7l8.7-3.7l9.6-9.6V78.8L808.7,78.8z M797,71.1l-3.1,1.3l1.3-3.1L797,71.1z M794,62.2V65h-2.8v-2.8H794z M798.6,70.2
					l-2.4-2.4l16.2-16.2l2.4,2.4L798.6,70.2z M819.3,49.4l-3.2,3.2l-2.4-2.4l3.2-3.2c0.3-0.3,0.7-0.5,1.2-0.5c0.9,0,1.7,0.8,1.7,1.7
					C819.8,48.7,819.6,49.1,819.3,49.4z"/>
				<path d="M776.4,41.9c3.1,0,5.5-2.5,5.5-5.5s-2.5-5.5-5.5-5.5s-5.5,2.5-5.5,5.5S773.4,41.9,776.4,41.9z M776.4,32.7
					c2,0,3.7,1.7,3.7,3.7s-1.7,3.7-3.7,3.7s-3.7-1.7-3.7-3.7C772.7,34.3,774.4,32.7,776.4,32.7z"/>
				<rect x="771.8" y="43.8" width="7.4" height="1.8"/>
				<path d="M779.2,51.2h-6.5v6.5h6.5L779.2,51.2L779.2,51.2z M777.3,55.8h-2.8V53h2.8V55.8z"/>
				<path d="M772.7,66.8h6.5v-6.5h-6.5V66.8z M774.6,62.2h2.8V65h-2.8V62.2z"/>
				<path d="M795.8,51.2h-6.5v6.5h6.5V51.2L795.8,51.2z M794,55.8h-2.8V53h2.8V55.8z"/>
				<rect x="788.4" y="33.6" width="12.9" height="1.8"/>
				<rect x="788.4" y="39.1" width="16.6" height="1.8"/>
				<rect x="788.4" y="44.7" width="16.6" height="1.8"/>
				<rect x="781" y="52.1" width="4.6" height="1.8"/>
				<rect x="781" y="55.8" width="4.6" height="1.8"/>
				<rect x="797.7" y="52.1" width="4.6" height="1.8"/>
				<rect x="797.7" y="55.8" width="4.6" height="1.8"/>
				<rect x="781" y="63.2" width="4.6" height="1.8"/>
				<rect x="772.7" y="70.5" width="16.6" height="1.8"/>
				<rect x="772.7" y="74.2" width="16.6" height="1.8"/>
				<rect x="781" y="43.8" width="1.8" height="1.8"/>
				<rect x="805" y="76.1" width="1.8" height="1.8"/>
				<rect x="801.3" y="76.1" width="1.8" height="1.8"/>
				<rect x="768.1" y="76.1" width="1.8" height="1.8"/>
			</g>
		</g>
	</g>
</g>
<g>
	<path class="st0" d="M1031.8,98.7h-86.9c-3.9,0-6.6-3.9-5.3-7.6l37.4-87.4c0.8-2.2,2.9-3.7,5.3-3.7h86.5c4.3,0,7.2,4.3,5.8,8.3
		l-37,86.4C1036.7,97.1,1034.4,98.7,1031.8,98.7z"/>
	<linearGradient id="SVGID_7_" gradientUnits="userSpaceOnUse" x1="969.4579" y1="52.3333" x2="1087.1239" y2="52.3333">
		<stop  offset="0" style="stop-color:#006CCF"/>
		<stop  offset="1" style="stop-color:#108DFF"/>
	</linearGradient>
	<linearGradient id="SVGID_8_" gradientUnits="userSpaceOnUse" x1="968.9579" y1="52.3333" x2="1087.6239" y2="52.3333">
		<stop  offset="0" style="stop-color:#006CCF"/>
		<stop  offset="1" style="stop-color:#108DFF"/>
	</linearGradient>
	<path class="st5" d="M1053.8,89.7h-78.7c-3.9,0-6.6-3.9-5.3-7.6l27.6-63.5c0.8-2.2,2.9-3.7,5.3-3.7h78.3c4.3,0,7.2,4.3,5.8,8.3
		l-27.2,62.4C1058.7,88.1,1056.4,89.7,1053.8,89.7z"/>
	<g class="st2">
		<path d="M1038.3,65.4c-1.4-1.2-3.2-1.7-4.9-1.4l-9,1.4l-2.6-10.8c-0.7-2.8-2.1-5.3-4.2-7.2c-1.2-1.2-2.6-2.1-4.1-2.8
			c1.6-1.1,2.4-3.1,1.8-5.1l-1.1-3.8c-0.7-2.5-3.3-4-5.8-3.3c-1.5,0.4-2.4,2-2,3.5l2.5,9.2c0,0,5,20.7,5,20.7
			c-0.2,0.5-0.3,1-0.3,1.6c0,1.1,0.4,2.1,1.1,2.9v0.6c0,2.1,1.7,3.8,3.8,3.8h18.1c2.1,0,3.8-1.7,3.8-3.8V70
			C1040.5,68.2,1039.7,66.5,1038.3,65.4z M1009,34.4c0.2-0.1,0.5-0.1,0.7-0.1c1.1,0,2.2,0.8,2.5,1.9l1.1,3.8
			c0.4,1.4-0.4,2.8-1.8,3.2l-0.7,0.2l-2.3-8.2C1008.4,34.9,1008.6,34.5,1009,34.4z M1016.2,48.9c1.8,1.7,3,3.8,3.6,6.2l2.5,10.6
			l-0.3,0.1c-0.6-1.6-2.2-2.7-4-2.7c-0.9,0-1.6,0.3-2.3,0.7l-4.2-17.7C1013.2,46.6,1014.8,47.5,1016.2,48.9z M1015.7,67.3
			c0-1.2,1-2.2,2.2-2.2s2.2,1,2.2,2.2s-1,2.2-2.2,2.2S1015.7,68.6,1015.7,67.3z M1038.4,70.8c0,0.9-0.8,1.7-1.7,1.7h-18.1
			c-0.7,0-1.3-0.4-1.5-1c0.3,0.1,0.6,0.1,1,0.1c2.2,0,4.1-1.7,4.3-3.9l11.4-1.8c1.2-0.2,2.4,0.2,3.3,0.9c0.9,0.8,1.4,1.9,1.4,3.1
			L1038.4,70.8L1038.4,70.8z"/>
		<path d="M1046.7,44.4l-2-8.1c-1.5-6.2-7.8-10-14-8.5c-3,0.7-5.6,2.6-7.2,5.3c-1.6,2.7-2.1,5.8-1.3,8.8l2,8.1
			c0.7,3,2.6,5.6,5.3,7.2c1.8,1.1,3.9,1.7,6,1.7c0.9,0,1.9-0.1,2.8-0.3c3-0.7,5.6-2.6,7.2-5.3C1046.9,50.5,1047.4,47.4,1046.7,44.4z
			 M1043.6,52.1c-1.3,2.2-3.4,3.7-5.9,4.3c-5.1,1.3-10.3-1.9-11.5-7l-2-8.1c-0.6-2.5-0.2-5,1.1-7.2c1.3-2.2,3.4-3.7,5.9-4.3
			c0.8-0.2,1.5-0.3,2.3-0.3c4.3,0,8.2,2.9,9.3,7.3l2,8.1C1045.3,47.4,1044.9,49.9,1043.6,52.1z"/>
	</g>
</g>
</svg>
