<?xml version="1.0" encoding="utf-8"?>
<!-- Generator: Adobe Illustrator 19.2.0, SVG Export Plug-In . SVG Version: 6.00 Build 0)  -->
<svg version="1.1" id="Capa_1" xmlns="http://www.w3.org/2000/svg" xmlns:xlink="http://www.w3.org/1999/xlink" x="0px" y="0px"
	 viewBox="0 0 149.7 98.7" style="enable-background:new 0 0 149.7 98.7;" xml:space="preserve">
<style type="text/css">
	.st0{fill:#FFFFFF;}
	.st1{fill:url(#SVGID_1_);stroke:url(#SVGID_2_);stroke-miterlimit:10;}
	.st2{opacity:0.38;}
	.st3{fill:url(#SVGID_3_);stroke:url(#SVGID_4_);stroke-miterlimit:10;}
	.st4{fill:url(#SVGID_5_);stroke:url(#SVGID_6_);stroke-miterlimit:10;}
</style>
<g>
	<path class="st0" d="M93.5,98.7H6.6c-3.9,0-6.6-3.9-5.3-7.6L38.7,3.7C39.6,1.5,41.7,0,44,0h86.5c4.3,0,7.2,4.3,5.8,8.3l-37,86.4
		C98.3,97.1,96,98.7,93.5,98.7z"/>
	<linearGradient id="SVGID_1_" gradientUnits="userSpaceOnUse" x1="31.0876" y1="52.3427" x2="148.7536" y2="52.3427">
		<stop  offset="0" style="stop-color:#006CCF"/>
		<stop  offset="1" style="stop-color:#108DFF"/>
	</linearGradient>
	<linearGradient id="SVGID_2_" gradientUnits="userSpaceOnUse" x1="30.5876" y1="52.3427" x2="149.2536" y2="52.3427">
		<stop  offset="0" style="stop-color:#006CCF"/>
		<stop  offset="1" style="stop-color:#108DFF"/>
	</linearGradient>
	<path class="st1" d="M115.4,89.7H36.7c-3.9,0-6.6-3.9-5.3-7.6L59,18.6c0.8-2.2,2.9-3.7,5.3-3.7h78.3c4.3,0,7.2,4.3,5.8,8.3
		l-27.2,62.4C120.3,88.1,118,89.7,115.4,89.7z"/>
	<g transform="translate(1 1)" class="st2">
		<path d="M105.1,79.8c-6.7,0-12.2-5.4-12.2-12.2s5.4-12.2,12.2-12.2s12.2,5.4,12.2,12.2S111.8,79.8,105.1,79.8z M105.1,57.3
			c-5.7,0-10.3,4.6-10.3,10.3c0,5.7,4.6,10.3,10.3,10.3s10.3-4.6,10.3-10.3C115.4,61.9,110.8,57.3,105.1,57.3z"/>
		<path d="M104.9,72.2c-0.2,0-0.5-0.1-0.6-0.2l-4.5-3.6c-0.4-0.3-0.5-0.9-0.1-1.3c0.3-0.4,0.9-0.5,1.3-0.1l3.6,3l5.2-7.5
			c0.3-0.5,0.8-0.6,1.3-0.2c0.5,0.3,0.6,0.8,0.2,1.3l-5.8,8.3C105.5,72.1,105.3,72.3,104.9,72.2C105,72.2,104.9,72.2,104.9,72.2z"/>
		<path d="M95.7,33H82.6c-1,0-1.9-0.8-1.9-1.9v-5.6c0-1,0.8-1.9,1.9-1.9h13.1c1,0,1.9,0.8,1.9,1.9v5.6C97.6,32.2,96.8,33,95.7,33z
			 M95.7,31.1v0.9V31.1L95.7,31.1z M82.6,25.5v5.6h13.1v-5.6H82.6z"/>
		<path d="M99.5,45.2H78.9c-0.4,0-0.7-0.2-0.8-0.5s-0.1-0.7,0.1-0.9l4-5.6c0.6-0.8,1.5-1.3,2.5-1.3h9c1,0,2,0.5,2.5,1.3l4,5.6
			c0.2,0.3,0.2,0.7,0.1,0.9C100.1,45,99.8,45.2,99.5,45.2z M80.7,43.3h16.9l-3-4.2c-0.2-0.3-0.6-0.5-1-0.5h-9c-0.4,0-0.7,0.2-1,0.5
			L80.7,43.3z"/>
		<path d="M81.7,54.5c-2.1,0-3.7-1.7-3.7-3.7c0-2.1,1.7-3.7,3.7-3.7c2.1,0,3.7,1.7,3.7,3.7C85.4,52.9,83.8,54.5,81.7,54.5z
			 M81.7,48.9c-1,0-1.9,0.8-1.9,1.9c0,1,0.8,1.9,1.9,1.9c1,0,1.9-0.8,1.9-1.9C83.6,49.8,82.7,48.9,81.7,48.9z"/>
		<path d="M96.7,54.5c-2.1,0-3.7-1.7-3.7-3.7c0-2.1,1.7-3.7,3.7-3.7c2.1,0,3.7,1.7,3.7,3.7C100.4,52.9,98.7,54.5,96.7,54.5z
			 M96.7,48.9c-1,0-1.9,0.8-1.9,1.9c0,1,0.8,1.9,1.9,1.9c1,0,1.9-0.8,1.9-1.9C98.5,49.8,97.7,48.9,96.7,48.9z"/>
		<path d="M101.7,51.7h-2.2c-0.6,0-0.9-0.4-0.9-0.9c0-1-0.8-1.9-1.9-1.9c-1,0-1.9,0.8-1.9,1.9c0,0.6-0.4,0.9-0.9,0.9h-9.4
			c-0.6,0-0.9-0.4-0.9-0.9c0-1-0.8-1.9-1.9-1.9c-1,0-1.9,0.8-1.9,1.9c0,0.6-0.4,0.9-0.9,0.9h-2.2c-1.4,0-2.4-1-2.4-2.4v-3.6
			c0-1.3,1-2.4,2.4-2.4h25.2c1.3,0,2.4,1,2.4,2.4v3.6C104.1,50.7,103.1,51.7,101.7,51.7z M100.3,49.9h1.5c0.3,0,0.6-0.3,0.6-0.6
			v-3.6c0-0.3-0.3-0.6-0.6-0.6H76.6c-0.3,0-0.6,0.3-0.6,0.6v3.6c0,0.3,0.3,0.6,0.6,0.6h1.5c0.4-1.6,1.9-2.8,3.6-2.8
			c1.8,0,3.2,1.2,3.6,2.8h7.8c0.4-1.6,1.9-2.8,3.6-2.8C98.6,47,99.8,48.3,100.3,49.9z"/>
		<path d="M89.2,61.1h-14c-0.6,0-0.9-0.4-0.9-0.9s0.4-0.9,0.9-0.9h14c0.6,0,0.9,0.4,0.9,0.9S89.7,61.1,89.2,61.1z"/>
		<path d="M89.2,65.8h-14c-0.6,0-0.9-0.4-0.9-0.9s0.4-0.9,0.9-0.9h14c0.6,0,0.9,0.4,0.9,0.9S89.7,65.8,89.2,65.8z"/>
		<path d="M89.2,70.4h-14c-0.6,0-0.9-0.4-0.9-0.9s0.4-0.9,0.9-0.9h14c0.6,0,0.9,0.4,0.9,0.9S89.7,70.4,89.2,70.4z"/>
		<path d="M89.2,45.2c-0.6,0-0.9-0.4-0.9-0.9v-6.5c0-0.6,0.4-0.9,0.9-0.9c0.6,0,0.9,0.4,0.9,0.9v6.5C90.1,44.8,89.7,45.2,89.2,45.2z
			"/>
		<path d="M105.1,79.8H68.6c-1.6,0-2.8-1.2-2.8-2.8V28.3c0-1.6,1.2-2.8,2.8-2.8h12.2c0-1,0.8-1.9,1.9-1.9h13.1c1,0,1.9,0.8,1.9,1.9
			h12.2c1.6,0,2.8,1.2,2.8,2.8v30.2c0,0.4-0.2,0.7-0.5,0.8c-0.3,0.2-0.7,0.1-0.9-0.1c-1.9-1.3-3.9-2-6.1-2
			c-5.7,0-10.3,4.6-10.3,10.3c0,5.7,4.6,10.3,10.3,10.3c0.6,0,0.9,0.4,0.9,0.9C106,79.4,105.6,79.8,105.1,79.8z M68.6,27.4
			c-0.6,0-0.9,0.4-0.9,0.9V77c0,0.6,0.4,0.9,0.9,0.9h30c-3.4-2.2-5.7-6-5.7-10.3c0-6.7,5.4-12.2,12.2-12.2c2,0,3.9,0.5,5.6,1.4V28.3
			c0-0.6-0.4-0.9-0.9-0.9H96.7c-0.6,0-0.9-0.4-0.9-0.9v-0.9H82.6v0.9c0,0.6-0.4,0.9-0.9,0.9H68.6z"/>
		<path d="M96.8,76.1H71.4c-1,0-1.9-0.8-1.9-1.9v-43c0-1,0.8-1.9,1.9-1.9h10.3c0.6,0,0.9,0.4,0.9,0.9v0.9h13.1v-0.9
			c0-0.6,0.4-0.9,0.9-0.9H107c1,0,1.9,0.8,1.9,1.9v25.6c0,0.3-0.1,0.6-0.4,0.7c-0.3,0.2-0.6,0.3-0.8,0.2c-0.8-0.3-1.7-0.4-2.5-0.4
			c-5.7,0-10.3,4.6-10.3,10.3c0,2.5,0.9,5,2.6,6.8c0.3,0.3,0.3,0.7,0.2,1S97.1,76.1,96.8,76.1z M71.4,31.1v43h23.5
			c-1.2-2-2-4.2-2-6.5c0-6.7,5.4-12.2,12.2-12.2c0.7,0,1.2,0.1,1.9,0.2V31.1h-9.4c0,1-0.8,1.9-1.9,1.9H82.6c-1,0-1.9-0.8-1.9-1.9
			H71.4z"/>
	</g>
</g>
</svg>
