<?xml version="1.0" encoding="utf-8"?>
<!-- Generator: Adobe Illustrator 19.2.0, SVG Export Plug-In . SVG Version: 6.00 Build 0)  -->
<svg version="1.1" id="Capa_1" xmlns="http://www.w3.org/2000/svg" xmlns:xlink="http://www.w3.org/1999/xlink" x="0px" y="0px"
	 viewBox="0 0 287.3 98.7" style="enable-background:new 0 0 287.3 98.7;" xml:space="preserve">
<style type="text/css">
	.st0{fill:#FFFFFF;}
	.st1{fill:url(#SVGID_1_);stroke:url(#SVGID_2_);stroke-miterlimit:10;}
	.st2{opacity:0.38;}
	.st3{enable-background:new    ;}
</style>
<path class="st0" d="M93.5,98.8H6.6c-3.9,0-6.6-3.9-5.3-7.6L38.8,3.7C39.6,1.5,41.7,0,44.1,0h86.5c4.3,0,7.2,4.3,5.8,8.3l-37,86.4
	C98.4,97.1,96.1,98.8,93.5,98.8z"/>
<linearGradient id="SVGID_1_" gradientUnits="userSpaceOnUse" x1="31.2072" y1="-3092.45" x2="286.2928" y2="-3092.45" gradientTransform="matrix(1 0 0 -1 0 -3040)">
	<stop  offset="0" style="stop-color:#006CCE"/>
	<stop  offset="1" style="stop-color:#108CFF"/>
</linearGradient>
<linearGradient id="SVGID_2_" gradientUnits="userSpaceOnUse" x1="30.7072" y1="-3092.45" x2="286.7928" y2="-3092.45" gradientTransform="matrix(1 0 0 -1 0 -3040)">
	<stop  offset="0" style="stop-color:#006CCE"/>
	<stop  offset="1" style="stop-color:#108CFF"/>
</linearGradient>
<path class="st1" d="M252.8,89.9h-216c-3.9,0-6.6-3.9-5.3-7.6l27.6-63.5c0.8-2.2,2.9-3.7,5.3-3.7h215.7c4.3,0,7.2,4.3,5.8,8.3
	l-27.2,62.4C257.7,88.2,255.4,89.9,252.8,89.9z"/>
<g class="st2">
	<g>
		<g>
			<g>
				<path d="M100.3,52V38.8c0-3-2.5-5.5-5.5-5.5H81.7c-0.2,0-0.4,0.1-0.6,0.2l-2.6,2.6c-0.4,0-0.9-0.1-1.3-0.1
					c-5.7-0.3-10.5,0.7-12.3,2.5c-0.7,0.7-0.9,1.4-0.8,1.9c0.1,1.7,2.1,3.3,5.7,4.4l-8.6,8.6c-1,1-1.6,2.4-1.6,3.9s0.6,2.8,1.6,3.9
					l11.1,11.1h-0.9c-0.5,0-0.8,0.4-0.8,0.8c0,0.5,0.4,0.8,0.8,0.8h16.9c0.5,0,0.8-0.4,0.8-0.8c0-0.5-0.4-0.8-0.8-0.8h-8.1
					l19.9-19.8C100.2,52.5,100.3,52.1,100.3,52z M65.8,40.5c0-0.1,0-0.3,0.3-0.7c1.2-1.2,5-2.3,10.8-2l-5.7,5.7
					C67.3,42.5,65.8,41.1,65.8,40.5z M79.1,71.2c-0.7,0.7-1.7,1.1-2.7,1.1s-2-0.4-2.7-1.1L62.5,60c-0.7-0.7-1.1-1.7-1.1-2.7
					s0.4-2,1.1-2.7l16.7-16.7c2.5,0.3,4.7,0.7,6.5,1.4c1.2,0.5,2,0.9,2.5,1.3c-0.6,0.6-1,1.5-1,2.4c0,0.3,0,0.5,0.1,0.8
					c0,0,0,0,0,0.1l0,0l0,0c0.4,1.5,1.7,2.5,3.3,2.5c1.9,0,3.4-1.5,3.4-3.4s-1.5-3.4-3.4-3.4c-0.3,0-0.6,0-0.9,0.1
					c-0.7-0.8-1.9-1.4-3.4-2c-1.6-0.6-3.5-1.1-5.6-1.4l1.4-1.4h12.8c2.1,0,3.8,1.7,3.8,3.8v12.8L79.1,71.2z M90.6,41.6
					c0-0.1,0-0.2,0-0.3l0,0c0.9,0,1.7,0.8,1.7,1.7s-0.8,1.7-1.7,1.7c-0.6,0-1.1-0.3-1.4-0.7C90.4,43.1,90.6,42.2,90.6,41.6z"/>
			</g>
			<g>
				<path d="M96,40.5c-0.4,0.1-0.7,0.6-0.6,1.1c0.2,0.5,0.2,1,0.2,1.5c0,2.8-2.3,5.1-5.1,5.1c-2.8,0-5.1-2.3-5.1-5.1
					c0-0.5-0.4-0.8-0.8-0.8c-0.5,0-0.8,0.4-0.8,0.8c0,3.7,3,6.8,6.8,6.8c3.7,0,6.8-3,6.8-6.8c0-0.7-0.1-1.4-0.3-2
					C96.9,40.6,96.4,40.3,96,40.5z"/>
			</g>
			<g>
				<path d="M94.9,39.8c0.2,0,0.4-0.1,0.6-0.2c0.3-0.3,0.3-0.9,0-1.2c-0.1-0.1-0.3-0.3-0.4-0.4c-0.4-0.3-0.9-0.3-1.2,0.1
					c-0.3,0.4-0.3,0.9,0.1,1.2c0.1,0.1,0.2,0.2,0.3,0.3C94.4,39.8,94.6,39.8,94.9,39.8z"/>
			</g>
			<g>
				<path d="M84.4,59.3c0.2-0.2,0.3-0.4,0.4-0.7c0.8-1.5,0.6-3.2-0.4-4.6c-0.9-1.2-2.2-1.7-3.7-1.5c-1,0.2-2,0.7-2.9,1.3
					c-0.2,0.1-0.4,0.2-0.6,0.3c-1.2,0.7-2.4,0.7-3.2,0.1c-0.6-0.5-0.8-1.3-0.5-2.3c0.1-0.3,0.2-0.5,0.4-0.8l1.4,1.4
					c0.2,0.2,0.4,0.2,0.6,0.2s0.4-0.1,0.6-0.2c0.3-0.3,0.3-0.9,0-1.2l-1.4-1.4c0.6-0.4,1.3-0.7,1.9-0.9c0.5-0.1,0.7-0.6,0.6-1
					c-0.1-0.5-0.6-0.7-1-0.6c-0.9,0.2-1.9,0.7-2.8,1.3l-0.6-0.6c-0.3-0.3-0.9-0.3-1.2,0c-0.3,0.3-0.3,0.9,0,1.2l0.6,0.6
					c-0.4,0.5-0.7,1-0.8,1.5c-0.5,1.6,0,3.2,1.1,4.1c1.3,1,3.2,1.1,5,0c0.1,0,0.1-0.1,0.2-0.1l3.7,3.7c-0.8,0.6-1.7,1-2.3,0.8
					c-0.4-0.1-0.9,0.1-1.1,0.6c-0.1,0.4,0.1,0.9,0.6,1.1c0.3,0.1,0.6,0.1,0.9,0.1c1.1,0,2.2-0.5,3.1-1.3l0.9,0.9
					c0.2,0.2,0.4,0.2,0.6,0.2s0.4-0.1,0.6-0.2c0.3-0.3,0.3-0.9,0-1.2L84.4,59.3z M83.3,58c0,0.1-0.1,0.2-0.1,0.2l-3.3-3.3
					c0.4-0.2,0.9-0.4,1.3-0.5c0.8-0.1,1.5,0.1,2,0.8C83.7,56,83.8,57,83.3,58z"/>
			</g>
			<g>
				<path d="M70.5,62.2c-0.3-0.3-0.9-0.3-1.2,0c-0.3,0.3-0.3,0.9,0,1.2l0.3,0.3C69.8,64,70,64,70.2,64s0.4-0.1,0.6-0.2
					c0.3-0.3,0.3-0.9,0-1.2L70.5,62.2z"/>
			</g>
			<g>
				<path d="M78.2,66.2l-1.8,1.8l-3.6-3.6c-0.3-0.3-0.9-0.3-1.2,0c-0.3,0.3-0.3,0.9,0,1.2l3.6,3.6c0.3,0.3,0.8,0.5,1.2,0.5
					c0.4,0,0.9-0.2,1.2-0.5l1.8-1.8c0.3-0.3,0.3-0.9,0-1.2C79,65.9,78.5,65.9,78.2,66.2z"/>
			</g>
		</g>
	</g>
</g>
<g class="st3">
	<path class="st0" d="M122.1,58.8c-0.1,0.4-0.1,0.7-0.2,1.1c-0.1,0.6-0.2,1.1-0.3,1.7c-0.1,0.6-0.2,1.1-0.3,1.7
		c-0.3,1.4-1,2.4-1.9,3.2c-0.9,0.8-2.1,1.3-3.4,1.3c-1.6,0.1-3.1,0.2-4.7,0.1c-0.6,0-1.1-0.1-1.7-0.2c-0.5-0.1-1.1-0.3-1.5-0.6
		c-0.5-0.3-0.9-0.8-1.1-1.3c-0.2-0.5-0.4-1.1-0.4-1.7c0-0.5,0-1,0.1-1.6c0.3-1.8,0.6-3.6,0.9-5.4l1.6-9.1c0.2-0.9,0.5-1.8,1.1-2.6
		c0.5-0.7,1.1-1.2,1.7-1.6c0.7-0.4,1.4-0.6,2.2-0.8c0.6-0.1,1.2-0.1,1.8-0.1h0.4c0.5,0,1,0,1.6,0s1,0,1.6,0c0.4,0,0.7,0,1.1,0.1
		s0.7,0.2,1,0.3c0.9,0.3,1.6,0.8,2,1.6c0.4,0.7,0.5,1.6,0.4,2.6c-0.1,0.6-0.1,1.2-0.2,1.8c-0.1,0.6-0.2,1.2-0.3,1.8
		c-0.1,0.3-0.1,0.7-0.2,1c-0.1,0.3-0.2,0.6-0.4,0.8s-0.5,0.3-0.9,0.3c-1.1,0-2.2,0-3.2,0c-0.4,0-0.7-0.1-0.8-0.4
		c-0.2-0.2-0.2-0.6-0.1-1c0.1-0.5,0.1-1,0.2-1.5l0.2-1.2c0-0.2,0-0.3-0.1-0.4c-0.1-0.1-0.2-0.2-0.3-0.2c-0.8,0-1.6,0-2.4,0
		c-0.2,0-0.3,0.1-0.4,0.2c-0.1,0.1-0.2,0.2-0.2,0.4l-2.1,12.1c0,0.3-0.1,0.5,0,0.6c0,0.1,0.1,0.2,0.2,0.3s0.3,0.1,0.6,0.1h1.7
		c0.3,0,0.5,0,0.6-0.1c0.1,0,0.2-0.1,0.3-0.3c0.1-0.1,0.1-0.3,0.1-0.6l0.4-2.2c0-0.2,0.1-0.4,0.2-0.6c0.1-0.3,0.3-0.5,0.5-0.7
		c0.2-0.2,0.5-0.3,0.8-0.3c1.1,0,2.2,0,3.3,0c0.3,0,0.6,0.1,0.7,0.3C122.1,58.2,122.2,58.4,122.1,58.8z"/>
	<path class="st0" d="M138.8,63.6c-0.1,0.9-0.3,1.8-0.5,2.6l0,0.2c-0.1,0.6-0.3,1-0.6,1.2c-0.3,0.2-0.7,0.4-1.3,0.4h-11.7
		c-0.5,0-0.8-0.1-1-0.4c-0.2-0.2-0.3-0.6-0.2-1.1l3.8-21.7c0.1-0.3,0.2-0.6,0.3-0.9c0.1-0.3,0.3-0.6,0.5-0.7
		c0.2-0.2,0.5-0.2,0.8-0.3h12.4c0.6,0,0.9,0.4,0.9,0.9c0,0.2,0,0.3,0,0.5l-0.5,2.9c0,0.1,0,0.2-0.1,0.3c-0.1,0.4-0.3,0.7-0.5,0.9
		c-0.2,0.2-0.6,0.3-1,0.3H133c-0.3,0-0.5,0.1-0.5,0.5l-0.5,2.9c0,0.3,0.1,0.4,0.4,0.5h5c0.5,0,0.9,0.1,1.1,0.3
		c0.2,0.2,0.2,0.6,0.2,1.1l-0.5,2.9c-0.1,0.5-0.3,0.9-0.5,1.1c-0.3,0.2-0.7,0.4-1.2,0.4h-4.6c-0.3,0-0.5,0-0.6,0
		c-0.1,0-0.2,0.1-0.3,0.2c0,0.1-0.1,0.3-0.1,0.6l-0.4,2.2c0,0.2,0,0.4,0,0.5s0.2,0.1,0.4,0.1c0.2,0,0.3,0,0.5,0h6.4
		c0.5,0,0.8,0.1,1,0.3S138.8,63.1,138.8,63.6z"/>
	<path class="st0" d="M156.5,58.3C156.5,58.3,156.5,58.3,156.5,58.3c-0.2,0.3-0.3,0.4-0.5,0.6c-0.2,0.2-0.3,0.3-0.5,0.5
		c-0.2,0.2-0.4,0.3-0.4,0.5c-0.1,0.2-0.1,0.4,0,0.6c0,0.8,0.1,1.5,0.1,2.3c0,0.2,0,0.5,0.1,0.7c0.1,1,0.1,2,0.2,3
		c0,0.5-0.1,0.8-0.3,1.1c-0.2,0.3-0.6,0.4-1.1,0.5c-1.1,0.1-2.2,0.1-3.3,0c-0.6,0-1-0.4-1-1.1c-0.1-1.3-0.2-2.6-0.3-4
		c0-0.4-0.1-0.8-0.1-1.2c0-0.3,0-0.4-0.1-0.5s-0.1-0.2-0.2-0.2c-0.1,0-0.3,0-0.5,0c-0.4,0-0.6,0-0.8,0c-0.2,0-0.3,0.1-0.3,0.3
		s-0.1,0.4-0.2,0.8c-0.1,0.4-0.2,0.9-0.3,1.3c-0.2,1.1-0.4,2.2-0.5,3.2c-0.1,0.4-0.2,0.7-0.4,0.9c-0.2,0.2-0.4,0.4-0.6,0.5
		c-0.2,0.1-0.5,0.1-0.8,0.1h-0.1c-0.9,0-1.8,0-2.6,0c-0.5,0-0.9-0.1-1.1-0.4c-0.2-0.2-0.2-0.6-0.2-1.1l3.9-22.2
		c0.1-0.3,0.2-0.6,0.5-0.8c0.2-0.2,0.6-0.3,0.9-0.4h2.5c1.9,0,3.8,0,5.7,0c0.7,0,1.4,0.1,2.1,0.4c0.9,0.3,1.6,0.8,2,1.6
		c0.4,0.7,0.6,1.6,0.5,2.6c-0.1,0.9-0.2,1.9-0.4,2.9c-0.2,1-0.3,1.9-0.5,2.9c-0.1,0.7-0.3,1.3-0.4,2c-0.1,0.5-0.2,1-0.4,1.5
		C157.1,57.3,156.9,57.8,156.5,58.3z M152.1,54.2c0.1-0.5,0.2-1,0.3-1.5l0.1-0.7h0c0-0.2,0.1-0.5,0.1-0.7c0.1-0.6,0.2-1.1,0.3-1.7
		c0-0.3,0-0.5-0.1-0.7s-0.3-0.2-0.6-0.2c-0.7,0-1.4,0-2.1,0c-0.2,0-0.4,0-0.4,0.1c-0.1,0.1-0.1,0.2-0.2,0.4
		c-0.1,0.2-0.1,0.5-0.1,0.7l-0.8,4.5c-0.1,0.3-0.1,0.5,0,0.6c0.1,0.1,0.3,0.1,0.5,0.1h1.8c0.4,0,0.6-0.1,0.8-0.2
		C152,54.9,152.1,54.6,152.1,54.2z"/>
	<path class="st0" d="M176.8,66.2c0,0.6-0.1,1.1-0.3,1.4c-0.3,0.3-0.7,0.4-1.4,0.4c-0.8,0-1.7,0-2.6,0c-0.5,0-0.8-0.1-1-0.3
		s-0.3-0.5-0.3-1c0-0.4-0.1-0.7-0.1-1.1c0-0.6-0.1-1.2-0.1-1.8c0-0.3-0.1-0.4-0.1-0.5s-0.2-0.1-0.5-0.1c-1.4,0-2.7,0-4.1,0
		c-0.2,0-0.3,0-0.4,0s-0.2,0.1-0.2,0.2c-0.1,0.1-0.1,0.2-0.2,0.4c-0.2,0.5-0.4,1-0.6,1.5c-0.2,0.5-0.4,0.9-0.6,1.4
		c-0.2,0.4-0.4,0.7-0.7,0.9s-0.6,0.3-1.1,0.3c-0.9,0-1.8,0-2.7,0c-0.2,0-0.4,0-0.6-0.1c-0.3-0.1-0.6-0.2-0.7-0.5
		c-0.1-0.2-0.1-0.5,0.1-0.9c0.3-0.6,0.5-1.2,0.8-1.8c0.1-0.3,0.2-0.6,0.4-0.9c1.6-3.8,3.2-7.5,4.8-11.3c0.4-0.9,0.8-1.9,1.2-2.8
		c0.8-1.8,1.6-3.7,2.3-5.5c0.2-0.4,0.4-0.7,0.6-0.9c0.2-0.2,0.6-0.3,1-0.3h4.3c0.4,0,0.7,0.1,0.9,0.2c0.2,0.2,0.3,0.4,0.3,0.8
		c0.2,1.7,0.3,3.5,0.4,5.2c0.1,1.1,0.1,2.1,0.2,3.2c0.1,1.5,0.2,3,0.4,4.5c0.1,1.2,0.2,2.5,0.3,3.7
		C176.5,62.7,176.6,64.4,176.8,66.2z M170,58c0.3,0,0.4-0.1,0.4-0.4c0,0,0-0.1,0-0.2c0-0.1,0-0.2,0-0.3c0-0.7-0.1-1.5-0.1-2.2
		c0-0.1,0-0.1,0-0.2c0-0.5-0.1-1.1-0.1-1.6c0,0,0,0,0-0.1c0,0,0,0,0-0.1c0,0,0,0-0.1,0c0,0,0,0,0,0c0,0-0.1,0.1-0.1,0.1
		c-0.2,0.5-0.4,1.1-0.7,1.6c-0.1,0.2-0.1,0.3-0.2,0.5c-0.3,0.7-0.6,1.5-0.9,2.2c-0.1,0.2-0.1,0.3,0,0.4s0.1,0.1,0.3,0.1H170z"/>
	<path class="st0" d="M204,44.8l-3.7,21.1c-0.1,0.3-0.1,0.6-0.2,0.9c-0.2,0.4-0.4,0.7-0.6,0.9c-0.2,0.2-0.6,0.3-1,0.3
		c-1,0-2.1,0-3.1,0c-0.5,0-0.8-0.2-0.9-0.4c-0.2-0.2-0.2-0.6-0.1-1.1l1.2-7.1c0-0.1,0-0.1,0-0.2c0,0,0-0.1,0-0.1
		c0,0-0.1,0.1-0.1,0.1s-0.1,0.1-0.1,0.2c-0.2,0.4-0.4,0.9-0.6,1.3c-0.1,0.2-0.1,0.4-0.2,0.6c-0.2,0.5-0.4,1-0.6,1.5
		c-0.6,1.4-1.1,2.7-1.7,4c-0.2,0.4-0.4,0.7-0.7,0.9c-0.3,0.2-0.6,0.3-1.1,0.3c-0.6,0-1.2,0-1.8,0c-0.2,0-0.4-0.1-0.6-0.1
		c-0.2-0.1-0.3-0.2-0.5-0.4c-0.1-0.2-0.2-0.4-0.2-0.7c-0.1-1.6-0.2-3.3-0.3-4.9c0-0.6-0.1-1.3-0.1-1.9l0-0.1c0-0.1,0-0.2,0-0.3
		c0-0.1-0.1-0.2-0.1-0.4c0,0,0-0.1,0-0.2c0,0.1-0.1,0.1-0.1,0.2c-0.1,0.1-0.1,0.2-0.1,0.4c-0.3,1.7-0.6,3.4-0.9,5.2l-0.3,1.5
		c-0.1,0.6-0.3,1.1-0.6,1.3c-0.3,0.3-0.8,0.4-1.4,0.4c-0.8,0-1.6,0-2.4,0c-0.3,0-0.5,0-0.8-0.1c-0.5-0.1-0.7-0.5-0.7-1l3.9-22.4
		c0.1-0.4,0.3-0.8,0.5-1s0.6-0.3,1-0.4c1.4,0,2.9,0,4.3,0c0.4,0,0.7,0.1,1,0.3s0.3,0.5,0.3,1c0.1,1.8,0.3,3.6,0.4,5.4
		c0.1,1.1,0.2,2.2,0.3,3.2c0.1,0.8,0.1,1.7,0.2,2.6v0c0,0.1,0,0.2,0.1,0.4c0,0,0,0,0,0c0,0,0,0,0.1,0c0,0,0,0,0,0c0,0,0,0,0,0
		c0,0,0,0,0,0c0.1-0.2,0.2-0.3,0.2-0.5c0.7-1.6,1.4-3.3,2.1-4.9c0.9-2.1,1.8-4.1,2.6-6.2c0.2-0.5,0.4-0.9,0.7-1.1
		c0.3-0.2,0.7-0.3,1.3-0.3h1.3c0.8,0,1.7,0,2.5,0c0.3,0,0.6,0,0.9,0.1s0.4,0.3,0.5,0.5C204.1,44,204.1,44.4,204,44.8z"/>
	<path class="st0" d="M208.8,66.5c0,0.2,0,0.3-0.1,0.5c-0.1,0.3-0.2,0.5-0.4,0.6c-0.2,0.2-0.4,0.3-0.7,0.4c-0.3,0.1-0.5,0.1-0.7,0.1
		h-3.2c-0.3,0-0.6-0.1-0.7-0.3s-0.2-0.4-0.2-0.8c0-0.2,0-0.5,0.1-0.7l3.8-21.6c0-0.1,0.1-0.3,0.1-0.4c0.1-0.4,0.3-0.7,0.5-0.9
		c0.3-0.2,0.6-0.3,1-0.3h3.1c0.5,0,0.9,0.1,1,0.4c0.2,0.2,0.2,0.6,0.1,1.1L208.8,66.5z"/>
	<path class="st0" d="M227.5,58.8c-0.1,0.4-0.1,0.7-0.2,1.1c-0.1,0.6-0.2,1.1-0.3,1.7c-0.1,0.6-0.2,1.1-0.3,1.7
		c-0.3,1.4-1,2.4-1.9,3.2c-0.9,0.8-2.1,1.3-3.4,1.3c-1.6,0.1-3.1,0.2-4.7,0.1c-0.6,0-1.1-0.1-1.7-0.2c-0.5-0.1-1.1-0.3-1.5-0.6
		c-0.5-0.3-0.9-0.8-1.1-1.3c-0.2-0.5-0.4-1.1-0.4-1.7c0-0.5,0-1,0.1-1.6c0.3-1.8,0.6-3.6,0.9-5.4l1.6-9.1c0.2-0.9,0.5-1.8,1.1-2.6
		c0.5-0.7,1.1-1.2,1.7-1.6c0.7-0.4,1.4-0.6,2.2-0.8c0.6-0.1,1.2-0.1,1.8-0.1h0.4c0.5,0,1,0,1.6,0c0.5,0,1,0,1.6,0
		c0.4,0,0.7,0,1.1,0.1s0.7,0.2,1,0.3c0.9,0.3,1.6,0.8,2,1.6c0.4,0.7,0.5,1.6,0.4,2.6c-0.1,0.6-0.1,1.2-0.2,1.8
		c-0.1,0.6-0.2,1.2-0.3,1.8c-0.1,0.3-0.1,0.7-0.2,1c-0.1,0.3-0.2,0.6-0.4,0.8c-0.2,0.2-0.5,0.3-0.9,0.3c-1.1,0-2.2,0-3.2,0
		c-0.4,0-0.7-0.1-0.8-0.4c-0.2-0.2-0.2-0.6-0.1-1c0.1-0.5,0.1-1,0.2-1.5l0.2-1.2c0-0.2,0-0.3-0.1-0.4s-0.2-0.2-0.3-0.2
		c-0.8,0-1.6,0-2.4,0c-0.2,0-0.3,0.1-0.4,0.2c-0.1,0.1-0.2,0.2-0.2,0.4L218,61.4c0,0.3-0.1,0.5,0,0.6c0,0.1,0.1,0.2,0.2,0.3
		c0.1,0,0.3,0.1,0.6,0.1h1.7c0.3,0,0.5,0,0.6-0.1c0.1,0,0.2-0.1,0.3-0.3c0.1-0.1,0.1-0.3,0.1-0.6l0.4-2.2c0-0.2,0.1-0.4,0.2-0.6
		c0.1-0.3,0.3-0.5,0.5-0.7c0.2-0.2,0.5-0.3,0.8-0.3c1.1,0,2.2,0,3.3,0c0.3,0,0.6,0.1,0.7,0.3C227.5,58.2,227.5,58.4,227.5,58.8z"/>
	<path class="st0" d="M245.2,57.6c-0.3,1.7-0.6,3.4-0.9,5c-0.2,0.7-0.4,1.4-0.7,2.1c-0.5,1-1.1,1.7-1.9,2.2s-1.7,0.8-2.7,0.9
		c-0.8,0.1-1.5,0.1-2.2,0.1c-0.7,0-1.5,0-2.2,0h-0.4c-0.6,0-1.3-0.1-1.9-0.3c-0.9-0.3-1.7-0.8-2.2-1.5c-0.5-0.7-0.7-1.6-0.6-2.6
		c0.1-1,0.2-2,0.4-2.9c0.7-3.9,1.4-7.7,2.1-11.6c0.1-0.7,0.3-1.5,0.6-2.2c0.4-1,1-1.8,1.8-2.5c0.8-0.6,1.8-1,3-1.2
		c2.1-0.2,4.2-0.2,6.3,0c0.7,0.1,1.3,0.3,1.8,0.7c0.5,0.4,0.9,0.8,1.1,1.4c0.3,0.6,0.4,1.2,0.4,1.9c0,0.6-0.1,1.2-0.2,1.9
		L245.2,57.6z M238.2,62.3c0.2,0,0.3,0,0.4-0.1c0.1-0.1,0.2-0.2,0.2-0.4c0-0.2,0.1-0.3,0.1-0.5l2-11.5c0.1-0.4,0-0.7-0.1-0.8
		c-0.1-0.1-0.4-0.2-0.7-0.2c-0.5,0-1.1,0-1.6,0c-0.4,0-0.6,0.1-0.8,0.2c-0.2,0.1-0.3,0.4-0.3,0.7l-2,11.4c0,0.2-0.1,0.4-0.1,0.6
		c0,0.2,0,0.3,0.1,0.4s0.2,0.1,0.4,0.1C236.7,62.3,237.4,62.3,238.2,62.3z"/>
	<path class="st0" d="M262.2,60.5c-0.1,0.7-0.2,1.5-0.4,2.2c-0.2,0.8-0.4,1.5-0.7,2.2c-0.5,0.9-1.1,1.7-1.9,2.2
		c-0.8,0.5-1.6,0.8-2.6,0.9c-0.8,0.1-1.7,0.1-2.5,0.1c-0.8,0-1.6,0-2.4,0c-0.7,0-1.4-0.1-2.1-0.4c-0.9-0.3-1.6-0.8-2-1.5
		c-0.5-0.7-0.7-1.6-0.6-2.5c0.1-0.8,0.2-1.5,0.3-2.3c0-0.2,0-0.4,0.1-0.6c0-0.2,0.1-0.4,0.2-0.6c0.2-0.3,0.3-0.6,0.5-0.8
		c0.2-0.2,0.5-0.2,0.9-0.2c1.1,0,2.2,0,3.3,0c0.4,0,0.7,0.1,0.9,0.3c0.2,0.2,0.2,0.5,0.1,0.9c0,0.2,0,0.4-0.1,0.6l-0.1,0.6
		c-0.1,0.3-0.1,0.5,0,0.6c0.1,0.1,0.3,0.2,0.5,0.2c0.6,0,1.2,0,1.7,0c0.3,0,0.4,0,0.6-0.1s0.2-0.3,0.2-0.5c0.2-0.8,0.3-1.6,0.4-2.4
		c0-0.2,0-0.4,0-0.5c0-0.1-0.2-0.2-0.4-0.2c-0.8-0.3-1.6-0.5-2.4-0.8c-0.5-0.2-1-0.3-1.5-0.5c-0.9-0.3-1.7-0.6-2.6-0.9
		c-0.6-0.2-0.9-0.5-1.1-0.8c-0.2-0.3-0.2-0.8-0.1-1.3c0.3-1.9,0.6-3.8,1-5.7c0.2-0.8,0.4-1.5,0.8-2.3c0.4-0.9,1-1.6,1.8-2.1
		c0.7-0.5,1.6-0.8,2.5-1c0.4-0.1,0.9-0.1,1.3-0.1c0.4,0,0.9,0,1.3,0h0.2c0.6,0,1.2,0,1.8,0s1.2,0,1.8,0.1c1.1,0.1,1.9,0.5,2.5,1.2
		s0.9,1.6,1,2.7c0,0.5,0,1-0.1,1.6c-0.1,0.5-0.2,1-0.3,1.5c0,0.3-0.1,0.6-0.2,0.8c0,0.3-0.2,0.5-0.4,0.7c-0.2,0.2-0.5,0.3-0.8,0.3
		c-1.2,0-2.5,0-3.7,0c-0.3,0-0.6-0.1-0.7-0.3s-0.2-0.5-0.2-0.8l0.2-1.4c0.1-0.3,0-0.5,0-0.6c-0.1-0.1-0.3-0.1-0.6-0.1
		c-0.6,0-1.2,0-1.7,0c-0.3,0-0.5,0.1-0.6,0.2c-0.1,0.1-0.2,0.3-0.2,0.5c-0.1,0.6-0.2,1.2-0.3,1.8c0,0.2-0.1,0.3,0,0.4
		c0,0.1,0,0.2,0.1,0.2c0.1,0,0.2,0.1,0.4,0.2c1.1,0.4,2.2,0.8,3.3,1.1c0.2,0.1,0.4,0.1,0.5,0.2c0.2,0.1,0.4,0.1,0.5,0.2
		c0.6,0.2,1.3,0.4,1.9,0.6c0.6,0.2,1,0.4,1.2,0.8c0.2,0.4,0.2,0.9,0.1,1.5c-0.2,0.7-0.3,1.4-0.4,2.1L262.2,60.5z"/>
</g>
<g>
	<path class="st0" d="M177.4,33.8l-3.9,4.6h-2l2.8-4.6H177.4z"/>
</g>
</svg>
