<?xml version="1.0" encoding="utf-8"?>
<!-- Generator: Adobe Illustrator 19.2.0, SVG Export Plug-In . SVG Version: 6.00 Build 0)  -->
<svg version="1.1" id="Capa_1" xmlns="http://www.w3.org/2000/svg" xmlns:xlink="http://www.w3.org/1999/xlink" x="0px" y="0px"
	 viewBox="0 0 287.3 98.7" style="enable-background:new 0 0 287.3 98.7;" xml:space="preserve">
<style type="text/css">
	.st0{fill:#FFFFFF;}
	.st1{fill:url(#SVGID_1_);stroke:url(#SVGID_2_);stroke-miterlimit:10;}
	.st2{enable-background:new    ;}
	.st3{opacity:0.38;}
</style>
<g>
	<path class="st0" d="M93.6,99.2H6.7c-3.9,0-6.6-3.9-5.3-7.6L38.9,4.2c0.8-2.2,2.9-3.7,5.3-3.7h86.5c4.3,0,7.2,4.3,5.8,8.3l-37,86.4
		C98.5,97.6,96.2,99.2,93.6,99.2z"/>
	
		<linearGradient id="SVGID_1_" gradientUnits="userSpaceOnUse" x1="31.2699" y1="47.1" x2="286.3555" y2="47.1" gradientTransform="matrix(1 0 0 -1 0 100)">
		<stop  offset="0" style="stop-color:#006CCE"/>
		<stop  offset="1" style="stop-color:#108CFF"/>
	</linearGradient>
	
		<linearGradient id="SVGID_2_" gradientUnits="userSpaceOnUse" x1="30.7699" y1="47.1" x2="286.8555" y2="47.1" gradientTransform="matrix(1 0 0 -1 0 100)">
		<stop  offset="0" style="stop-color:#006CCE"/>
		<stop  offset="1" style="stop-color:#108CFF"/>
	</linearGradient>
	<path class="st1" d="M252.9,90.3h-216c-3.9,0-6.6-3.9-5.3-7.6l27.6-63.5c0.8-2.2,2.9-3.7,5.3-3.7h215.7c4.3,0,7.2,4.3,5.8,8.3
		l-27.2,62.4C257.8,88.7,255.5,90.3,252.9,90.3z"/>
	<g>
		<g class="st2">
			<path class="st0" d="M176.3,66.3c0,0.6-0.1,1.1-0.3,1.4c-0.3,0.3-0.7,0.4-1.4,0.4c-0.8,0-1.7,0-2.6,0c-0.5,0-0.8-0.1-1-0.3
				c-0.2-0.2-0.3-0.5-0.3-1c0-0.4-0.1-0.7-0.1-1.1c0-0.6-0.1-1.2-0.1-1.8c0-0.3-0.1-0.4-0.1-0.5s-0.2-0.1-0.5-0.1
				c-1.4,0-2.7,0-4.1,0c-0.2,0-0.3,0-0.4,0s-0.2,0.1-0.2,0.2c-0.1,0.1-0.1,0.2-0.2,0.4c-0.2,0.5-0.4,1-0.6,1.5
				c-0.2,0.5-0.4,0.9-0.6,1.4c-0.2,0.4-0.4,0.7-0.7,0.9c-0.3,0.2-0.6,0.3-1,0.3c-0.9,0-1.8,0-2.7,0c-0.2,0-0.4,0-0.6-0.1
				c-0.3-0.1-0.6-0.2-0.7-0.5c-0.1-0.2-0.1-0.5,0.1-0.9c0.3-0.6,0.5-1.2,0.8-1.8c0.1-0.3,0.2-0.6,0.4-0.9c1.6-3.8,3.2-7.5,4.8-11.3
				c0.4-0.9,0.8-1.9,1.2-2.8c0.8-1.8,1.6-3.7,2.3-5.5c0.2-0.4,0.4-0.7,0.6-0.9c0.2-0.2,0.6-0.3,1-0.3h4.3c0.4,0,0.7,0.1,0.9,0.2
				c0.2,0.2,0.3,0.4,0.3,0.8c0.2,1.7,0.3,3.5,0.4,5.2c0.1,1.1,0.1,2.1,0.2,3.2c0.1,1.5,0.2,3,0.4,4.5c0.1,1.2,0.2,2.5,0.3,3.7
				C176,62.7,176.2,64.5,176.3,66.3z M169.5,58.1c0.3,0,0.4-0.1,0.4-0.4c0,0,0-0.1,0-0.2c0-0.1,0-0.2,0-0.3c0-0.7-0.1-1.5-0.1-2.2
				c0-0.1,0-0.1,0-0.2c0-0.5-0.1-1.1-0.1-1.6c0,0,0,0,0-0.1c0,0,0,0,0-0.1c0,0,0,0-0.1,0c0,0,0,0,0,0c0,0-0.1,0.1-0.1,0.1
				c-0.2,0.5-0.4,1.1-0.7,1.6c-0.1,0.2-0.1,0.3-0.2,0.5c-0.3,0.7-0.6,1.5-0.9,2.2c-0.1,0.2-0.1,0.3,0,0.4s0.1,0.1,0.3,0.1H169.5z"/>
			<path class="st0" d="M194.9,56.2c-0.4,2.2-0.7,4.3-1.1,6.5c-0.2,0.7-0.4,1.5-0.8,2.2c-0.5,0.9-1.1,1.7-1.9,2.2
				c-0.8,0.5-1.7,0.8-2.7,0.9c-0.8,0.1-1.5,0.1-2.3,0.1c-0.8,0-1.5,0-2.3,0h-0.3c-0.7,0-1.3-0.1-1.9-0.3c-0.9-0.3-1.7-0.8-2.1-1.5
				c-0.5-0.7-0.7-1.6-0.6-2.6c0.1-1,0.3-2.1,0.4-3.1l2.7-15.4c0.1-0.3,0.2-0.6,0.3-1c0.1-0.3,0.3-0.5,0.5-0.7
				c0.2-0.2,0.5-0.3,0.8-0.3c1.1,0,2.2,0,3.3,0c0.4,0,0.7,0.2,0.9,0.4c0.2,0.2,0.3,0.6,0.2,1l-2.9,16.5c-0.1,0.4-0.1,0.7-0.1,0.8
				c0,0.2,0.1,0.3,0.3,0.3c0.2,0,0.4,0.1,0.8,0h0.3c0.3,0,0.6,0,0.9,0c0.2,0,0.4,0,0.5-0.1c0.1-0.1,0.2-0.2,0.2-0.4l2.9-16.5
				c0.1-0.3,0.2-0.6,0.3-0.9c0.1-0.3,0.3-0.6,0.6-0.7c0.2-0.2,0.5-0.3,0.9-0.3c1,0,2.1,0,3.1,0c0.4,0,0.7,0.2,0.9,0.4
				c0.2,0.2,0.3,0.6,0.2,1L194.9,56.2z"/>
			<path class="st0" d="M213.4,44.4c-0.1,1.1-0.3,2.2-0.6,3.4c-0.1,0.4-0.2,0.7-0.5,0.9c-0.3,0.2-0.6,0.3-1,0.3h-2.4
				c-0.3,0-0.5,0-0.6,0.1s-0.2,0.2-0.2,0.5l-2.9,16.7c-0.1,0.5-0.2,0.8-0.4,1.1c-0.2,0.3-0.4,0.5-0.6,0.5c-0.3,0.1-0.6,0.1-1.1,0.1
				h-2.6c-0.2,0-0.5,0-0.7-0.1c-0.5-0.2-0.7-0.5-0.7-1.1l3-17.3c0-0.3,0-0.4,0-0.5c0-0.1-0.2-0.1-0.5-0.1h-2.3c-0.2,0-0.3,0-0.4,0
				c-0.8-0.1-1.1-0.5-1-1.3l0.5-3.2c0.2-0.9,0.7-1.3,1.6-1.3h12.1c0.4,0,0.7,0.1,0.9,0.3C213.4,43.7,213.5,44,213.4,44.4z"/>
			<path class="st0" d="M227.6,57.6c-0.3,1.7-0.6,3.4-0.9,5c-0.2,0.7-0.4,1.4-0.7,2.1c-0.5,1-1.1,1.7-1.9,2.2
				c-0.8,0.5-1.7,0.8-2.7,0.9c-0.8,0.1-1.5,0.1-2.2,0.1c-0.7,0-1.5,0-2.2,0h-0.4c-0.6,0-1.3-0.1-1.9-0.3c-0.9-0.3-1.7-0.8-2.2-1.5
				c-0.5-0.7-0.7-1.6-0.6-2.6c0.1-1,0.2-1.9,0.4-2.9c0.7-3.9,1.4-7.7,2.1-11.6c0.1-0.7,0.3-1.5,0.6-2.2c0.4-1,1-1.8,1.8-2.5
				c0.8-0.6,1.8-1,3-1.2c2.1-0.2,4.2-0.2,6.3,0c0.7,0.1,1.3,0.3,1.8,0.7s0.9,0.8,1.1,1.4c0.3,0.6,0.4,1.2,0.4,1.9
				c0,0.6-0.1,1.2-0.2,1.9L227.6,57.6z M220.6,62.3c0.2,0,0.3,0,0.4-0.1s0.2-0.2,0.2-0.4c0-0.2,0.1-0.3,0.1-0.5l2-11.5
				c0.1-0.4,0-0.7-0.1-0.8c-0.1-0.1-0.4-0.2-0.7-0.2c-0.5,0-1.1,0-1.6,0c-0.4,0-0.6,0.1-0.8,0.2c-0.2,0.1-0.3,0.4-0.3,0.7l-2,11.4
				c0,0.2-0.1,0.4-0.1,0.6c0,0.2,0,0.3,0.1,0.4s0.2,0.1,0.4,0.1C219.1,62.4,219.8,62.4,220.6,62.3z"/>
		</g>
	</g>
	<g>
		<g class="st3">
			<g>
				<g>
					<path d="M74.5,60.3c-0.9,0-1.7,0.8-1.7,1.7s0.8,1.7,1.7,1.7c0.9,0,1.7-0.8,1.7-1.7S75.5,60.3,74.5,60.3z"/>
					<path d="M119.5,47.4l-11.9-4.8c-2-0.8-4.1-1.2-6.2-1.2h-7.3c-2.6,0-5.2,0.6-7.5,1.8l-10.8,5.5l-7.7,1.1
						c-1.9,0.3-3.6,1.2-4.8,2.6c-1.2,1.4-1.9,3.3-1.9,5.1v4.6c0,0.7,0.6,1.3,1.3,1.3h5.5c0.3,1.2,0.9,2.4,1.8,3.3
						c1.2,1.2,2.9,1.9,4.6,1.9s3.3-0.7,4.6-1.9c0.9-0.9,1.6-2,1.8-3.3h22.8c0.3,1.2,0.9,2.4,1.8,3.3c1.2,1.2,2.9,1.9,4.6,1.9
						s3.3-0.7,4.6-1.9c0.9-0.9,1.6-2,1.8-3.3h5.8c0.7,0,1.3-0.6,1.3-1.3v-8.5C123.7,50.9,122.1,48.4,119.5,47.4z M106.7,45l9.2,3.7
						H109l-3-4C106.1,44.8,106.4,44.9,106.7,45z M95.3,44h6.1c0.2,0,0.5,0,0.7,0l3.6,4.7H95.3V44z M87.8,45.5c1.6-0.8,3.3-1.3,5-1.5
						v4.6H81.6L87.8,45.5z M68.3,52.4c-0.5,1.8-2.1,3.1-4,3.3C65,54,66.5,52.7,68.3,52.4z M74.5,66c-2.2,0-4-1.8-4-4s1.8-4,4-4
						s4,1.8,4,4C78.6,64.2,76.8,66,74.5,66z M110.2,66c-2.2,0-4-1.8-4-4s1.8-4,4-4s4,1.8,4,4C114.2,64.2,112.4,66,110.2,66z
						 M121.2,60.9h-4.5c-0.5-3.1-3.2-5.4-6.5-5.4c-3.2,0-5.9,2.4-6.5,5.4H81c-0.5-3.1-3.2-5.4-6.5-5.4c-3.2,0-5.9,2.4-6.5,5.4h-4.1
						v-2.7c3.6,0,6.6-2.8,7-6.3l5.4-0.8h32l0,0l0,0h8.1v1.7c0,2.3,1.9,4.2,4.2,4.2h0.6V60.9L121.2,60.9z M121.2,54.6h-0.6
						c-0.9,0-1.7-0.8-1.7-1.7v-1.7h1.5c0.5,0.7,0.8,1.5,0.8,2.4L121.2,54.6L121.2,54.6z"/>
					<path d="M110.2,60.3c-0.9,0-1.7,0.8-1.7,1.7s0.8,1.7,1.7,1.7c0.9,0,1.7-0.8,1.7-1.7S111.1,60.3,110.2,60.3z"/>
				</g>
			</g>
		</g>
		<g class="st3">
			<g>
				<path d="M96.7,54.8h-8.5c-0.7,0-1.3,0.6-1.3,1.3s0.6,1.3,1.3,1.3h8.5c0.7,0,1.3-0.6,1.3-1.3C98,55.4,97.4,54.8,96.7,54.8z"/>
			</g>
		</g>
	</g>
</g>
</svg>
