<?xml version="1.0" encoding="utf-8"?>
<!-- Generator: Adobe Illustrator 19.2.0, SVG Export Plug-In . SVG Version: 6.00 Build 0)  -->
<svg version="1.1" id="Capa_1" xmlns="http://www.w3.org/2000/svg" xmlns:xlink="http://www.w3.org/1999/xlink" x="0px" y="0px"
	 viewBox="0 0 149.7 98.7" style="enable-background:new 0 0 149.7 98.7;" xml:space="preserve">
<style type="text/css">
	.st0{fill:url(#SVGID_1_);stroke:url(#SVGID_2_);stroke-miterlimit:10;}
	.st1{fill:#FFFFFF;}
</style>
<linearGradient id="SVGID_1_" gradientUnits="userSpaceOnUse" x1="16.5993" y1="50.3523" x2="134.2653" y2="50.3523">
	<stop  offset="0" style="stop-color:#006CCE"/>
	<stop  offset="1" style="stop-color:#108CFF"/>
</linearGradient>
<linearGradient id="SVGID_2_" gradientUnits="userSpaceOnUse" x1="16.0993" y1="50.3523" x2="134.7653" y2="50.3523">
	<stop  offset="0" style="stop-color:#006CCE"/>
	<stop  offset="1" style="stop-color:#108CFF"/>
</linearGradient>
<path class="st0" d="M101,87.7H22.2c-3.9,0-6.6-3.9-5.3-7.6l27.6-63.5c0.8-2.2,2.9-3.7,5.3-3.7h78.3c4.3,0,7.2,4.3,5.8,8.3
	l-27.2,62.4C105.8,86.1,103.5,87.7,101,87.7z"/>
<g>
	<path class="st1" d="M66.5,38.1V26L46.4,46l20.1,20.1v-12c0,0,17.6-4.4,29.7,16c0,0,3-15.5-10.5-26.8
		C85.7,43.3,79.7,37.7,66.5,38.1z"/>
	<path class="st1" d="M96.7,72.9l-1.3-2.3C85.2,53.4,71,54.4,67.5,54.9v13.6L45,46l22.5-22.4v13.4c12.7-0.1,18.6,5.3,18.9,5.5
		C100.2,54,97.2,70.1,97.2,70.3L96.7,72.9z M70.6,52.7c5.8,0,16.3,1.9,24.9,14.4c0.1-4.9-0.9-15.1-10.4-23c-0.1-0.1-6-5.4-18.5-5
		l-1,0V28.4L47.8,46l17.7,17.7V53.3l0.8-0.2C66.4,53.1,68,52.7,70.6,52.7z"/>
</g>
</svg>
