<?xml version="1.0" encoding="utf-8"?>
<!-- Generator: Adobe Illustrator 19.2.0, SVG Export Plug-In . SVG Version: 6.00 Build 0)  -->
<svg version="1.1" id="Capa_1" xmlns="http://www.w3.org/2000/svg" xmlns:xlink="http://www.w3.org/1999/xlink" x="0px" y="0px"
	 viewBox="0 0 764.7 115.6" style="enable-background:new 0 0 764.7 115.6;" xml:space="preserve">
<style type="text/css">
	.st0{fill:#FFFFFF;}
</style>
<g>
	<path class="st0" d="M57.8,20.1l-8.3,10.4c-2.6-2.4-6.3-3.9-11.3-3.8c-3.9,0.1-7,1.3-6.9,4.2c0,1.9,1.6,3,7.7,4.2
		c11.9,2.1,15.7,7.3,15.8,14.5c0.2,13.4-11.1,19.1-22.6,19.3c-9.4,0.2-16.1-2.7-20.7-7.4l8.3-10.5c2.8,3.7,8.5,5.6,13.3,5.5
		c4.9-0.1,7.8-1.6,7.8-4.4c0-2-1.6-3.1-7.9-4.3c-11.9-2.2-15.2-8-15.3-14.4c-0.2-10.7,8.5-18.9,21.1-19.1
		C47.3,14.1,53.9,16.7,57.8,20.1z"/>
	<path class="st0" d="M71.2,67.2l-13.1,0.2l5.7-36.6L77,30.6L71.2,67.2z M79.8,18.1c0.1,4.7-4,8.6-8.4,8.7c-4.1,0.1-6.5-2.2-6.5-6
		c-0.1-4.7,3.9-8.6,8.5-8.7C77.3,11.9,79.7,14.3,79.8,18.1z"/>
	<path class="st0" d="M108.6,33.9l1.4-3.8l11.7-0.2L116,65.6c-1.9,11.5-10.3,18.2-22.4,18.4c-9.3,0.2-14.1-3.3-17.9-8.3l9.1-8.1
		c2,2.8,4.7,5.1,9.4,5c4.8-0.1,8.2-3.5,8.8-7.6l0.4-2.7c-1.7,1.7-4.7,3.7-9.7,3.7c-8.2,0.1-13-6.2-13.2-14.9
		c-0.2-10.4,6.9-21.5,19-21.7C104.3,29.4,107.3,31.3,108.6,33.9z M93.8,49.4c0.1,3.3,2,5.3,5.1,5.2c2.8,0,4.8-1.6,6.2-3.5l1.2-7.5
		c-0.9-1.5-2.6-2.8-5.3-2.8C96.7,40.9,93.7,44.7,93.8,49.4z"/>
	<path class="st0" d="M159.2,65.7l-11.7,0.2l-0.1-3.6c-1.5,1.8-4.9,4.4-9.7,4.5c-9.2,0.2-12.8-6.9-11.3-16.8l3.2-20.2l13.2-0.2
		l-3.2,20c-0.5,2.9,0.7,4.9,3.3,4.9c2.6,0,4.5-1.7,5.5-3.2l3.4-21.8l13.2-0.2L159.2,65.7z"/>
	<path class="st0" d="M204.6,46.1l-0.6,3.7l-23.1,0.4c0,3,2,5.1,5.4,5.1c2.7,0,5.3-1.4,7-3.2l8.4,7.4c-4.7,4.5-10,6.3-16.9,6.4
		c-10.4,0.2-16.8-6.4-16.9-15.7c-0.2-11.4,8.8-22,21.1-22.2C200.8,27.8,206.2,36.2,204.6,46.1z M182.1,42.9l10.2-0.2
		c0.7-3-0.5-5.4-3.7-5.4C185,37.4,182.6,39.9,182.1,42.9z"/>
	<path class="st0" d="M246.5,44.1l-3.2,20.2l-13.2,0.2l3.2-20c0.5-2.9-0.7-4.9-3.4-4.9c-2.6,0-4.5,1.7-5.5,3.2l-3.4,21.8l-13.2,0.2
		l5.8-36.6l11.7-0.2l0.1,3.6c1.5-1.8,4.9-4.4,9.7-4.5C244.3,27.1,248,34.2,246.5,44.1z"/>
	<path class="st0" d="M291.2,42.8c0.2,12.3-10.4,21.6-22.9,21.8c-10.1,0.2-16.7-6.9-16.9-16.2c-0.2-12.3,10.4-21.6,22.9-21.8
		C284.4,26.4,291.1,33.4,291.2,42.8z M264.9,47.3c0.1,3.5,2.1,5.9,5.2,5.8c4.1-0.1,7.7-4.3,7.6-9.4c-0.1-3.5-2.1-5.9-5.2-5.8
		C268.5,38,264.8,42.2,264.9,47.3z"/>
	<path class="st0" d="M326.5,29.6l-5.6,8.8c-1.6-1.6-4.4-2.8-7.9-2.7c-2.2,0-3.7,0.8-3.7,2.2c0,1,1,1.7,5.3,2.8
		c6.5,1.6,8.9,4.4,9,9.6c0.1,8-7.8,13.5-18.1,13.7c-6.1,0.1-11-1.7-13.6-4.4l5.6-8.7c1.9,1.9,4.9,3.4,8.9,3.4c1.5,0,4.1-0.4,4-2.4
		c0-1-0.9-1.9-4.6-2.8c-6.6-1.6-9.8-4.1-9.9-9c-0.1-8,7.2-13.9,17.9-14C319.3,25.8,324.1,27.4,326.5,29.6z"/>
	<path class="st0" d="M381.1,43.1l-0.6,3.7l-23.1,0.4c0,3,2,5.1,5.4,5.1c2.7,0,5.3-1.4,7-3.2l8.4,7.4c-4.7,4.5-10,6.3-16.9,6.4
		c-10.4,0.2-16.8-6.4-16.9-15.7c-0.2-11.4,8.8-22,21.1-22.2C377.3,24.8,382.7,33.2,381.1,43.1z M358.6,39.9l10.2-0.2
		c0.7-3-0.5-5.4-3.7-5.4C361.5,34.4,359.1,36.9,358.6,39.9z"/>
	<path class="st0" d="M423,41.1l-3.2,20.2l-13.2,0.2l3.2-20c0.5-2.9-0.7-4.9-3.4-4.9c-2.6,0-4.5,1.7-5.5,3.2l-3.4,21.8l-13.2,0.2
		l5.8-36.6l11.7-0.2l0.1,3.6c1.5-1.8,4.9-4.4,9.7-4.5C420.9,24.1,424.5,31.2,423,41.1z"/>
	<path class="st0" d="M487.2,61.1l-0.3,0l-25.3-26.2l-4.1,25.8l-13.6,0.2l8.5-53.6l0.3,0l25.5,26.2l4-25.7l13.6-0.2L487.2,61.1z"/>
	<path class="st0" d="M531.4,59.4l-11.7,0.2l-0.1-3.6c-1.5,1.8-4.9,4.4-9.7,4.5c-9.2,0.2-12.8-6.9-11.3-16.8l3.2-20.2l13.2-0.2
		l-3.2,20c-0.4,2.9,0.7,4.9,3.3,4.9c2.6,0,4.5-1.7,5.5-3.2l3.4-21.8l13.2-0.2L531.4,59.4z"/>
	<path class="st0" d="M576.9,39.8l-0.6,3.7l-23.1,0.4c0,3,2,5.1,5.4,5.1c2.7,0,5.3-1.4,7-3.2l8.3,7.4c-4.7,4.5-10,6.3-16.9,6.4
		c-10.4,0.2-16.8-6.4-16.9-15.7c-0.2-11.4,8.8-22,21.2-22.2C573.1,21.5,578.5,29.9,576.9,39.8z M554.4,36.6l10.2-0.2
		c0.7-3-0.5-5.4-3.7-5.4C557.3,31.1,554.9,33.6,554.4,36.6z"/>
	<path class="st0" d="M612.7,24.8l-5.6,8.8c-1.6-1.6-4.4-2.8-7.9-2.7c-2.2,0-3.7,0.8-3.7,2.2c0,1,1,1.7,5.3,2.8
		c6.5,1.6,8.9,4.4,9,9.6c0.1,8-7.8,13.5-18.1,13.7c-6.1,0.1-11-1.7-13.6-4.4l5.6-8.7c1.9,1.9,4.9,3.4,8.9,3.4c1.5,0,4.1-0.4,4-2.4
		c0-1-0.9-1.9-4.6-2.8c-6.6-1.6-9.8-4.1-9.9-9c-0.1-8,7.2-13.9,17.9-14C605.5,21,610.3,22.5,612.7,24.8z"/>
	<path class="st0" d="M635.7,21.2l9.7-0.2l-1.8,11l-9.7,0.2l-1.6,10.4c-0.4,2.6,0.9,4.1,3.4,4c1.9,0,3.3-0.6,4.4-1.1l1.6,10.6
		c-2,1.2-5.4,2.2-9.2,2.2c-8.5,0.1-14.9-6-13.4-15.9l1.5-10.1l-6.1,0.1l1.8-11l6.2-0.1l1.9-12l13.2-0.2L635.7,21.2z"/>
	<path class="st0" d="M672.7,32.8l-1.1,0c-4.1,0.1-7,1.9-9.1,4l-3.2,20.4l-13.2,0.2l5.8-36.6l11.7-0.2l0,4.6c2.3-3,6.3-5.5,11.1-5.6
		L672.7,32.8z"/>
	<path class="st0" d="M703,23.8l1.3-3.8l11.7-0.2l-5.7,36.6l-11.7,0.2l-0.1-3.7c-2.1,2.5-5.8,4.5-10.7,4.6
		c-8.2,0.1-12.9-6.5-13.1-15.2c-0.2-11.5,6.7-22.6,19.1-22.8C698.7,19.4,701.7,21.3,703,23.8z M688.1,40.4c0.1,3.6,1.9,5.7,5,5.6
		c2.8,0,4.8-1.6,6.2-3.5l1.5-9c-0.9-1.4-2.5-2.7-5.3-2.7C690.8,30.9,688,35.3,688.1,40.4z"/>
	<path class="st0" d="M751.2,22.4l-5.6,8.8c-1.6-1.6-4.4-2.8-7.9-2.7c-2.2,0-3.7,0.8-3.7,2.2c0,1,1,1.7,5.3,2.8
		c6.5,1.6,8.9,4.4,9,9.6c0.1,8-7.8,13.5-18.1,13.7c-6.1,0.1-11-1.7-13.6-4.4l5.6-8.7c1.9,1.9,4.9,3.4,8.9,3.4c1.5,0,4.1-0.4,4-2.4
		c0-1-0.9-1.9-4.6-2.8c-6.6-1.6-9.8-4.1-9.9-9c-0.1-8,7.2-13.9,17.9-14C744,18.6,748.8,20.2,751.2,22.4z"/>
</g>
<g>
	<path class="st0" d="M434.9,82.3c0,4.5-2.7,8-6.5,9.7l4.4,10.8h-8l-3.8-9.6h-3.4l-1.7,9.6h-7.5l5.1-29h12
		C430.6,73.8,434.9,77.2,434.9,82.3z M419.8,80.2l-1.2,6.5h4.5c2.1,0,4.1-1.4,4.1-3.9c0-1.7-1.1-2.6-2.9-2.6H419.8z"/>
	<path class="st0" d="M458.7,80.6h-11.8l-0.8,4.3h10.1l-1.1,6.3H445l-0.8,4.7h12.1l-1.2,6.8h-19.6l5.1-29h19.3L458.7,80.6z"/>
	<path class="st0" d="M487.7,86.7c0,10-8,16.1-18.8,16.1h-9.5l5.1-29h8.6C481.9,73.8,487.7,78.8,487.7,86.7z M470.7,80.7L468,96h1.8
		c5.6,0,10.2-3.2,10.2-9.3c0-3.9-2.4-6-7.5-6H470.7z"/>
	<path class="st0" d="M511.9,80.6h-11.8l-0.8,4.3h10.1l-1.1,6.3h-10.1l-0.8,4.7h12.1l-1.2,6.8h-19.6l5.1-29H513L511.9,80.6z"/>
	<path class="st0" d="M536.7,76.7l-4.7,5.6c-1.4-1.3-3.4-2.2-6.2-2.2c-2.1,0-3.9,0.7-3.9,2.2c0,1.1,0.9,1.7,4.2,2.4
		c6.5,1.3,8.6,4.2,8.6,8.1c0,7.4-6.3,10.5-12.7,10.5c-5.2,0-8.9-1.7-11.4-4.3l4.7-5.7c1.5,2.1,4.7,3.2,7.3,3.2
		c2.7,0,4.3-0.8,4.3-2.3c0-1.1-0.9-1.7-4.3-2.4c-6.6-1.3-8.3-4.5-8.3-8.1c0-5.9,4.9-10.3,11.8-10.3C531,73.3,534.5,74.8,536.7,76.7z
		"/>
	<path class="st0" d="M569.6,76.7l-4.7,5.6c-1.4-1.3-3.4-2.2-6.2-2.2c-2.1,0-3.9,0.7-3.9,2.2c0,1.1,0.9,1.7,4.2,2.4
		c6.5,1.3,8.6,4.2,8.6,8.1c0,7.4-6.3,10.5-12.7,10.5c-5.2,0-8.9-1.7-11.4-4.3l4.7-5.7c1.5,2.1,4.7,3.2,7.3,3.2
		c2.7,0,4.3-0.8,4.3-2.3c0-1.1-0.9-1.7-4.3-2.4c-6.6-1.3-8.3-4.5-8.3-8.1c0-5.9,4.9-10.3,11.8-10.3
		C563.9,73.3,567.5,74.8,569.6,76.7z"/>
	<path class="st0" d="M601,86.2c0,9.4-8.2,17.1-18,17.1c-7.7,0-12.6-5.4-12.6-12.9c0-9.4,8.2-17.1,18-17.1
		C596.1,73.3,601,78.7,601,86.2z M578.1,90.1c0,4,2.4,6.4,6.2,6.4c5.1,0,9.1-4.7,9.1-9.9c0-4-2.4-6.4-6.2-6.4
		C582.1,80.1,578.1,84.9,578.1,90.1z"/>
	<path class="st0" d="M630.9,78l-5.2,5c-1-1.7-2.9-2.9-5.6-2.9c-5.8,0-9.1,3.8-9.1,10.1c0,3.9,2.5,6.2,6,6.2c2.6,0,4.8-0.9,6.7-2.8
		l4,6c-3.3,2.8-6.9,3.7-11.2,3.7c-8.2,0-13.2-5-13.2-12.7c0-9.3,7.5-17.4,17.2-17.4C625.7,73.3,628.4,75,630.9,78z"/>
	<path class="st0" d="M637.1,102.8h-7.5l5.1-29h7.5L637.1,102.8z"/>
	<path class="st0" d="M668.8,102.8h-8.1l-0.7-3.4h-9.7l-2,3.4h-8.6l19.7-29.5h0.2L668.8,102.8z M653.5,93.8h5.3l-1.4-6.8L653.5,93.8
		z"/>
	<path class="st0" d="M680.4,96.2h11.3l-1.1,6.6h-18.8l5.1-29h7.5L680.4,96.2z"/>
	<path class="st0" d="M716.5,80.6h-11.8l-0.8,4.3h10.1l-1.1,6.3h-10.1L702,96h12.1l-1.2,6.8h-19.6l5.1-29h19.3L716.5,80.6z"/>
	<path class="st0" d="M741.4,76.7l-4.7,5.6c-1.4-1.3-3.4-2.2-6.2-2.2c-2.1,0-3.9,0.7-3.9,2.2c0,1.1,0.9,1.7,4.2,2.4
		c6.5,1.3,8.6,4.2,8.6,8.1c0,7.4-6.3,10.5-12.7,10.5c-5.2,0-8.9-1.7-11.4-4.3l4.7-5.7c1.5,2.1,4.7,3.2,7.3,3.2
		c2.7,0,4.3-0.8,4.3-2.3c0-1.1-0.9-1.7-4.3-2.4c-6.6-1.3-8.3-4.5-8.3-8.1c0-5.9,4.9-10.3,11.8-10.3
		C735.6,73.3,739.2,74.8,741.4,76.7z"/>
</g>
</svg>
